%TF.GenerationSoftware,KiCad,Pcbnew,8.0.5*%
%TF.CreationDate,2024-11-19T02:46:13-06:00*%
%TF.ProjectId,Controls-MotorControllerBreakout,436f6e74-726f-46c7-932d-4d6f746f7243,rev?*%
%TF.SameCoordinates,Original*%
%TF.FileFunction,Copper,L2,Bot*%
%TF.FilePolarity,Positive*%
%FSLAX46Y46*%
G04 Gerber Fmt 4.6, Leading zero omitted, Abs format (unit mm)*
G04 Created by KiCad (PCBNEW 8.0.5) date 2024-11-19 02:46:13*
%MOMM*%
%LPD*%
G01*
G04 APERTURE LIST*
G04 Aperture macros list*
%AMRoundRect*
0 Rectangle with rounded corners*
0 $1 Rounding radius*
0 $2 $3 $4 $5 $6 $7 $8 $9 X,Y pos of 4 corners*
0 Add a 4 corners polygon primitive as box body*
4,1,4,$2,$3,$4,$5,$6,$7,$8,$9,$2,$3,0*
0 Add four circle primitives for the rounded corners*
1,1,$1+$1,$2,$3*
1,1,$1+$1,$4,$5*
1,1,$1+$1,$6,$7*
1,1,$1+$1,$8,$9*
0 Add four rect primitives between the rounded corners*
20,1,$1+$1,$2,$3,$4,$5,0*
20,1,$1+$1,$4,$5,$6,$7,0*
20,1,$1+$1,$6,$7,$8,$9,0*
20,1,$1+$1,$8,$9,$2,$3,0*%
G04 Aperture macros list end*
%TA.AperFunction,SMDPad,CuDef*%
%ADD10R,1.220000X0.910000*%
%TD*%
%TA.AperFunction,SMDPad,CuDef*%
%ADD11RoundRect,0.250000X-0.350000X-0.450000X0.350000X-0.450000X0.350000X0.450000X-0.350000X0.450000X0*%
%TD*%
%TA.AperFunction,SMDPad,CuDef*%
%ADD12RoundRect,0.150000X0.587500X0.150000X-0.587500X0.150000X-0.587500X-0.150000X0.587500X-0.150000X0*%
%TD*%
%TA.AperFunction,SMDPad,CuDef*%
%ADD13RoundRect,0.112500X-0.112500X0.187500X-0.112500X-0.187500X0.112500X-0.187500X0.112500X0.187500X0*%
%TD*%
%TA.AperFunction,SMDPad,CuDef*%
%ADD14RoundRect,0.250000X0.475000X-0.250000X0.475000X0.250000X-0.475000X0.250000X-0.475000X-0.250000X0*%
%TD*%
%TA.AperFunction,ComponentPad*%
%ADD15R,1.700000X1.700000*%
%TD*%
%TA.AperFunction,ComponentPad*%
%ADD16O,1.700000X1.700000*%
%TD*%
%TA.AperFunction,ComponentPad*%
%ADD17O,1.500000X2.020000*%
%TD*%
%TA.AperFunction,ComponentPad*%
%ADD18RoundRect,0.250001X-0.499999X-0.759999X0.499999X-0.759999X0.499999X0.759999X-0.499999X0.759999X0*%
%TD*%
%TA.AperFunction,ComponentPad*%
%ADD19RoundRect,0.250001X0.499999X0.759999X-0.499999X0.759999X-0.499999X-0.759999X0.499999X-0.759999X0*%
%TD*%
%TA.AperFunction,SMDPad,CuDef*%
%ADD20RoundRect,0.250000X0.262500X0.450000X-0.262500X0.450000X-0.262500X-0.450000X0.262500X-0.450000X0*%
%TD*%
%TA.AperFunction,SMDPad,CuDef*%
%ADD21RoundRect,0.250000X0.625000X-0.375000X0.625000X0.375000X-0.625000X0.375000X-0.625000X-0.375000X0*%
%TD*%
%TA.AperFunction,ComponentPad*%
%ADD22C,1.575000*%
%TD*%
%TA.AperFunction,ComponentPad*%
%ADD23R,1.575000X1.575000*%
%TD*%
%TA.AperFunction,ComponentPad*%
%ADD24C,4.116000*%
%TD*%
%TA.AperFunction,ComponentPad*%
%ADD25C,1.500000*%
%TD*%
%TA.AperFunction,ComponentPad*%
%ADD26RoundRect,0.250001X0.499999X0.499999X-0.499999X0.499999X-0.499999X-0.499999X0.499999X-0.499999X0*%
%TD*%
%TA.AperFunction,SMDPad,CuDef*%
%ADD27RoundRect,0.250000X-0.262500X-0.450000X0.262500X-0.450000X0.262500X0.450000X-0.262500X0.450000X0*%
%TD*%
%TA.AperFunction,ViaPad*%
%ADD28C,0.600000*%
%TD*%
%TA.AperFunction,Conductor*%
%ADD29C,0.200000*%
%TD*%
%TA.AperFunction,Conductor*%
%ADD30C,0.400000*%
%TD*%
G04 APERTURE END LIST*
D10*
%TO.P,Z1,1,K*%
%TO.N,Net-(Q1-S)*%
X145250000Y-55885000D03*
%TO.P,Z1,2,A*%
%TO.N,Net-(Q1-G)*%
X145250000Y-52615000D03*
%TD*%
D11*
%TO.P,R3,1*%
%TO.N,GND*%
X138000000Y-53750000D03*
%TO.P,R3,2*%
%TO.N,Net-(Q1-G)*%
X140000000Y-53750000D03*
%TD*%
D12*
%TO.P,Q1,1,G*%
%TO.N,Net-(Q1-G)*%
X141937500Y-55800000D03*
%TO.P,Q1,2,S*%
%TO.N,Net-(Q1-S)*%
X141937500Y-57700000D03*
%TO.P,Q1,3,D*%
%TO.N,/EXT_PWR*%
X140062500Y-56750000D03*
%TD*%
D13*
%TO.P,D2,2,A2*%
%TO.N,/EXT_PWR*%
X138000000Y-57800000D03*
%TO.P,D2,1,A1*%
%TO.N,GND*%
X138000000Y-55700000D03*
%TD*%
D14*
%TO.P,C1,1*%
%TO.N,Net-(Q1-S)*%
X148250000Y-56615000D03*
%TO.P,C1,2*%
%TO.N,GND*%
X148250000Y-54715000D03*
%TD*%
D15*
%TO.P,JP1,1,A*%
%TO.N,Net-(JP1-A)*%
X142375000Y-51600000D03*
D16*
%TO.P,JP1,2,B*%
%TO.N,/CAN_L*%
X139835000Y-51600000D03*
%TD*%
D17*
%TO.P,J3,2,Pin_2*%
%TO.N,/CAN_L*%
X127600000Y-60360000D03*
D18*
%TO.P,J3,1,Pin_1*%
%TO.N,/CAN_H*%
X124600000Y-60360000D03*
%TD*%
D17*
%TO.P,J2,2,Pin_2*%
%TO.N,/CAN_L*%
X139600000Y-43640000D03*
D19*
%TO.P,J2,1,Pin_1*%
%TO.N,/CAN_H*%
X142600000Y-43640000D03*
%TD*%
D17*
%TO.P,J4,2,Pin_2*%
%TO.N,GND*%
X141000000Y-60360000D03*
D18*
%TO.P,J4,1,Pin_1*%
%TO.N,/EXT_PWR*%
X138000000Y-60360000D03*
%TD*%
D20*
%TO.P,R1,1*%
%TO.N,Net-(JP1-A)*%
X143575000Y-46250000D03*
%TO.P,R1,2*%
%TO.N,/CAN_H*%
X141750000Y-46250000D03*
%TD*%
D21*
%TO.P,F1,1*%
%TO.N,Net-(Q1-S)*%
X148500000Y-52650000D03*
%TO.P,F1,2*%
%TO.N,+12V*%
X148500000Y-49850000D03*
%TD*%
D22*
%TO.P,J5,9,9*%
%TO.N,unconnected-(J5-Pad9)*%
X113507500Y-47850000D03*
%TO.P,J5,8,8*%
%TO.N,unconnected-(J5-Pad8)*%
X113507500Y-50620000D03*
%TO.P,J5,7,7*%
%TO.N,unconnected-(J5-Pad7)*%
X113507500Y-53390000D03*
%TO.P,J5,6,6*%
%TO.N,unconnected-(J5-Pad6)*%
X113507500Y-56160000D03*
%TO.P,J5,5,5*%
%TO.N,/CAN_L*%
X116347500Y-46465000D03*
%TO.P,J5,4,4*%
%TO.N,unconnected-(J5-Pad4)*%
X116347500Y-49235000D03*
%TO.P,J5,3,3*%
%TO.N,/CAN_H*%
X116347500Y-52005000D03*
%TO.P,J5,2,2*%
%TO.N,unconnected-(J5-Pad2)*%
X116347500Y-54775000D03*
D23*
%TO.P,J5,1,1*%
%TO.N,unconnected-(J5-Pad1)*%
X116347500Y-57545000D03*
D24*
%TO.P,J5,S1*%
%TO.N,N/C*%
X114927500Y-39510000D03*
%TO.P,J5,S2*%
X114927500Y-64500000D03*
%TD*%
D25*
%TO.P,J1,6,Pin_6*%
%TO.N,unconnected-(J1-Pin_6-Pad6)*%
X124080000Y-43740000D03*
%TO.P,J1,5,Pin_5*%
%TO.N,/CAN_L*%
X127080000Y-43740000D03*
%TO.P,J1,4,Pin_4*%
%TO.N,/CAN_H*%
X130080000Y-43740000D03*
%TO.P,J1,3,Pin_3*%
%TO.N,unconnected-(J1-Pin_3-Pad3)*%
X124080000Y-46740000D03*
%TO.P,J1,2,Pin_2*%
%TO.N,GND*%
X127080000Y-46740000D03*
D26*
%TO.P,J1,1,Pin_1*%
%TO.N,+12V*%
X130080000Y-46740000D03*
%TD*%
D27*
%TO.P,R2,1*%
%TO.N,+12V*%
X131837500Y-64750000D03*
%TO.P,R2,2*%
%TO.N,Net-(D1-A)*%
X133662500Y-64750000D03*
%TD*%
D28*
%TO.N,Net-(JP1-A)*%
X143575000Y-46250000D03*
%TO.N,/CAN_H*%
X141750000Y-46250000D03*
%TO.N,GND*%
X138000000Y-53750000D03*
X148250000Y-54715000D03*
%TO.N,/CAN_L*%
X139500000Y-46250000D03*
X132325000Y-54075000D03*
%TO.N,Net-(D1-A)*%
X133687500Y-67000000D03*
%TD*%
D29*
%TO.N,Net-(D1-A)*%
X133662500Y-66787500D02*
X133662500Y-64750000D01*
X133687500Y-67000000D02*
X133687500Y-66812500D01*
X133687500Y-66812500D02*
X133662500Y-66787500D01*
%TO.N,/CAN_H*%
X120330075Y-52005000D02*
X116347500Y-52005000D01*
D30*
%TO.N,Net-(Q1-S)*%
X148485000Y-52650000D02*
X148500000Y-52650000D01*
X145250000Y-55885000D02*
X148485000Y-52650000D01*
D29*
%TO.N,/CAN_L*%
X132325000Y-54075000D02*
X127600000Y-58800000D01*
X127600000Y-58800000D02*
X127600000Y-60360000D01*
D30*
%TO.N,Net-(Q1-G)*%
X145122500Y-52615000D02*
X145250000Y-52615000D01*
X141937500Y-55800000D02*
X145122500Y-52615000D01*
%TO.N,Net-(Q1-S)*%
X147520000Y-55885000D02*
X148250000Y-56615000D01*
X145250000Y-55885000D02*
X147520000Y-55885000D01*
X143752500Y-55885000D02*
X145250000Y-55885000D01*
X141937500Y-57700000D02*
X143752500Y-55885000D01*
%TO.N,Net-(Q1-G)*%
X140000000Y-53862500D02*
X141937500Y-55800000D01*
X140000000Y-53750000D02*
X140000000Y-53862500D01*
%TO.N,/EXT_PWR*%
X139012500Y-57800000D02*
X140062500Y-56750000D01*
X138000000Y-57800000D02*
X139012500Y-57800000D01*
X138000000Y-57800000D02*
X138000000Y-60360000D01*
%TO.N,GND*%
X138000000Y-55700000D02*
X138000000Y-53750000D01*
D29*
%TO.N,/CAN_L*%
X139500000Y-46250000D02*
X139500000Y-43740000D01*
X139500000Y-43740000D02*
X139600000Y-43640000D01*
%TO.N,/CAN_H*%
X124600000Y-56274925D02*
X124600000Y-60360000D01*
X120330075Y-52005000D02*
X124600000Y-56274925D01*
X120330075Y-52005000D02*
X128595075Y-43740000D01*
X130080000Y-43740000D02*
X128595075Y-43740000D01*
%TO.N,Net-(D1-A)*%
X133642500Y-67045000D02*
X133687500Y-67000000D01*
%TD*%
%TA.AperFunction,Conductor*%
%TO.N,+12V*%
G36*
X149253243Y-35300669D02*
G01*
X149577952Y-35317687D01*
X149590860Y-35319044D01*
X149908794Y-35369400D01*
X149921478Y-35372095D01*
X150232429Y-35455414D01*
X150244770Y-35459425D01*
X150545282Y-35574780D01*
X150557138Y-35580058D01*
X150843976Y-35726210D01*
X150855192Y-35732686D01*
X151125165Y-35908008D01*
X151135666Y-35915637D01*
X151385836Y-36118221D01*
X151395481Y-36126906D01*
X151623093Y-36354518D01*
X151631778Y-36364163D01*
X151834362Y-36614333D01*
X151841991Y-36624834D01*
X152017310Y-36894802D01*
X152023792Y-36906029D01*
X152067519Y-36991847D01*
X152169940Y-37192859D01*
X152175219Y-37204717D01*
X152290574Y-37505229D01*
X152294585Y-37517572D01*
X152377902Y-37828515D01*
X152380600Y-37841211D01*
X152430955Y-38159139D01*
X152432312Y-38172047D01*
X152449330Y-38496756D01*
X152449500Y-38503246D01*
X152449500Y-65996753D01*
X152449330Y-66003243D01*
X152432312Y-66327952D01*
X152430955Y-66340860D01*
X152380600Y-66658788D01*
X152377902Y-66671484D01*
X152294585Y-66982427D01*
X152290574Y-66994770D01*
X152175219Y-67295282D01*
X152169940Y-67307140D01*
X152023796Y-67593964D01*
X152017306Y-67605204D01*
X151841991Y-67875165D01*
X151834362Y-67885666D01*
X151631778Y-68135836D01*
X151623093Y-68145481D01*
X151395481Y-68373093D01*
X151385836Y-68381778D01*
X151135666Y-68584362D01*
X151125165Y-68591991D01*
X150855204Y-68767306D01*
X150843964Y-68773796D01*
X150557140Y-68919940D01*
X150545282Y-68925219D01*
X150244770Y-69040574D01*
X150232427Y-69044585D01*
X149921484Y-69127902D01*
X149908788Y-69130600D01*
X149590860Y-69180955D01*
X149577952Y-69182312D01*
X149253244Y-69199330D01*
X149246754Y-69199500D01*
X107753246Y-69199500D01*
X107746756Y-69199330D01*
X107422047Y-69182312D01*
X107409139Y-69180955D01*
X107091211Y-69130600D01*
X107078515Y-69127902D01*
X106767572Y-69044585D01*
X106755229Y-69040574D01*
X106454717Y-68925219D01*
X106442859Y-68919940D01*
X106245501Y-68819381D01*
X106156029Y-68773792D01*
X106144802Y-68767310D01*
X105874834Y-68591991D01*
X105864333Y-68584362D01*
X105614163Y-68381778D01*
X105604518Y-68373093D01*
X105376906Y-68145481D01*
X105368221Y-68135836D01*
X105165637Y-67885666D01*
X105158008Y-67875165D01*
X105061002Y-67725789D01*
X104982686Y-67605192D01*
X104976210Y-67593976D01*
X104830058Y-67307138D01*
X104824780Y-67295282D01*
X104780239Y-67179249D01*
X104709424Y-66994769D01*
X104705414Y-66982427D01*
X104662093Y-66820750D01*
X104622095Y-66671478D01*
X104619399Y-66658788D01*
X104569044Y-66340860D01*
X104567687Y-66327952D01*
X104550670Y-66003243D01*
X104550500Y-65996753D01*
X104550500Y-64499994D01*
X112363941Y-64499994D01*
X112363941Y-64500000D01*
X112384153Y-64821291D01*
X112384155Y-64821299D01*
X112444480Y-65137531D01*
X112497808Y-65301659D01*
X112543963Y-65443710D01*
X112543965Y-65443715D01*
X112681034Y-65735000D01*
X112681037Y-65735006D01*
X112853533Y-66006817D01*
X112853536Y-66006821D01*
X112853537Y-66006822D01*
X113058746Y-66254877D01*
X113232900Y-66418418D01*
X113293424Y-66475254D01*
X113293434Y-66475262D01*
X113553864Y-66664476D01*
X113553869Y-66664478D01*
X113553876Y-66664484D01*
X113835990Y-66819578D01*
X113835992Y-66819579D01*
X113835995Y-66819580D01*
X114135317Y-66938089D01*
X114447137Y-67018151D01*
X114514141Y-67026615D01*
X114766521Y-67058499D01*
X114766530Y-67058499D01*
X114766533Y-67058500D01*
X114766535Y-67058500D01*
X115088465Y-67058500D01*
X115088467Y-67058500D01*
X115088470Y-67058499D01*
X115088478Y-67058499D01*
X115279062Y-67034422D01*
X115407863Y-67018151D01*
X115719683Y-66938089D01*
X116019010Y-66819578D01*
X116301124Y-66664484D01*
X116561574Y-66475256D01*
X116796254Y-66254877D01*
X117001463Y-66006822D01*
X117173964Y-65735004D01*
X117311037Y-65443709D01*
X117373981Y-65249986D01*
X130825001Y-65249986D01*
X130835494Y-65352697D01*
X130890641Y-65519119D01*
X130890643Y-65519124D01*
X130982684Y-65668345D01*
X131106654Y-65792315D01*
X131255875Y-65884356D01*
X131255880Y-65884358D01*
X131422302Y-65939505D01*
X131422309Y-65939506D01*
X131525019Y-65949999D01*
X131587499Y-65949998D01*
X131587500Y-65949998D01*
X131587500Y-65000000D01*
X130825001Y-65000000D01*
X130825001Y-65249986D01*
X117373981Y-65249986D01*
X117410520Y-65137531D01*
X117470845Y-64821299D01*
X117491059Y-64500000D01*
X117491059Y-64499994D01*
X117475332Y-64250013D01*
X130825000Y-64250013D01*
X130825000Y-64500000D01*
X131587500Y-64500000D01*
X131587500Y-63550000D01*
X132087500Y-63550000D01*
X132087500Y-65949999D01*
X132149972Y-65949999D01*
X132149986Y-65949998D01*
X132252697Y-65939505D01*
X132419119Y-65884358D01*
X132419124Y-65884356D01*
X132568342Y-65792317D01*
X132661964Y-65698695D01*
X132723287Y-65665210D01*
X132792979Y-65670194D01*
X132837327Y-65698695D01*
X132931344Y-65792712D01*
X133003096Y-65836968D01*
X133049821Y-65888915D01*
X133062000Y-65942507D01*
X133062000Y-66455145D01*
X133042994Y-66521117D01*
X132961711Y-66650476D01*
X132902131Y-66820745D01*
X132902130Y-66820750D01*
X132881935Y-66999996D01*
X132881935Y-67000003D01*
X132902130Y-67179249D01*
X132902131Y-67179254D01*
X132961711Y-67349523D01*
X133057684Y-67502262D01*
X133185238Y-67629816D01*
X133337978Y-67725789D01*
X133508245Y-67785368D01*
X133508250Y-67785369D01*
X133687496Y-67805565D01*
X133687500Y-67805565D01*
X133687504Y-67805565D01*
X133866749Y-67785369D01*
X133866752Y-67785368D01*
X133866755Y-67785368D01*
X134037022Y-67725789D01*
X134189762Y-67629816D01*
X134317316Y-67502262D01*
X134413289Y-67349522D01*
X134472868Y-67179255D01*
X134493065Y-67000000D01*
X134486089Y-66938089D01*
X134472869Y-66820750D01*
X134472868Y-66820745D01*
X134418190Y-66664484D01*
X134413289Y-66650478D01*
X134317316Y-66497738D01*
X134299319Y-66479741D01*
X134265834Y-66418418D01*
X134263000Y-66392060D01*
X134263000Y-65942507D01*
X134282685Y-65875468D01*
X134321903Y-65836968D01*
X134393656Y-65792712D01*
X134517712Y-65668656D01*
X134609814Y-65519334D01*
X134664999Y-65352797D01*
X134675500Y-65250009D01*
X134675499Y-64249992D01*
X134664999Y-64147203D01*
X134609814Y-63980666D01*
X134517712Y-63831344D01*
X134393656Y-63707288D01*
X134244334Y-63615186D01*
X134077797Y-63560001D01*
X134077795Y-63560000D01*
X133975010Y-63549500D01*
X133349998Y-63549500D01*
X133349980Y-63549501D01*
X133247203Y-63560000D01*
X133247200Y-63560001D01*
X133080668Y-63615185D01*
X133080663Y-63615187D01*
X132931345Y-63707287D01*
X132837327Y-63801305D01*
X132776003Y-63834789D01*
X132706312Y-63829805D01*
X132661965Y-63801304D01*
X132568345Y-63707684D01*
X132419124Y-63615643D01*
X132419119Y-63615641D01*
X132252697Y-63560494D01*
X132252690Y-63560493D01*
X132149986Y-63550000D01*
X132087500Y-63550000D01*
X131587500Y-63550000D01*
X131587499Y-63549999D01*
X131525028Y-63550000D01*
X131525011Y-63550001D01*
X131422302Y-63560494D01*
X131255880Y-63615641D01*
X131255875Y-63615643D01*
X131106654Y-63707684D01*
X130982684Y-63831654D01*
X130890643Y-63980875D01*
X130890641Y-63980880D01*
X130835494Y-64147302D01*
X130835493Y-64147309D01*
X130825000Y-64250013D01*
X117475332Y-64250013D01*
X117470846Y-64178708D01*
X117470845Y-64178701D01*
X117410520Y-63862469D01*
X117311037Y-63556291D01*
X117307841Y-63549500D01*
X117173965Y-63264999D01*
X117173964Y-63264996D01*
X117001463Y-62993178D01*
X116796254Y-62745123D01*
X116561574Y-62524744D01*
X116561571Y-62524742D01*
X116561565Y-62524737D01*
X116301135Y-62335523D01*
X116301128Y-62335518D01*
X116301124Y-62335516D01*
X116128888Y-62240828D01*
X116019007Y-62180420D01*
X116019001Y-62180418D01*
X115719687Y-62061912D01*
X115689988Y-62054286D01*
X115407863Y-61981849D01*
X115407860Y-61981848D01*
X115407853Y-61981847D01*
X115088478Y-61941500D01*
X115088467Y-61941500D01*
X114766533Y-61941500D01*
X114766521Y-61941500D01*
X114447146Y-61981847D01*
X114447137Y-61981849D01*
X114135312Y-62061912D01*
X113835998Y-62180418D01*
X113835992Y-62180420D01*
X113553876Y-62335516D01*
X113553864Y-62335523D01*
X113293434Y-62524737D01*
X113293424Y-62524745D01*
X113058748Y-62745121D01*
X112853533Y-62993182D01*
X112681037Y-63264993D01*
X112681034Y-63264999D01*
X112543965Y-63556284D01*
X112543963Y-63556289D01*
X112464354Y-63801304D01*
X112444480Y-63862469D01*
X112421933Y-63980663D01*
X112384153Y-64178708D01*
X112363941Y-64499994D01*
X104550500Y-64499994D01*
X104550500Y-47849997D01*
X112214580Y-47849997D01*
X112214580Y-47850002D01*
X112234221Y-48074507D01*
X112234222Y-48074514D01*
X112292551Y-48292200D01*
X112292555Y-48292211D01*
X112387796Y-48496456D01*
X112387802Y-48496466D01*
X112517066Y-48681073D01*
X112676427Y-48840434D01*
X112861040Y-48969702D01*
X112948515Y-49010492D01*
X113065288Y-49064944D01*
X113065290Y-49064944D01*
X113065295Y-49064947D01*
X113252934Y-49115225D01*
X113312594Y-49151590D01*
X113343123Y-49214437D01*
X113334828Y-49283813D01*
X113290343Y-49337691D01*
X113252935Y-49354774D01*
X113214451Y-49365086D01*
X113065299Y-49405051D01*
X113065288Y-49405055D01*
X112861043Y-49500296D01*
X112861033Y-49500302D01*
X112676426Y-49629566D01*
X112517066Y-49788926D01*
X112387802Y-49973533D01*
X112387796Y-49973543D01*
X112292555Y-50177788D01*
X112292551Y-50177799D01*
X112234222Y-50395485D01*
X112234221Y-50395492D01*
X112214580Y-50619997D01*
X112214580Y-50620002D01*
X112234221Y-50844507D01*
X112234222Y-50844514D01*
X112292551Y-51062200D01*
X112292555Y-51062211D01*
X112387796Y-51266456D01*
X112387802Y-51266466D01*
X112456507Y-51364586D01*
X112517066Y-51451073D01*
X112676427Y-51610434D01*
X112861040Y-51739702D01*
X112948515Y-51780492D01*
X113065288Y-51834944D01*
X113065290Y-51834944D01*
X113065295Y-51834947D01*
X113252934Y-51885225D01*
X113312594Y-51921590D01*
X113343123Y-51984437D01*
X113334828Y-52053813D01*
X113290343Y-52107691D01*
X113252935Y-52124774D01*
X113214451Y-52135086D01*
X113065299Y-52175051D01*
X113065288Y-52175055D01*
X112861043Y-52270296D01*
X112861033Y-52270302D01*
X112676426Y-52399566D01*
X112517066Y-52558926D01*
X112387802Y-52743533D01*
X112387796Y-52743543D01*
X112292555Y-52947788D01*
X112292551Y-52947799D01*
X112234222Y-53165485D01*
X112234221Y-53165492D01*
X112214580Y-53389997D01*
X112214580Y-53390002D01*
X112234221Y-53614507D01*
X112234222Y-53614514D01*
X112292551Y-53832200D01*
X112292555Y-53832211D01*
X112387796Y-54036456D01*
X112387802Y-54036466D01*
X112464263Y-54145663D01*
X112517066Y-54221073D01*
X112676427Y-54380434D01*
X112861040Y-54509702D01*
X112948515Y-54550492D01*
X113065288Y-54604944D01*
X113065290Y-54604944D01*
X113065295Y-54604947D01*
X113252934Y-54655225D01*
X113312594Y-54691590D01*
X113343123Y-54754437D01*
X113334828Y-54823813D01*
X113290343Y-54877691D01*
X113252935Y-54894774D01*
X113214451Y-54905086D01*
X113065299Y-54945051D01*
X113065288Y-54945055D01*
X112861043Y-55040296D01*
X112861033Y-55040302D01*
X112676426Y-55169566D01*
X112517066Y-55328926D01*
X112387802Y-55513533D01*
X112387796Y-55513543D01*
X112292555Y-55717788D01*
X112292551Y-55717799D01*
X112234222Y-55935485D01*
X112234221Y-55935492D01*
X112214580Y-56159997D01*
X112214580Y-56160002D01*
X112234221Y-56384507D01*
X112234222Y-56384514D01*
X112292551Y-56602200D01*
X112292555Y-56602211D01*
X112387796Y-56806456D01*
X112387802Y-56806466D01*
X112411632Y-56840498D01*
X112517066Y-56991073D01*
X112676427Y-57150434D01*
X112861040Y-57279702D01*
X112976746Y-57333656D01*
X113065288Y-57374944D01*
X113065290Y-57374944D01*
X113065295Y-57374947D01*
X113282987Y-57433278D01*
X113443353Y-57447308D01*
X113507498Y-57452920D01*
X113507500Y-57452920D01*
X113507502Y-57452920D01*
X113563628Y-57448009D01*
X113732013Y-57433278D01*
X113949705Y-57374947D01*
X114153960Y-57279702D01*
X114338573Y-57150434D01*
X114497934Y-56991073D01*
X114627202Y-56806460D01*
X114722447Y-56602205D01*
X114780778Y-56384513D01*
X114800420Y-56160000D01*
X114780778Y-55935487D01*
X114722447Y-55717795D01*
X114697828Y-55665000D01*
X114684503Y-55636424D01*
X114627202Y-55513540D01*
X114497934Y-55328927D01*
X114338573Y-55169566D01*
X114199892Y-55072460D01*
X114153966Y-55040302D01*
X114153963Y-55040300D01*
X114153960Y-55040298D01*
X114153956Y-55040296D01*
X113949711Y-54945055D01*
X113949700Y-54945051D01*
X113843605Y-54916623D01*
X113762063Y-54894774D01*
X113702405Y-54858410D01*
X113671876Y-54795563D01*
X113680171Y-54726187D01*
X113724656Y-54672310D01*
X113762062Y-54655226D01*
X113949705Y-54604947D01*
X114153960Y-54509702D01*
X114338573Y-54380434D01*
X114497934Y-54221073D01*
X114627202Y-54036460D01*
X114722447Y-53832205D01*
X114780778Y-53614513D01*
X114795592Y-53445184D01*
X114800420Y-53390002D01*
X114800420Y-53389997D01*
X114789872Y-53269435D01*
X114780778Y-53165487D01*
X114722447Y-52947795D01*
X114697267Y-52893797D01*
X114672149Y-52839930D01*
X114627202Y-52743540D01*
X114497934Y-52558927D01*
X114338573Y-52399566D01*
X114153966Y-52270302D01*
X114153963Y-52270300D01*
X114153960Y-52270298D01*
X114153956Y-52270296D01*
X113949711Y-52175055D01*
X113949700Y-52175051D01*
X113843605Y-52146623D01*
X113762063Y-52124774D01*
X113702405Y-52088410D01*
X113671876Y-52025563D01*
X113680171Y-51956187D01*
X113724656Y-51902310D01*
X113762062Y-51885226D01*
X113949705Y-51834947D01*
X114153960Y-51739702D01*
X114338573Y-51610434D01*
X114497934Y-51451073D01*
X114627202Y-51266460D01*
X114722447Y-51062205D01*
X114780778Y-50844513D01*
X114795509Y-50676128D01*
X114800420Y-50620002D01*
X114800420Y-50619997D01*
X114789941Y-50500225D01*
X114780778Y-50395487D01*
X114722447Y-50177795D01*
X114627202Y-49973540D01*
X114497934Y-49788927D01*
X114338573Y-49629566D01*
X114153960Y-49500298D01*
X114153956Y-49500296D01*
X113949711Y-49405055D01*
X113949700Y-49405051D01*
X113843605Y-49376623D01*
X113762063Y-49354774D01*
X113702405Y-49318410D01*
X113671876Y-49255563D01*
X113680171Y-49186187D01*
X113724656Y-49132310D01*
X113762062Y-49115226D01*
X113949705Y-49064947D01*
X114153960Y-48969702D01*
X114338573Y-48840434D01*
X114497934Y-48681073D01*
X114627202Y-48496460D01*
X114722447Y-48292205D01*
X114780778Y-48074513D01*
X114795509Y-47906128D01*
X114800420Y-47850002D01*
X114800420Y-47849997D01*
X114787436Y-47701593D01*
X114780778Y-47625487D01*
X114722447Y-47407795D01*
X114627202Y-47203540D01*
X114497934Y-47018927D01*
X114338573Y-46859566D01*
X114185328Y-46752262D01*
X114153966Y-46730302D01*
X114153963Y-46730300D01*
X114153960Y-46730298D01*
X114153956Y-46730296D01*
X113949711Y-46635055D01*
X113949700Y-46635051D01*
X113732014Y-46576722D01*
X113732007Y-46576721D01*
X113507502Y-46557080D01*
X113507498Y-46557080D01*
X113282992Y-46576721D01*
X113282985Y-46576722D01*
X113065299Y-46635051D01*
X113065288Y-46635055D01*
X112861043Y-46730296D01*
X112861033Y-46730302D01*
X112676426Y-46859566D01*
X112517066Y-47018926D01*
X112387802Y-47203533D01*
X112387796Y-47203543D01*
X112292555Y-47407788D01*
X112292551Y-47407799D01*
X112234222Y-47625485D01*
X112234221Y-47625492D01*
X112214580Y-47849997D01*
X104550500Y-47849997D01*
X104550500Y-46464997D01*
X115054580Y-46464997D01*
X115054580Y-46465002D01*
X115074221Y-46689507D01*
X115074222Y-46689514D01*
X115132551Y-46907200D01*
X115132555Y-46907211D01*
X115227796Y-47111456D01*
X115227802Y-47111466D01*
X115300469Y-47215245D01*
X115357066Y-47296073D01*
X115516427Y-47455434D01*
X115701040Y-47584702D01*
X115788515Y-47625492D01*
X115905288Y-47679944D01*
X115905290Y-47679944D01*
X115905295Y-47679947D01*
X116092934Y-47730225D01*
X116152594Y-47766590D01*
X116183123Y-47829437D01*
X116174828Y-47898813D01*
X116130343Y-47952691D01*
X116092935Y-47969774D01*
X116068933Y-47976206D01*
X115905299Y-48020051D01*
X115905288Y-48020055D01*
X115701043Y-48115296D01*
X115701033Y-48115302D01*
X115516426Y-48244566D01*
X115357066Y-48403926D01*
X115227802Y-48588533D01*
X115227796Y-48588543D01*
X115132555Y-48792788D01*
X115132551Y-48792799D01*
X115074222Y-49010485D01*
X115074221Y-49010492D01*
X115054580Y-49234997D01*
X115054580Y-49235002D01*
X115074221Y-49459507D01*
X115074222Y-49459514D01*
X115132551Y-49677200D01*
X115132555Y-49677211D01*
X115227796Y-49881456D01*
X115227802Y-49881466D01*
X115357066Y-50066073D01*
X115516427Y-50225434D01*
X115701040Y-50354702D01*
X115788515Y-50395492D01*
X115905288Y-50449944D01*
X115905290Y-50449944D01*
X115905295Y-50449947D01*
X116092934Y-50500225D01*
X116152594Y-50536590D01*
X116183123Y-50599437D01*
X116174828Y-50668813D01*
X116130343Y-50722691D01*
X116092935Y-50739774D01*
X116054451Y-50750086D01*
X115905299Y-50790051D01*
X115905288Y-50790055D01*
X115701043Y-50885296D01*
X115701033Y-50885302D01*
X115516426Y-51014566D01*
X115357066Y-51173926D01*
X115227802Y-51358533D01*
X115227796Y-51358543D01*
X115132555Y-51562788D01*
X115132551Y-51562799D01*
X115074222Y-51780485D01*
X115074221Y-51780492D01*
X115054580Y-52004997D01*
X115054580Y-52005002D01*
X115074221Y-52229507D01*
X115074222Y-52229514D01*
X115132551Y-52447200D01*
X115132555Y-52447211D01*
X115227796Y-52651456D01*
X115227802Y-52651466D01*
X115301349Y-52756501D01*
X115357066Y-52836073D01*
X115516427Y-52995434D01*
X115701040Y-53124702D01*
X115788515Y-53165492D01*
X115905288Y-53219944D01*
X115905290Y-53219944D01*
X115905295Y-53219947D01*
X116092934Y-53270225D01*
X116152594Y-53306590D01*
X116183123Y-53369437D01*
X116174828Y-53438813D01*
X116130343Y-53492691D01*
X116092935Y-53509774D01*
X116077938Y-53513793D01*
X115905299Y-53560051D01*
X115905288Y-53560055D01*
X115701043Y-53655296D01*
X115701033Y-53655302D01*
X115516426Y-53784566D01*
X115357066Y-53943926D01*
X115227802Y-54128533D01*
X115227796Y-54128543D01*
X115132555Y-54332788D01*
X115132551Y-54332799D01*
X115074222Y-54550485D01*
X115074221Y-54550492D01*
X115054580Y-54774997D01*
X115054580Y-54775002D01*
X115074221Y-54999507D01*
X115074222Y-54999514D01*
X115132551Y-55217200D01*
X115132555Y-55217211D01*
X115227796Y-55421456D01*
X115227802Y-55421466D01*
X115342695Y-55585549D01*
X115357066Y-55606073D01*
X115516427Y-55765434D01*
X115701040Y-55894702D01*
X115788515Y-55935492D01*
X115905288Y-55989944D01*
X115905290Y-55989944D01*
X115905295Y-55989947D01*
X115992170Y-56013225D01*
X116051831Y-56049590D01*
X116082360Y-56112437D01*
X116074066Y-56181812D01*
X116029580Y-56235690D01*
X115963028Y-56256965D01*
X115960077Y-56257000D01*
X115512129Y-56257000D01*
X115512123Y-56257001D01*
X115452516Y-56263408D01*
X115317671Y-56313702D01*
X115317664Y-56313706D01*
X115202455Y-56399952D01*
X115202452Y-56399955D01*
X115116206Y-56515164D01*
X115116202Y-56515171D01*
X115065908Y-56650017D01*
X115059514Y-56709499D01*
X115059501Y-56709623D01*
X115059500Y-56709635D01*
X115059500Y-58380370D01*
X115059501Y-58380376D01*
X115065908Y-58439983D01*
X115116202Y-58574828D01*
X115116206Y-58574835D01*
X115202452Y-58690044D01*
X115202455Y-58690047D01*
X115317664Y-58776293D01*
X115317671Y-58776297D01*
X115452517Y-58826591D01*
X115452516Y-58826591D01*
X115459444Y-58827335D01*
X115512127Y-58833000D01*
X117182872Y-58832999D01*
X117242483Y-58826591D01*
X117377331Y-58776296D01*
X117492546Y-58690046D01*
X117578796Y-58574831D01*
X117629091Y-58439983D01*
X117635500Y-58380373D01*
X117635500Y-58312387D01*
X120710500Y-58312387D01*
X120710500Y-58487612D01*
X120744681Y-58659450D01*
X120744684Y-58659462D01*
X120811731Y-58821329D01*
X120811738Y-58821342D01*
X120909079Y-58967022D01*
X120909082Y-58967026D01*
X121032973Y-59090917D01*
X121032977Y-59090920D01*
X121178657Y-59188261D01*
X121178670Y-59188268D01*
X121340537Y-59255315D01*
X121340542Y-59255317D01*
X121491534Y-59285351D01*
X121512387Y-59289499D01*
X121512391Y-59289500D01*
X121512392Y-59289500D01*
X121687609Y-59289500D01*
X121687610Y-59289499D01*
X121859458Y-59255317D01*
X122021336Y-59188265D01*
X122167023Y-59090920D01*
X122290920Y-58967023D01*
X122388265Y-58821336D01*
X122455317Y-58659458D01*
X122489500Y-58487608D01*
X122489500Y-58312392D01*
X122455317Y-58140542D01*
X122417571Y-58049415D01*
X122388268Y-57978670D01*
X122388261Y-57978657D01*
X122290920Y-57832977D01*
X122290917Y-57832973D01*
X122167026Y-57709082D01*
X122167022Y-57709079D01*
X122021342Y-57611738D01*
X122021329Y-57611731D01*
X121859462Y-57544684D01*
X121859450Y-57544681D01*
X121687612Y-57510500D01*
X121687608Y-57510500D01*
X121512392Y-57510500D01*
X121512387Y-57510500D01*
X121340549Y-57544681D01*
X121340537Y-57544684D01*
X121178670Y-57611731D01*
X121178657Y-57611738D01*
X121032977Y-57709079D01*
X121032973Y-57709082D01*
X120909082Y-57832973D01*
X120909079Y-57832977D01*
X120811738Y-57978657D01*
X120811731Y-57978670D01*
X120744684Y-58140537D01*
X120744681Y-58140549D01*
X120710500Y-58312387D01*
X117635500Y-58312387D01*
X117635499Y-56709628D01*
X117629091Y-56650017D01*
X117617964Y-56620185D01*
X117578797Y-56515171D01*
X117578793Y-56515164D01*
X117492547Y-56399955D01*
X117492544Y-56399952D01*
X117377335Y-56313706D01*
X117377328Y-56313702D01*
X117242482Y-56263408D01*
X117242483Y-56263408D01*
X117182883Y-56257001D01*
X117182881Y-56257000D01*
X117182873Y-56257000D01*
X117182865Y-56257000D01*
X116734923Y-56257000D01*
X116667884Y-56237315D01*
X116622129Y-56184511D01*
X116612185Y-56115353D01*
X116641210Y-56051797D01*
X116699988Y-56014023D01*
X116702804Y-56013232D01*
X116789705Y-55989947D01*
X116993960Y-55894702D01*
X117178573Y-55765434D01*
X117337934Y-55606073D01*
X117467202Y-55421460D01*
X117562447Y-55217205D01*
X117620778Y-54999513D01*
X117635673Y-54829257D01*
X117640420Y-54775002D01*
X117640420Y-54774997D01*
X117629941Y-54655225D01*
X117620778Y-54550487D01*
X117562447Y-54332795D01*
X117552843Y-54312200D01*
X117523840Y-54250001D01*
X117467202Y-54128540D01*
X117337934Y-53943927D01*
X117178573Y-53784566D01*
X116993960Y-53655298D01*
X116993956Y-53655296D01*
X116789711Y-53560055D01*
X116789700Y-53560051D01*
X116683605Y-53531623D01*
X116602063Y-53509774D01*
X116542405Y-53473410D01*
X116511876Y-53410563D01*
X116520171Y-53341187D01*
X116564656Y-53287310D01*
X116602062Y-53270226D01*
X116789705Y-53219947D01*
X116993960Y-53124702D01*
X117178573Y-52995434D01*
X117337934Y-52836073D01*
X117438586Y-52692328D01*
X117462360Y-52658376D01*
X117516937Y-52614751D01*
X117563934Y-52605500D01*
X120029978Y-52605500D01*
X120097017Y-52625185D01*
X120117659Y-52641819D01*
X123963181Y-56487341D01*
X123996666Y-56548664D01*
X123999500Y-56575022D01*
X123999500Y-58753130D01*
X123979815Y-58820169D01*
X123927011Y-58865924D01*
X123914504Y-58870836D01*
X123780665Y-58915186D01*
X123780662Y-58915187D01*
X123631348Y-59007286D01*
X123631344Y-59007289D01*
X123507289Y-59131344D01*
X123507286Y-59131348D01*
X123415187Y-59280662D01*
X123415186Y-59280664D01*
X123360001Y-59447203D01*
X123360000Y-59447204D01*
X123349500Y-59549984D01*
X123349500Y-61170015D01*
X123360000Y-61272795D01*
X123360001Y-61272797D01*
X123387593Y-61356065D01*
X123415186Y-61439335D01*
X123415187Y-61439337D01*
X123507286Y-61588651D01*
X123507289Y-61588655D01*
X123631344Y-61712710D01*
X123631348Y-61712713D01*
X123780662Y-61804812D01*
X123780664Y-61804813D01*
X123780666Y-61804814D01*
X123947203Y-61859999D01*
X124049992Y-61870500D01*
X124049997Y-61870500D01*
X125150003Y-61870500D01*
X125150008Y-61870500D01*
X125252797Y-61859999D01*
X125419334Y-61804814D01*
X125568655Y-61712711D01*
X125692711Y-61588655D01*
X125784814Y-61439334D01*
X125839999Y-61272797D01*
X125850500Y-61170008D01*
X125850500Y-60001577D01*
X126349500Y-60001577D01*
X126349500Y-60718422D01*
X126380290Y-60912826D01*
X126441117Y-61100029D01*
X126476777Y-61170015D01*
X126530476Y-61275405D01*
X126646172Y-61434646D01*
X126785354Y-61573828D01*
X126944595Y-61689524D01*
X127027455Y-61731743D01*
X127119970Y-61778882D01*
X127119972Y-61778882D01*
X127119975Y-61778884D01*
X127199773Y-61804812D01*
X127307173Y-61839709D01*
X127501578Y-61870500D01*
X127501583Y-61870500D01*
X127698422Y-61870500D01*
X127892826Y-61839709D01*
X128080025Y-61778884D01*
X128255405Y-61689524D01*
X128414646Y-61573828D01*
X128553828Y-61434646D01*
X128669524Y-61275405D01*
X128758884Y-61100025D01*
X128819709Y-60912826D01*
X128850500Y-60718422D01*
X128850500Y-60001577D01*
X128819709Y-59807173D01*
X128758882Y-59619970D01*
X128723222Y-59549984D01*
X136749500Y-59549984D01*
X136749500Y-61170015D01*
X136760000Y-61272795D01*
X136760001Y-61272797D01*
X136787593Y-61356065D01*
X136815186Y-61439335D01*
X136815187Y-61439337D01*
X136907286Y-61588651D01*
X136907289Y-61588655D01*
X137031344Y-61712710D01*
X137031348Y-61712713D01*
X137180662Y-61804812D01*
X137180664Y-61804813D01*
X137180666Y-61804814D01*
X137347203Y-61859999D01*
X137449992Y-61870500D01*
X137449997Y-61870500D01*
X138550003Y-61870500D01*
X138550008Y-61870500D01*
X138652797Y-61859999D01*
X138819334Y-61804814D01*
X138968655Y-61712711D01*
X139092711Y-61588655D01*
X139184814Y-61439334D01*
X139239999Y-61272797D01*
X139250500Y-61170008D01*
X139250500Y-60001577D01*
X139749500Y-60001577D01*
X139749500Y-60718422D01*
X139780290Y-60912826D01*
X139841117Y-61100029D01*
X139876777Y-61170015D01*
X139930476Y-61275405D01*
X140046172Y-61434646D01*
X140185354Y-61573828D01*
X140344595Y-61689524D01*
X140427455Y-61731743D01*
X140519970Y-61778882D01*
X140519972Y-61778882D01*
X140519975Y-61778884D01*
X140599773Y-61804812D01*
X140707173Y-61839709D01*
X140901578Y-61870500D01*
X140901583Y-61870500D01*
X141098422Y-61870500D01*
X141292826Y-61839709D01*
X141480025Y-61778884D01*
X141655405Y-61689524D01*
X141814646Y-61573828D01*
X141953828Y-61434646D01*
X142069524Y-61275405D01*
X142158884Y-61100025D01*
X142219709Y-60912826D01*
X142250500Y-60718422D01*
X142250500Y-60001577D01*
X142219709Y-59807173D01*
X142158882Y-59619970D01*
X142070853Y-59447204D01*
X142069524Y-59444595D01*
X141953828Y-59285354D01*
X141814646Y-59146172D01*
X141655405Y-59030476D01*
X141649998Y-59027721D01*
X141480029Y-58941117D01*
X141292826Y-58880290D01*
X141098422Y-58849500D01*
X141098417Y-58849500D01*
X140901583Y-58849500D01*
X140901578Y-58849500D01*
X140707173Y-58880290D01*
X140519970Y-58941117D01*
X140344594Y-59030476D01*
X140261401Y-59090920D01*
X140185354Y-59146172D01*
X140185352Y-59146174D01*
X140185351Y-59146174D01*
X140046174Y-59285351D01*
X140046174Y-59285352D01*
X140046172Y-59285354D01*
X140043160Y-59289500D01*
X139930476Y-59444594D01*
X139841117Y-59619970D01*
X139780290Y-59807173D01*
X139749500Y-60001577D01*
X139250500Y-60001577D01*
X139250500Y-59549992D01*
X139239999Y-59447203D01*
X139184814Y-59280666D01*
X139169178Y-59255317D01*
X139092713Y-59131348D01*
X139092710Y-59131344D01*
X138968655Y-59007289D01*
X138968651Y-59007286D01*
X138819337Y-58915187D01*
X138810905Y-58912393D01*
X138785494Y-58903972D01*
X138728051Y-58864200D01*
X138701228Y-58799684D01*
X138700500Y-58786267D01*
X138700500Y-58624500D01*
X138720185Y-58557461D01*
X138772989Y-58511706D01*
X138824500Y-58500500D01*
X139081496Y-58500500D01*
X139200268Y-58476874D01*
X139216828Y-58473580D01*
X139323042Y-58429585D01*
X139344307Y-58420777D01*
X139344308Y-58420776D01*
X139344311Y-58420775D01*
X139459043Y-58344114D01*
X140216338Y-57586819D01*
X140277661Y-57553334D01*
X140304019Y-57550500D01*
X140575500Y-57550500D01*
X140642539Y-57570185D01*
X140688294Y-57622989D01*
X140699500Y-57674500D01*
X140699500Y-57915701D01*
X140702401Y-57952567D01*
X140702402Y-57952573D01*
X140748254Y-58110393D01*
X140748255Y-58110396D01*
X140831917Y-58251862D01*
X140831923Y-58251870D01*
X140948129Y-58368076D01*
X140948133Y-58368079D01*
X140948135Y-58368081D01*
X141089602Y-58451744D01*
X141131224Y-58463836D01*
X141247426Y-58497597D01*
X141247429Y-58497597D01*
X141247431Y-58497598D01*
X141284306Y-58500500D01*
X141284314Y-58500500D01*
X142590686Y-58500500D01*
X142590694Y-58500500D01*
X142627569Y-58497598D01*
X142627571Y-58497597D01*
X142627573Y-58497597D01*
X142669191Y-58485505D01*
X142785398Y-58451744D01*
X142923380Y-58370141D01*
X142991103Y-58352959D01*
X143057365Y-58375119D01*
X143101129Y-58429585D01*
X143110500Y-58476874D01*
X143110500Y-58487612D01*
X143144681Y-58659450D01*
X143144684Y-58659462D01*
X143211731Y-58821329D01*
X143211738Y-58821342D01*
X143309079Y-58967022D01*
X143309082Y-58967026D01*
X143432973Y-59090917D01*
X143432977Y-59090920D01*
X143578657Y-59188261D01*
X143578670Y-59188268D01*
X143740537Y-59255315D01*
X143740542Y-59255317D01*
X143891534Y-59285351D01*
X143912387Y-59289499D01*
X143912391Y-59289500D01*
X143912392Y-59289500D01*
X144087609Y-59289500D01*
X144087610Y-59289499D01*
X144259458Y-59255317D01*
X144421336Y-59188265D01*
X144567023Y-59090920D01*
X144690920Y-58967023D01*
X144788265Y-58821336D01*
X144855317Y-58659458D01*
X144889500Y-58487608D01*
X144889500Y-58312392D01*
X144855317Y-58140542D01*
X144817571Y-58049415D01*
X144788268Y-57978670D01*
X144788261Y-57978657D01*
X144690920Y-57832977D01*
X144690917Y-57832973D01*
X144567026Y-57709082D01*
X144567022Y-57709079D01*
X144421342Y-57611738D01*
X144421329Y-57611731D01*
X144259462Y-57544684D01*
X144259450Y-57544681D01*
X144087612Y-57510500D01*
X144087608Y-57510500D01*
X143912392Y-57510500D01*
X143912387Y-57510500D01*
X143740549Y-57544681D01*
X143740537Y-57544684D01*
X143578670Y-57611731D01*
X143578657Y-57611738D01*
X143432977Y-57709079D01*
X143432973Y-57709082D01*
X143387181Y-57754875D01*
X143325858Y-57788360D01*
X143256166Y-57783376D01*
X143200233Y-57741504D01*
X143175816Y-57676040D01*
X143175500Y-57667194D01*
X143175500Y-57504018D01*
X143195185Y-57436979D01*
X143211819Y-57416337D01*
X144006338Y-56621819D01*
X144067661Y-56588334D01*
X144094019Y-56585500D01*
X144136506Y-56585500D01*
X144203545Y-56605185D01*
X144235772Y-56635189D01*
X144282448Y-56697539D01*
X144282451Y-56697542D01*
X144282454Y-56697546D01*
X144298595Y-56709629D01*
X144397664Y-56783793D01*
X144397671Y-56783797D01*
X144532517Y-56834091D01*
X144532516Y-56834091D01*
X144539444Y-56834835D01*
X144592127Y-56840500D01*
X145907872Y-56840499D01*
X145967483Y-56834091D01*
X146102331Y-56783796D01*
X146217546Y-56697546D01*
X146224615Y-56688102D01*
X146264228Y-56635189D01*
X146320162Y-56593318D01*
X146363494Y-56585500D01*
X146900500Y-56585500D01*
X146967539Y-56605185D01*
X147013294Y-56657989D01*
X147024500Y-56709499D01*
X147024500Y-56915000D01*
X147024501Y-56915019D01*
X147035000Y-57017796D01*
X147035001Y-57017799D01*
X147090185Y-57184331D01*
X147090186Y-57184334D01*
X147182288Y-57333656D01*
X147306344Y-57457712D01*
X147455666Y-57549814D01*
X147622203Y-57604999D01*
X147724991Y-57615500D01*
X148775008Y-57615499D01*
X148775016Y-57615498D01*
X148775019Y-57615498D01*
X148831302Y-57609748D01*
X148877797Y-57604999D01*
X149044334Y-57549814D01*
X149193656Y-57457712D01*
X149317712Y-57333656D01*
X149409814Y-57184334D01*
X149464999Y-57017797D01*
X149475500Y-56915009D01*
X149475499Y-56314992D01*
X149475367Y-56313704D01*
X149464999Y-56212203D01*
X149464998Y-56212200D01*
X149447701Y-56160002D01*
X149409814Y-56045666D01*
X149317712Y-55896344D01*
X149193656Y-55772288D01*
X149190819Y-55770538D01*
X149189283Y-55768830D01*
X149187989Y-55767807D01*
X149188163Y-55767585D01*
X149144096Y-55718594D01*
X149132872Y-55649632D01*
X149160713Y-55585549D01*
X149190817Y-55559462D01*
X149193656Y-55557712D01*
X149317712Y-55433656D01*
X149409814Y-55284334D01*
X149464999Y-55117797D01*
X149475500Y-55015009D01*
X149475499Y-54414992D01*
X149467102Y-54332795D01*
X149464999Y-54312203D01*
X149464998Y-54312200D01*
X149445797Y-54254255D01*
X149409814Y-54145666D01*
X149317712Y-53996344D01*
X149276164Y-53954796D01*
X149242679Y-53893473D01*
X149247663Y-53823781D01*
X149289535Y-53767848D01*
X149324837Y-53749411D01*
X149444334Y-53709814D01*
X149593656Y-53617712D01*
X149717712Y-53493656D01*
X149809814Y-53344334D01*
X149864999Y-53177797D01*
X149875500Y-53075009D01*
X149875499Y-52224992D01*
X149870397Y-52175051D01*
X149864999Y-52122203D01*
X149864998Y-52122200D01*
X149845601Y-52063664D01*
X149809814Y-51955666D01*
X149717712Y-51806344D01*
X149593656Y-51682288D01*
X149500888Y-51625069D01*
X149444336Y-51590187D01*
X149444331Y-51590185D01*
X149442862Y-51589698D01*
X149277797Y-51535001D01*
X149277795Y-51535000D01*
X149175010Y-51524500D01*
X147824998Y-51524500D01*
X147824981Y-51524501D01*
X147722203Y-51535000D01*
X147722200Y-51535001D01*
X147555668Y-51590185D01*
X147555663Y-51590187D01*
X147406342Y-51682289D01*
X147282289Y-51806342D01*
X147190187Y-51955663D01*
X147190185Y-51955668D01*
X147167024Y-52025563D01*
X147135001Y-52122203D01*
X147135001Y-52122204D01*
X147135000Y-52122204D01*
X147124500Y-52224983D01*
X147124500Y-52968480D01*
X147104815Y-53035519D01*
X147088181Y-53056161D01*
X145251160Y-54893181D01*
X145189837Y-54926666D01*
X145163479Y-54929500D01*
X144592129Y-54929500D01*
X144592123Y-54929501D01*
X144532516Y-54935908D01*
X144397671Y-54986202D01*
X144397664Y-54986206D01*
X144282457Y-55072451D01*
X144282448Y-55072460D01*
X144235772Y-55134811D01*
X144179838Y-55176682D01*
X144136506Y-55184500D01*
X143843018Y-55184500D01*
X143775979Y-55164815D01*
X143730224Y-55112011D01*
X143720280Y-55042853D01*
X143749305Y-54979297D01*
X143755337Y-54972819D01*
X145121338Y-53606818D01*
X145182661Y-53573333D01*
X145209019Y-53570499D01*
X145907871Y-53570499D01*
X145907872Y-53570499D01*
X145967483Y-53564091D01*
X146102331Y-53513796D01*
X146217546Y-53427546D01*
X146303796Y-53312331D01*
X146354091Y-53177483D01*
X146360500Y-53117873D01*
X146360499Y-52112128D01*
X146354091Y-52052517D01*
X146336368Y-52005000D01*
X146303797Y-51917671D01*
X146303793Y-51917664D01*
X146217547Y-51802455D01*
X146217544Y-51802452D01*
X146102335Y-51716206D01*
X146102328Y-51716202D01*
X145967482Y-51665908D01*
X145967483Y-51665908D01*
X145907883Y-51659501D01*
X145907881Y-51659500D01*
X145907873Y-51659500D01*
X145907864Y-51659500D01*
X144592129Y-51659500D01*
X144592123Y-51659501D01*
X144532516Y-51665908D01*
X144397671Y-51716202D01*
X144397664Y-51716206D01*
X144282455Y-51802452D01*
X144282452Y-51802455D01*
X144196206Y-51917664D01*
X144196202Y-51917671D01*
X144145908Y-52052517D01*
X144139977Y-52107691D01*
X144139501Y-52112123D01*
X144139500Y-52112135D01*
X144139500Y-52555980D01*
X144119815Y-52623019D01*
X144103181Y-52643661D01*
X142025180Y-54721661D01*
X141963857Y-54755146D01*
X141894165Y-54750162D01*
X141849818Y-54721661D01*
X141136818Y-54008661D01*
X141103333Y-53947338D01*
X141100499Y-53920980D01*
X141100499Y-53249998D01*
X141100498Y-53249981D01*
X141089999Y-53147203D01*
X141080277Y-53117864D01*
X141039043Y-52993430D01*
X141036642Y-52923605D01*
X141072373Y-52863563D01*
X141134894Y-52832370D01*
X141204353Y-52839930D01*
X141231061Y-52855162D01*
X141282669Y-52893796D01*
X141282671Y-52893797D01*
X141417517Y-52944091D01*
X141417516Y-52944091D01*
X141424444Y-52944835D01*
X141477127Y-52950500D01*
X143272872Y-52950499D01*
X143332483Y-52944091D01*
X143467331Y-52893796D01*
X143582546Y-52807546D01*
X143668796Y-52692331D01*
X143719091Y-52557483D01*
X143725500Y-52497873D01*
X143725499Y-50702128D01*
X143719091Y-50642517D01*
X143718362Y-50640563D01*
X143668797Y-50507671D01*
X143668793Y-50507664D01*
X143582547Y-50392455D01*
X143582544Y-50392452D01*
X143467335Y-50306206D01*
X143467328Y-50306202D01*
X143383633Y-50274986D01*
X147125001Y-50274986D01*
X147135494Y-50377697D01*
X147190641Y-50544119D01*
X147190643Y-50544124D01*
X147282684Y-50693345D01*
X147406654Y-50817315D01*
X147555875Y-50909356D01*
X147555880Y-50909358D01*
X147722302Y-50964505D01*
X147722309Y-50964506D01*
X147825019Y-50974999D01*
X148249999Y-50974999D01*
X148750000Y-50974999D01*
X149174972Y-50974999D01*
X149174986Y-50974998D01*
X149277697Y-50964505D01*
X149444119Y-50909358D01*
X149444124Y-50909356D01*
X149593345Y-50817315D01*
X149717315Y-50693345D01*
X149809356Y-50544124D01*
X149809358Y-50544119D01*
X149864505Y-50377697D01*
X149864506Y-50377690D01*
X149874999Y-50274986D01*
X149875000Y-50274973D01*
X149875000Y-50100000D01*
X148750000Y-50100000D01*
X148750000Y-50974999D01*
X148249999Y-50974999D01*
X148250000Y-50974998D01*
X148250000Y-50100000D01*
X147125001Y-50100000D01*
X147125001Y-50274986D01*
X143383633Y-50274986D01*
X143332482Y-50255908D01*
X143332483Y-50255908D01*
X143272883Y-50249501D01*
X143272881Y-50249500D01*
X143272873Y-50249500D01*
X143272864Y-50249500D01*
X141477129Y-50249500D01*
X141477123Y-50249501D01*
X141417516Y-50255908D01*
X141282671Y-50306202D01*
X141282664Y-50306206D01*
X141167455Y-50392452D01*
X141167452Y-50392455D01*
X141081206Y-50507664D01*
X141081203Y-50507669D01*
X141032189Y-50639083D01*
X140990317Y-50695016D01*
X140924853Y-50719433D01*
X140856580Y-50704581D01*
X140828326Y-50683430D01*
X140706402Y-50561506D01*
X140706395Y-50561501D01*
X140512834Y-50425967D01*
X140512830Y-50425965D01*
X140512828Y-50425964D01*
X140298663Y-50326097D01*
X140298659Y-50326096D01*
X140298655Y-50326094D01*
X140070413Y-50264938D01*
X140070403Y-50264936D01*
X139835001Y-50244341D01*
X139834999Y-50244341D01*
X139599596Y-50264936D01*
X139599586Y-50264938D01*
X139371344Y-50326094D01*
X139371335Y-50326098D01*
X139157171Y-50425964D01*
X139157169Y-50425965D01*
X138963597Y-50561505D01*
X138796505Y-50728597D01*
X138660965Y-50922169D01*
X138660964Y-50922171D01*
X138561098Y-51136335D01*
X138561094Y-51136344D01*
X138499938Y-51364586D01*
X138499936Y-51364596D01*
X138479341Y-51599999D01*
X138479341Y-51600000D01*
X138499936Y-51835403D01*
X138499938Y-51835413D01*
X138561094Y-52063655D01*
X138561096Y-52063659D01*
X138561097Y-52063663D01*
X138589594Y-52124775D01*
X138660965Y-52277830D01*
X138660967Y-52277834D01*
X138751384Y-52406963D01*
X138773711Y-52473169D01*
X138756701Y-52540936D01*
X138705753Y-52588749D01*
X138637043Y-52601427D01*
X138610810Y-52595793D01*
X138502797Y-52560001D01*
X138502795Y-52560000D01*
X138400010Y-52549500D01*
X137599998Y-52549500D01*
X137599980Y-52549501D01*
X137497203Y-52560000D01*
X137497200Y-52560001D01*
X137330668Y-52615185D01*
X137330663Y-52615187D01*
X137181342Y-52707289D01*
X137057289Y-52831342D01*
X136965187Y-52980663D01*
X136965185Y-52980668D01*
X136960292Y-52995434D01*
X136910001Y-53147203D01*
X136910001Y-53147204D01*
X136910000Y-53147204D01*
X136899500Y-53249983D01*
X136899500Y-54250001D01*
X136899501Y-54250019D01*
X136910000Y-54352796D01*
X136910001Y-54352799D01*
X136961993Y-54509697D01*
X136965186Y-54519334D01*
X137057288Y-54668656D01*
X137181344Y-54792712D01*
X137240596Y-54829258D01*
X137287321Y-54881204D01*
X137299500Y-54934797D01*
X137299500Y-55321557D01*
X137294577Y-55356150D01*
X137277236Y-55415841D01*
X137277234Y-55415849D01*
X137274500Y-55450589D01*
X137274500Y-55949393D01*
X137274501Y-55949405D01*
X137277234Y-55984152D01*
X137277234Y-55984155D01*
X137277235Y-55984156D01*
X137320445Y-56132887D01*
X137320446Y-56132888D01*
X137399282Y-56266194D01*
X137399289Y-56266203D01*
X137508796Y-56375710D01*
X137508805Y-56375717D01*
X137523680Y-56384514D01*
X137642113Y-56454555D01*
X137790844Y-56497765D01*
X137825595Y-56500500D01*
X138174404Y-56500499D01*
X138209156Y-56497765D01*
X138357887Y-56454555D01*
X138491198Y-56375715D01*
X138600715Y-56266198D01*
X138679555Y-56132887D01*
X138722765Y-55984156D01*
X138725500Y-55949405D01*
X138725499Y-55450596D01*
X138722765Y-55415844D01*
X138705423Y-55356150D01*
X138700500Y-55321557D01*
X138700500Y-54934797D01*
X138720185Y-54867758D01*
X138759403Y-54829258D01*
X138818656Y-54792712D01*
X138912319Y-54699049D01*
X138973642Y-54665564D01*
X139043334Y-54670548D01*
X139087681Y-54699049D01*
X139181344Y-54792712D01*
X139330666Y-54884814D01*
X139497203Y-54939999D01*
X139599991Y-54950500D01*
X140045980Y-54950499D01*
X140113019Y-54970183D01*
X140133661Y-54986818D01*
X140663181Y-55516338D01*
X140696666Y-55577661D01*
X140699500Y-55604019D01*
X140699500Y-55825500D01*
X140679815Y-55892539D01*
X140627011Y-55938294D01*
X140575500Y-55949500D01*
X139409298Y-55949500D01*
X139372432Y-55952401D01*
X139372426Y-55952402D01*
X139214606Y-55998254D01*
X139214603Y-55998255D01*
X139073137Y-56081917D01*
X139073129Y-56081923D01*
X138956923Y-56198129D01*
X138956917Y-56198137D01*
X138873255Y-56339603D01*
X138873254Y-56339606D01*
X138827402Y-56497426D01*
X138827401Y-56497432D01*
X138824500Y-56534298D01*
X138824500Y-56945979D01*
X138804815Y-57013018D01*
X138788183Y-57033659D01*
X138758663Y-57063180D01*
X138697340Y-57096666D01*
X138670980Y-57099500D01*
X138483211Y-57099500D01*
X138420090Y-57082232D01*
X138387875Y-57063180D01*
X138357887Y-57045445D01*
X138209156Y-57002235D01*
X138209153Y-57002234D01*
X138209151Y-57002234D01*
X138178395Y-56999814D01*
X138174405Y-56999500D01*
X138174404Y-56999500D01*
X137825606Y-56999500D01*
X137825584Y-56999501D01*
X137790847Y-57002234D01*
X137790844Y-57002235D01*
X137642113Y-57045445D01*
X137642111Y-57045445D01*
X137642111Y-57045446D01*
X137508805Y-57124282D01*
X137508796Y-57124289D01*
X137399289Y-57233796D01*
X137399282Y-57233805D01*
X137320446Y-57367111D01*
X137320445Y-57367113D01*
X137300147Y-57436979D01*
X137277234Y-57515847D01*
X137277234Y-57515849D01*
X137274500Y-57550589D01*
X137274500Y-58049393D01*
X137274501Y-58049415D01*
X137277235Y-58084157D01*
X137294576Y-58143844D01*
X137299500Y-58178439D01*
X137299500Y-58786267D01*
X137279815Y-58853306D01*
X137227011Y-58899061D01*
X137214508Y-58903971D01*
X137200745Y-58908532D01*
X137180662Y-58915187D01*
X137031348Y-59007286D01*
X137031344Y-59007289D01*
X136907289Y-59131344D01*
X136907286Y-59131348D01*
X136815187Y-59280662D01*
X136815186Y-59280664D01*
X136760001Y-59447203D01*
X136760000Y-59447204D01*
X136749500Y-59549984D01*
X128723222Y-59549984D01*
X128670853Y-59447204D01*
X128669524Y-59444595D01*
X128553828Y-59285354D01*
X128414646Y-59146172D01*
X128351634Y-59100391D01*
X128308970Y-59045062D01*
X128302991Y-58975448D01*
X128335597Y-58913653D01*
X128336766Y-58912467D01*
X128936846Y-58312387D01*
X129710500Y-58312387D01*
X129710500Y-58487612D01*
X129744681Y-58659450D01*
X129744684Y-58659462D01*
X129811731Y-58821329D01*
X129811738Y-58821342D01*
X129909079Y-58967022D01*
X129909082Y-58967026D01*
X130032973Y-59090917D01*
X130032977Y-59090920D01*
X130178657Y-59188261D01*
X130178670Y-59188268D01*
X130340537Y-59255315D01*
X130340542Y-59255317D01*
X130491534Y-59285351D01*
X130512387Y-59289499D01*
X130512391Y-59289500D01*
X130512392Y-59289500D01*
X130687609Y-59289500D01*
X130687610Y-59289499D01*
X130859458Y-59255317D01*
X131021336Y-59188265D01*
X131167023Y-59090920D01*
X131290920Y-58967023D01*
X131388265Y-58821336D01*
X131455317Y-58659458D01*
X131489500Y-58487608D01*
X131489500Y-58312392D01*
X131489499Y-58312387D01*
X134110500Y-58312387D01*
X134110500Y-58487612D01*
X134144681Y-58659450D01*
X134144684Y-58659462D01*
X134211731Y-58821329D01*
X134211738Y-58821342D01*
X134309079Y-58967022D01*
X134309082Y-58967026D01*
X134432973Y-59090917D01*
X134432977Y-59090920D01*
X134578657Y-59188261D01*
X134578670Y-59188268D01*
X134740537Y-59255315D01*
X134740542Y-59255317D01*
X134891534Y-59285351D01*
X134912387Y-59289499D01*
X134912391Y-59289500D01*
X134912392Y-59289500D01*
X135087609Y-59289500D01*
X135087610Y-59289499D01*
X135259458Y-59255317D01*
X135421336Y-59188265D01*
X135567023Y-59090920D01*
X135690920Y-58967023D01*
X135788265Y-58821336D01*
X135855317Y-58659458D01*
X135889500Y-58487608D01*
X135889500Y-58312392D01*
X135855317Y-58140542D01*
X135817571Y-58049415D01*
X135788268Y-57978670D01*
X135788261Y-57978657D01*
X135690920Y-57832977D01*
X135690917Y-57832973D01*
X135567026Y-57709082D01*
X135567022Y-57709079D01*
X135421342Y-57611738D01*
X135421329Y-57611731D01*
X135259462Y-57544684D01*
X135259450Y-57544681D01*
X135087612Y-57510500D01*
X135087608Y-57510500D01*
X134912392Y-57510500D01*
X134912387Y-57510500D01*
X134740549Y-57544681D01*
X134740537Y-57544684D01*
X134578670Y-57611731D01*
X134578657Y-57611738D01*
X134432977Y-57709079D01*
X134432973Y-57709082D01*
X134309082Y-57832973D01*
X134309079Y-57832977D01*
X134211738Y-57978657D01*
X134211731Y-57978670D01*
X134144684Y-58140537D01*
X134144681Y-58140549D01*
X134110500Y-58312387D01*
X131489499Y-58312387D01*
X131455317Y-58140542D01*
X131417571Y-58049415D01*
X131388268Y-57978670D01*
X131388261Y-57978657D01*
X131290920Y-57832977D01*
X131290917Y-57832973D01*
X131167026Y-57709082D01*
X131167022Y-57709079D01*
X131021342Y-57611738D01*
X131021329Y-57611731D01*
X130859462Y-57544684D01*
X130859450Y-57544681D01*
X130687612Y-57510500D01*
X130687608Y-57510500D01*
X130512392Y-57510500D01*
X130512387Y-57510500D01*
X130340549Y-57544681D01*
X130340537Y-57544684D01*
X130178670Y-57611731D01*
X130178657Y-57611738D01*
X130032977Y-57709079D01*
X130032973Y-57709082D01*
X129909082Y-57832973D01*
X129909079Y-57832977D01*
X129811738Y-57978657D01*
X129811731Y-57978670D01*
X129744684Y-58140537D01*
X129744681Y-58140549D01*
X129710500Y-58312387D01*
X128936846Y-58312387D01*
X132343535Y-54905698D01*
X132404856Y-54872215D01*
X132417311Y-54870163D01*
X132504255Y-54860368D01*
X132674522Y-54800789D01*
X132827262Y-54704816D01*
X132954816Y-54577262D01*
X133050789Y-54424522D01*
X133110368Y-54254255D01*
X133110369Y-54254249D01*
X133130565Y-54075003D01*
X133130565Y-54074996D01*
X133110369Y-53895750D01*
X133110368Y-53895745D01*
X133050788Y-53725476D01*
X132983074Y-53617710D01*
X132954816Y-53572738D01*
X132827262Y-53445184D01*
X132772163Y-53410563D01*
X132674523Y-53349211D01*
X132504254Y-53289631D01*
X132504249Y-53289630D01*
X132325004Y-53269435D01*
X132324996Y-53269435D01*
X132145750Y-53289630D01*
X132145745Y-53289631D01*
X131975476Y-53349211D01*
X131822737Y-53445184D01*
X131695184Y-53572737D01*
X131599210Y-53725478D01*
X131539630Y-53895750D01*
X131529837Y-53982668D01*
X131502770Y-54047082D01*
X131494298Y-54056465D01*
X127231286Y-58319478D01*
X127119481Y-58431282D01*
X127119479Y-58431285D01*
X127107667Y-58451744D01*
X127079519Y-58500500D01*
X127069361Y-58518094D01*
X127069359Y-58518096D01*
X127040425Y-58568209D01*
X127040424Y-58568210D01*
X127040423Y-58568215D01*
X126999499Y-58720943D01*
X126999499Y-58720945D01*
X126999499Y-58889046D01*
X126999500Y-58889059D01*
X126999500Y-58927403D01*
X126979815Y-58994442D01*
X126948386Y-59027721D01*
X126785352Y-59146173D01*
X126646174Y-59285351D01*
X126646174Y-59285352D01*
X126646172Y-59285354D01*
X126643160Y-59289500D01*
X126530476Y-59444594D01*
X126441117Y-59619970D01*
X126380290Y-59807173D01*
X126349500Y-60001577D01*
X125850500Y-60001577D01*
X125850500Y-59549992D01*
X125839999Y-59447203D01*
X125784814Y-59280666D01*
X125769178Y-59255317D01*
X125692713Y-59131348D01*
X125692710Y-59131344D01*
X125568655Y-59007289D01*
X125568651Y-59007286D01*
X125419337Y-58915187D01*
X125419334Y-58915186D01*
X125285496Y-58870836D01*
X125228051Y-58831063D01*
X125201228Y-58766547D01*
X125200500Y-58753130D01*
X125200500Y-56363984D01*
X125200501Y-56363971D01*
X125200501Y-56195870D01*
X125200501Y-56195868D01*
X125159577Y-56043140D01*
X125108108Y-55953994D01*
X125107188Y-55952401D01*
X125080522Y-55906212D01*
X125080521Y-55906211D01*
X125080520Y-55906209D01*
X124968716Y-55794405D01*
X124968715Y-55794404D01*
X124964385Y-55790074D01*
X124964374Y-55790064D01*
X121266990Y-52092680D01*
X121233505Y-52031357D01*
X121238489Y-51961665D01*
X121266986Y-51917323D01*
X123759295Y-49425013D01*
X147125000Y-49425013D01*
X147125000Y-49600000D01*
X148250000Y-49600000D01*
X148750000Y-49600000D01*
X149874999Y-49600000D01*
X149874999Y-49425028D01*
X149874998Y-49425013D01*
X149864505Y-49322302D01*
X149809358Y-49155880D01*
X149809356Y-49155875D01*
X149717315Y-49006654D01*
X149593345Y-48882684D01*
X149444124Y-48790643D01*
X149444119Y-48790641D01*
X149277697Y-48735494D01*
X149277690Y-48735493D01*
X149174986Y-48725000D01*
X148750000Y-48725000D01*
X148750000Y-49600000D01*
X148250000Y-49600000D01*
X148250000Y-48725000D01*
X147825028Y-48725000D01*
X147825012Y-48725001D01*
X147722302Y-48735494D01*
X147555880Y-48790641D01*
X147555875Y-48790643D01*
X147406654Y-48882684D01*
X147282684Y-49006654D01*
X147190643Y-49155875D01*
X147190641Y-49155880D01*
X147135494Y-49322302D01*
X147135493Y-49322309D01*
X147125000Y-49425013D01*
X123759295Y-49425013D01*
X125815828Y-47368480D01*
X125877149Y-47334997D01*
X125946841Y-47339981D01*
X126002774Y-47381853D01*
X126005070Y-47385023D01*
X126118402Y-47546877D01*
X126273123Y-47701598D01*
X126452361Y-47827102D01*
X126650670Y-47919575D01*
X126862023Y-47976207D01*
X127044926Y-47992208D01*
X127079998Y-47995277D01*
X127080000Y-47995277D01*
X127080002Y-47995277D01*
X127108254Y-47992805D01*
X127297977Y-47976207D01*
X127509330Y-47919575D01*
X127707639Y-47827102D01*
X127886877Y-47701598D01*
X128041598Y-47546877D01*
X128167102Y-47367639D01*
X128259575Y-47169330D01*
X128316207Y-46957977D01*
X128334204Y-46752262D01*
X128335277Y-46740002D01*
X128335277Y-46739997D01*
X128329403Y-46672857D01*
X128316207Y-46522023D01*
X128280367Y-46388265D01*
X128259577Y-46310677D01*
X128259576Y-46310676D01*
X128259575Y-46310670D01*
X128203312Y-46190014D01*
X128830000Y-46190014D01*
X128830000Y-46490000D01*
X129635440Y-46490000D01*
X129604755Y-46543147D01*
X129570000Y-46672857D01*
X129570000Y-46807143D01*
X129604755Y-46936853D01*
X129635440Y-46990000D01*
X128830000Y-46990000D01*
X128830000Y-47289985D01*
X128840493Y-47392689D01*
X128840494Y-47392696D01*
X128895641Y-47559118D01*
X128895643Y-47559123D01*
X128987684Y-47708344D01*
X129111655Y-47832315D01*
X129260876Y-47924356D01*
X129260881Y-47924358D01*
X129427303Y-47979505D01*
X129427310Y-47979506D01*
X129530014Y-47989999D01*
X129530027Y-47990000D01*
X129830000Y-47990000D01*
X129830000Y-47184560D01*
X129883147Y-47215245D01*
X130012857Y-47250000D01*
X130147143Y-47250000D01*
X130276853Y-47215245D01*
X130330000Y-47184560D01*
X130330000Y-47990000D01*
X130629973Y-47990000D01*
X130629985Y-47989999D01*
X130732689Y-47979506D01*
X130732696Y-47979505D01*
X130899118Y-47924358D01*
X130899123Y-47924356D01*
X131048344Y-47832315D01*
X131172315Y-47708344D01*
X131264356Y-47559123D01*
X131264358Y-47559118D01*
X131319505Y-47392696D01*
X131319506Y-47392689D01*
X131329999Y-47289985D01*
X131330000Y-47289972D01*
X131330000Y-46990000D01*
X130524560Y-46990000D01*
X130555245Y-46936853D01*
X130590000Y-46807143D01*
X130590000Y-46672857D01*
X130555245Y-46543147D01*
X130524560Y-46490000D01*
X131330000Y-46490000D01*
X131330000Y-46190027D01*
X131329999Y-46190014D01*
X131319506Y-46087310D01*
X131319505Y-46087303D01*
X131264358Y-45920881D01*
X131264356Y-45920876D01*
X131172315Y-45771655D01*
X131048344Y-45647684D01*
X130899123Y-45555643D01*
X130899118Y-45555641D01*
X130768587Y-45512387D01*
X135710500Y-45512387D01*
X135710500Y-45687612D01*
X135744681Y-45859450D01*
X135744684Y-45859462D01*
X135811731Y-46021329D01*
X135811738Y-46021342D01*
X135909079Y-46167022D01*
X135909082Y-46167026D01*
X136032973Y-46290917D01*
X136032977Y-46290920D01*
X136178657Y-46388261D01*
X136178670Y-46388268D01*
X136340537Y-46455315D01*
X136340542Y-46455317D01*
X136512387Y-46489499D01*
X136512391Y-46489500D01*
X136512392Y-46489500D01*
X136687609Y-46489500D01*
X136687610Y-46489499D01*
X136859458Y-46455317D01*
X137021336Y-46388265D01*
X137167023Y-46290920D01*
X137290920Y-46167023D01*
X137388265Y-46021336D01*
X137455317Y-45859458D01*
X137489500Y-45687608D01*
X137489500Y-45512392D01*
X137455317Y-45340542D01*
X137417836Y-45250055D01*
X137388268Y-45178670D01*
X137388261Y-45178657D01*
X137290920Y-45032977D01*
X137290917Y-45032973D01*
X137167026Y-44909082D01*
X137167022Y-44909079D01*
X137021342Y-44811738D01*
X137021329Y-44811731D01*
X136859462Y-44744684D01*
X136859450Y-44744681D01*
X136687612Y-44710500D01*
X136687608Y-44710500D01*
X136512392Y-44710500D01*
X136512387Y-44710500D01*
X136340549Y-44744681D01*
X136340537Y-44744684D01*
X136178670Y-44811731D01*
X136178657Y-44811738D01*
X136032977Y-44909079D01*
X136032973Y-44909082D01*
X135909082Y-45032973D01*
X135909079Y-45032977D01*
X135811738Y-45178657D01*
X135811731Y-45178670D01*
X135744684Y-45340537D01*
X135744681Y-45340549D01*
X135710500Y-45512387D01*
X130768587Y-45512387D01*
X130732696Y-45500494D01*
X130732689Y-45500493D01*
X130629985Y-45490000D01*
X130330000Y-45490000D01*
X130330000Y-46295439D01*
X130276853Y-46264755D01*
X130147143Y-46230000D01*
X130012857Y-46230000D01*
X129883147Y-46264755D01*
X129830000Y-46295439D01*
X129830000Y-45490000D01*
X129530014Y-45490000D01*
X129427310Y-45500493D01*
X129427303Y-45500494D01*
X129260881Y-45555641D01*
X129260876Y-45555643D01*
X129111655Y-45647684D01*
X128987684Y-45771655D01*
X128895643Y-45920876D01*
X128895641Y-45920881D01*
X128840494Y-46087303D01*
X128840493Y-46087310D01*
X128830000Y-46190014D01*
X128203312Y-46190014D01*
X128167102Y-46112362D01*
X128167100Y-46112359D01*
X128167099Y-46112357D01*
X128041599Y-45933124D01*
X127967925Y-45859450D01*
X127886877Y-45778402D01*
X127725038Y-45665081D01*
X127681414Y-45610504D01*
X127674222Y-45541006D01*
X127705744Y-45478651D01*
X127708447Y-45475861D01*
X128807491Y-44376819D01*
X128868814Y-44343334D01*
X128895172Y-44340500D01*
X128909345Y-44340500D01*
X128976384Y-44360185D01*
X129010917Y-44393373D01*
X129118402Y-44546877D01*
X129273123Y-44701598D01*
X129452361Y-44827102D01*
X129650670Y-44919575D01*
X129862023Y-44976207D01*
X130044926Y-44992208D01*
X130079998Y-44995277D01*
X130080000Y-44995277D01*
X130080002Y-44995277D01*
X130109330Y-44992711D01*
X130297977Y-44976207D01*
X130509330Y-44919575D01*
X130707639Y-44827102D01*
X130886877Y-44701598D01*
X131041598Y-44546877D01*
X131167102Y-44367639D01*
X131259575Y-44169330D01*
X131316207Y-43957977D01*
X131335277Y-43740000D01*
X131316207Y-43522023D01*
X131259575Y-43310670D01*
X131167102Y-43112362D01*
X131167099Y-43112358D01*
X131167099Y-43112357D01*
X131041599Y-42933124D01*
X130983772Y-42875297D01*
X130886877Y-42778402D01*
X130810180Y-42724698D01*
X132315500Y-42724698D01*
X132315500Y-42875301D01*
X132344877Y-43022988D01*
X132344879Y-43022996D01*
X132402507Y-43162124D01*
X132402512Y-43162133D01*
X132486173Y-43287339D01*
X132486176Y-43287343D01*
X132592656Y-43393823D01*
X132592660Y-43393826D01*
X132717866Y-43477487D01*
X132717872Y-43477490D01*
X132717873Y-43477491D01*
X132857004Y-43535121D01*
X133004698Y-43564499D01*
X133004702Y-43564500D01*
X133004703Y-43564500D01*
X133155298Y-43564500D01*
X133155299Y-43564499D01*
X133302996Y-43535121D01*
X133442127Y-43477491D01*
X133567340Y-43393826D01*
X133673826Y-43287340D01*
X133677677Y-43281577D01*
X138349500Y-43281577D01*
X138349500Y-43998422D01*
X138380290Y-44192826D01*
X138441117Y-44380029D01*
X138476777Y-44450015D01*
X138530476Y-44555405D01*
X138646172Y-44714646D01*
X138785354Y-44853828D01*
X138848388Y-44899624D01*
X138891051Y-44954951D01*
X138899500Y-44999940D01*
X138899500Y-45667587D01*
X138879815Y-45734626D01*
X138872450Y-45744896D01*
X138870186Y-45747734D01*
X138774211Y-45900476D01*
X138714631Y-46070745D01*
X138714630Y-46070750D01*
X138694435Y-46249996D01*
X138694435Y-46250003D01*
X138714630Y-46429249D01*
X138714631Y-46429254D01*
X138774211Y-46599523D01*
X138868763Y-46750001D01*
X138870184Y-46752262D01*
X138997738Y-46879816D01*
X139041337Y-46907211D01*
X139122133Y-46957979D01*
X139150478Y-46975789D01*
X139274928Y-47019336D01*
X139320745Y-47035368D01*
X139320750Y-47035369D01*
X139499996Y-47055565D01*
X139500000Y-47055565D01*
X139500004Y-47055565D01*
X139679249Y-47035369D01*
X139679252Y-47035368D01*
X139679255Y-47035368D01*
X139849522Y-46975789D01*
X140002262Y-46879816D01*
X140129816Y-46752262D01*
X140225789Y-46599522D01*
X140285368Y-46429255D01*
X140289986Y-46388268D01*
X140305565Y-46250003D01*
X140305565Y-46249996D01*
X140285369Y-46070750D01*
X140285368Y-46070745D01*
X140268591Y-46022799D01*
X140225789Y-45900478D01*
X140131227Y-45749983D01*
X140737000Y-45749983D01*
X140737000Y-46750001D01*
X140737001Y-46750019D01*
X140747500Y-46852796D01*
X140747501Y-46852799D01*
X140792966Y-46990000D01*
X140802686Y-47019334D01*
X140894788Y-47168656D01*
X141018844Y-47292712D01*
X141168166Y-47384814D01*
X141334703Y-47439999D01*
X141437491Y-47450500D01*
X142062508Y-47450499D01*
X142062516Y-47450498D01*
X142062519Y-47450498D01*
X142118802Y-47444748D01*
X142165297Y-47439999D01*
X142331834Y-47384814D01*
X142481156Y-47292712D01*
X142574819Y-47199049D01*
X142636142Y-47165564D01*
X142705834Y-47170548D01*
X142750181Y-47199049D01*
X142843844Y-47292712D01*
X142993166Y-47384814D01*
X143159703Y-47439999D01*
X143262491Y-47450500D01*
X143887508Y-47450499D01*
X143887516Y-47450498D01*
X143887519Y-47450498D01*
X143943802Y-47444748D01*
X143990297Y-47439999D01*
X144156834Y-47384814D01*
X144306156Y-47292712D01*
X144430212Y-47168656D01*
X144522314Y-47019334D01*
X144577499Y-46852797D01*
X144588000Y-46750009D01*
X144587999Y-46095264D01*
X144607683Y-46028227D01*
X144660487Y-45982472D01*
X144729646Y-45972528D01*
X144793202Y-46001553D01*
X144815101Y-46026375D01*
X144909079Y-46167022D01*
X144909082Y-46167026D01*
X145032973Y-46290917D01*
X145032977Y-46290920D01*
X145178657Y-46388261D01*
X145178670Y-46388268D01*
X145340537Y-46455315D01*
X145340542Y-46455317D01*
X145512387Y-46489499D01*
X145512391Y-46489500D01*
X145512392Y-46489500D01*
X145687609Y-46489500D01*
X145687610Y-46489499D01*
X145859458Y-46455317D01*
X146021336Y-46388265D01*
X146167023Y-46290920D01*
X146290920Y-46167023D01*
X146388265Y-46021336D01*
X146455317Y-45859458D01*
X146489500Y-45687608D01*
X146489500Y-45512392D01*
X146455317Y-45340542D01*
X146417836Y-45250055D01*
X146388268Y-45178670D01*
X146388261Y-45178657D01*
X146290920Y-45032977D01*
X146290917Y-45032973D01*
X146167026Y-44909082D01*
X146167022Y-44909079D01*
X146021342Y-44811738D01*
X146021329Y-44811731D01*
X145859462Y-44744684D01*
X145859450Y-44744681D01*
X145687612Y-44710500D01*
X145687608Y-44710500D01*
X145512392Y-44710500D01*
X145512387Y-44710500D01*
X145340549Y-44744681D01*
X145340537Y-44744684D01*
X145178670Y-44811731D01*
X145178657Y-44811738D01*
X145032977Y-44909079D01*
X145032973Y-44909082D01*
X144909082Y-45032973D01*
X144909079Y-45032977D01*
X144811738Y-45178657D01*
X144811731Y-45178670D01*
X144744684Y-45340537D01*
X144744681Y-45340547D01*
X144730926Y-45409698D01*
X144698541Y-45471609D01*
X144637824Y-45506183D01*
X144568055Y-45502442D01*
X144511383Y-45461576D01*
X144503770Y-45450602D01*
X144430212Y-45331344D01*
X144306157Y-45207289D01*
X144306156Y-45207288D01*
X144156834Y-45115186D01*
X143990297Y-45060001D01*
X143990295Y-45060000D01*
X143887516Y-45049500D01*
X143887509Y-45049500D01*
X143803339Y-45049500D01*
X143736300Y-45029815D01*
X143690545Y-44977011D01*
X143680601Y-44907853D01*
X143697800Y-44860404D01*
X143784814Y-44719334D01*
X143839999Y-44552797D01*
X143850500Y-44450008D01*
X143850500Y-42829992D01*
X143839999Y-42727203D01*
X143784814Y-42560666D01*
X143784665Y-42560425D01*
X143692713Y-42411348D01*
X143692710Y-42411344D01*
X143568655Y-42287289D01*
X143568651Y-42287286D01*
X143419337Y-42195187D01*
X143419335Y-42195186D01*
X143314025Y-42160290D01*
X143252797Y-42140001D01*
X143252795Y-42140000D01*
X143150015Y-42129500D01*
X143150008Y-42129500D01*
X142049992Y-42129500D01*
X142049984Y-42129500D01*
X141947204Y-42140000D01*
X141947203Y-42140001D01*
X141780664Y-42195186D01*
X141780662Y-42195187D01*
X141631348Y-42287286D01*
X141631344Y-42287289D01*
X141507289Y-42411344D01*
X141507286Y-42411348D01*
X141415187Y-42560662D01*
X141415186Y-42560664D01*
X141360001Y-42727203D01*
X141360000Y-42727204D01*
X141349500Y-42829984D01*
X141349500Y-44450015D01*
X141360000Y-44552795D01*
X141360001Y-44552797D01*
X141387349Y-44635329D01*
X141413632Y-44714646D01*
X141415186Y-44719334D01*
X141430822Y-44744683D01*
X141504245Y-44863720D01*
X141522685Y-44931112D01*
X141501763Y-44997776D01*
X141448121Y-45042546D01*
X141411308Y-45052175D01*
X141334702Y-45060001D01*
X141334700Y-45060001D01*
X141168168Y-45115185D01*
X141168163Y-45115187D01*
X141018842Y-45207289D01*
X140894789Y-45331342D01*
X140802687Y-45480663D01*
X140802685Y-45480668D01*
X140792173Y-45512391D01*
X140747501Y-45647203D01*
X140747501Y-45647204D01*
X140747500Y-45647204D01*
X140737000Y-45749983D01*
X140131227Y-45749983D01*
X140129816Y-45747738D01*
X140129814Y-45747736D01*
X140129813Y-45747734D01*
X140127550Y-45744896D01*
X140126659Y-45742715D01*
X140126111Y-45741842D01*
X140126264Y-45741745D01*
X140101144Y-45680209D01*
X140100500Y-45667587D01*
X140100500Y-45124438D01*
X140120185Y-45057399D01*
X140168204Y-45013954D01*
X140255405Y-44969524D01*
X140414646Y-44853828D01*
X140553828Y-44714646D01*
X140669524Y-44555405D01*
X140758884Y-44380025D01*
X140819709Y-44192826D01*
X140823432Y-44169322D01*
X140850500Y-43998422D01*
X140850500Y-43281577D01*
X140819709Y-43087173D01*
X140769655Y-42933124D01*
X140758884Y-42899975D01*
X140758882Y-42899972D01*
X140758882Y-42899970D01*
X140670853Y-42727204D01*
X140669524Y-42724595D01*
X140553828Y-42565354D01*
X140414646Y-42426172D01*
X140255405Y-42310476D01*
X140209892Y-42287286D01*
X140080029Y-42221117D01*
X139892826Y-42160290D01*
X139698422Y-42129500D01*
X139698417Y-42129500D01*
X139501583Y-42129500D01*
X139501578Y-42129500D01*
X139307173Y-42160290D01*
X139119970Y-42221117D01*
X138944594Y-42310476D01*
X138853741Y-42376485D01*
X138785354Y-42426172D01*
X138785352Y-42426174D01*
X138785351Y-42426174D01*
X138646174Y-42565351D01*
X138646174Y-42565352D01*
X138646172Y-42565354D01*
X138637708Y-42577004D01*
X138530476Y-42724594D01*
X138441117Y-42899970D01*
X138380290Y-43087173D01*
X138349500Y-43281577D01*
X133677677Y-43281577D01*
X133757491Y-43162127D01*
X133815121Y-43022996D01*
X133844500Y-42875297D01*
X133844500Y-42724703D01*
X133815121Y-42577004D01*
X133757491Y-42437873D01*
X133757490Y-42437872D01*
X133757487Y-42437866D01*
X133673826Y-42312660D01*
X133673823Y-42312656D01*
X133567343Y-42206176D01*
X133567339Y-42206173D01*
X133442133Y-42122512D01*
X133442124Y-42122507D01*
X133302996Y-42064879D01*
X133302988Y-42064877D01*
X133155301Y-42035500D01*
X133155297Y-42035500D01*
X133004703Y-42035500D01*
X133004698Y-42035500D01*
X132857011Y-42064877D01*
X132857003Y-42064879D01*
X132717875Y-42122507D01*
X132717866Y-42122512D01*
X132592660Y-42206173D01*
X132592656Y-42206176D01*
X132486176Y-42312656D01*
X132486173Y-42312660D01*
X132402512Y-42437866D01*
X132402507Y-42437875D01*
X132344879Y-42577003D01*
X132344877Y-42577011D01*
X132315500Y-42724698D01*
X130810180Y-42724698D01*
X130707639Y-42652898D01*
X130707640Y-42652898D01*
X130707638Y-42652897D01*
X130608484Y-42606661D01*
X130509330Y-42560425D01*
X130509326Y-42560424D01*
X130509322Y-42560422D01*
X130297977Y-42503793D01*
X130080002Y-42484723D01*
X130079998Y-42484723D01*
X129934682Y-42497436D01*
X129862023Y-42503793D01*
X129862020Y-42503793D01*
X129650677Y-42560422D01*
X129650670Y-42560424D01*
X129650670Y-42560425D01*
X129650153Y-42560666D01*
X129452361Y-42652898D01*
X129452357Y-42652900D01*
X129273121Y-42778402D01*
X129118402Y-42933121D01*
X129010920Y-43086623D01*
X128956343Y-43130248D01*
X128909345Y-43139500D01*
X128674132Y-43139500D01*
X128516018Y-43139500D01*
X128363290Y-43180423D01*
X128363289Y-43180423D01*
X128363287Y-43180424D01*
X128363286Y-43180424D01*
X128350911Y-43187569D01*
X128283011Y-43204039D01*
X128216984Y-43181186D01*
X128176532Y-43132586D01*
X128167102Y-43112362D01*
X128167101Y-43112361D01*
X128167100Y-43112358D01*
X128041599Y-42933124D01*
X127983772Y-42875297D01*
X127886877Y-42778402D01*
X127707639Y-42652898D01*
X127707640Y-42652898D01*
X127707638Y-42652897D01*
X127608484Y-42606661D01*
X127509330Y-42560425D01*
X127509326Y-42560424D01*
X127509322Y-42560422D01*
X127297977Y-42503793D01*
X127080002Y-42484723D01*
X127079998Y-42484723D01*
X126934682Y-42497436D01*
X126862023Y-42503793D01*
X126862020Y-42503793D01*
X126650677Y-42560422D01*
X126650670Y-42560424D01*
X126650670Y-42560425D01*
X126650153Y-42560666D01*
X126452361Y-42652898D01*
X126452357Y-42652900D01*
X126273121Y-42778402D01*
X126118402Y-42933121D01*
X125992900Y-43112357D01*
X125992898Y-43112361D01*
X125900426Y-43310668D01*
X125900422Y-43310677D01*
X125843793Y-43522020D01*
X125843793Y-43522024D01*
X125824723Y-43739997D01*
X125824723Y-43740002D01*
X125843793Y-43957975D01*
X125843793Y-43957979D01*
X125900422Y-44169322D01*
X125900424Y-44169326D01*
X125900425Y-44169330D01*
X125946661Y-44268484D01*
X125992897Y-44367638D01*
X126010919Y-44393376D01*
X126118402Y-44546877D01*
X126273123Y-44701598D01*
X126452361Y-44827102D01*
X126452364Y-44827103D01*
X126452692Y-44827333D01*
X126496317Y-44881910D01*
X126503509Y-44951409D01*
X126471987Y-45013763D01*
X126469249Y-45016589D01*
X125356588Y-46129250D01*
X125295265Y-46162735D01*
X125225573Y-46157751D01*
X125169640Y-46115879D01*
X125167332Y-46112692D01*
X125167104Y-46112366D01*
X125167102Y-46112362D01*
X125041598Y-45933123D01*
X124886877Y-45778402D01*
X124707639Y-45652898D01*
X124707640Y-45652898D01*
X124707638Y-45652897D01*
X124587454Y-45596855D01*
X124509330Y-45560425D01*
X124509326Y-45560424D01*
X124509322Y-45560422D01*
X124297977Y-45503793D01*
X124080002Y-45484723D01*
X124079998Y-45484723D01*
X123934682Y-45497436D01*
X123862023Y-45503793D01*
X123862020Y-45503793D01*
X123650677Y-45560422D01*
X123650668Y-45560426D01*
X123452361Y-45652898D01*
X123452357Y-45652900D01*
X123273121Y-45778402D01*
X123118402Y-45933121D01*
X122992900Y-46112357D01*
X122992898Y-46112361D01*
X122900426Y-46310668D01*
X122900422Y-46310677D01*
X122843793Y-46522020D01*
X122843793Y-46522024D01*
X122824723Y-46739997D01*
X122824723Y-46740002D01*
X122843793Y-46957975D01*
X122843793Y-46957979D01*
X122900422Y-47169322D01*
X122900424Y-47169326D01*
X122900425Y-47169330D01*
X122916379Y-47203543D01*
X122992897Y-47367638D01*
X123010438Y-47392689D01*
X123118402Y-47546877D01*
X123273123Y-47701598D01*
X123452361Y-47827102D01*
X123452364Y-47827103D01*
X123452692Y-47827333D01*
X123496317Y-47881910D01*
X123503509Y-47951409D01*
X123471987Y-48013763D01*
X123469249Y-48016589D01*
X120117659Y-51368181D01*
X120056336Y-51401666D01*
X120029978Y-51404500D01*
X117563934Y-51404500D01*
X117496895Y-51384815D01*
X117462360Y-51351624D01*
X117337933Y-51173926D01*
X117178573Y-51014566D01*
X116993966Y-50885302D01*
X116993963Y-50885300D01*
X116993960Y-50885298D01*
X116993956Y-50885296D01*
X116789711Y-50790055D01*
X116789700Y-50790051D01*
X116683605Y-50761623D01*
X116602063Y-50739774D01*
X116542405Y-50703410D01*
X116511876Y-50640563D01*
X116520171Y-50571187D01*
X116564656Y-50517310D01*
X116602062Y-50500226D01*
X116789705Y-50449947D01*
X116993960Y-50354702D01*
X117178573Y-50225434D01*
X117337934Y-50066073D01*
X117467202Y-49881460D01*
X117562447Y-49677205D01*
X117620778Y-49459513D01*
X117635509Y-49291128D01*
X117640420Y-49235002D01*
X117640420Y-49234997D01*
X117629941Y-49115225D01*
X117620778Y-49010487D01*
X117562447Y-48792795D01*
X117467202Y-48588540D01*
X117337934Y-48403927D01*
X117178573Y-48244566D01*
X116993960Y-48115298D01*
X116993956Y-48115296D01*
X116789711Y-48020055D01*
X116789700Y-48020051D01*
X116677543Y-47989999D01*
X116602063Y-47969774D01*
X116542405Y-47933410D01*
X116511876Y-47870563D01*
X116520171Y-47801187D01*
X116564656Y-47747310D01*
X116602062Y-47730226D01*
X116789705Y-47679947D01*
X116993960Y-47584702D01*
X117178573Y-47455434D01*
X117337934Y-47296073D01*
X117467202Y-47111460D01*
X117562447Y-46907205D01*
X117620778Y-46689513D01*
X117640420Y-46465000D01*
X117620778Y-46240487D01*
X117562447Y-46022795D01*
X117561769Y-46021342D01*
X117486282Y-45859458D01*
X117467202Y-45818540D01*
X117337934Y-45633927D01*
X117178573Y-45474566D01*
X116993960Y-45345298D01*
X116983776Y-45340549D01*
X116789711Y-45250055D01*
X116789700Y-45250051D01*
X116572014Y-45191722D01*
X116572007Y-45191721D01*
X116347502Y-45172080D01*
X116347498Y-45172080D01*
X116122992Y-45191721D01*
X116122985Y-45191722D01*
X115905299Y-45250051D01*
X115905288Y-45250055D01*
X115701043Y-45345296D01*
X115701033Y-45345302D01*
X115516426Y-45474566D01*
X115357066Y-45633926D01*
X115227802Y-45818533D01*
X115227796Y-45818543D01*
X115132555Y-46022788D01*
X115132551Y-46022799D01*
X115074222Y-46240485D01*
X115074221Y-46240492D01*
X115054580Y-46464997D01*
X104550500Y-46464997D01*
X104550500Y-43739997D01*
X122824723Y-43739997D01*
X122824723Y-43740002D01*
X122843793Y-43957975D01*
X122843793Y-43957979D01*
X122900422Y-44169322D01*
X122900424Y-44169326D01*
X122900425Y-44169330D01*
X122946661Y-44268484D01*
X122992897Y-44367638D01*
X123010919Y-44393376D01*
X123118402Y-44546877D01*
X123273123Y-44701598D01*
X123452361Y-44827102D01*
X123650670Y-44919575D01*
X123862023Y-44976207D01*
X124044926Y-44992208D01*
X124079998Y-44995277D01*
X124080000Y-44995277D01*
X124080002Y-44995277D01*
X124109330Y-44992711D01*
X124297977Y-44976207D01*
X124509330Y-44919575D01*
X124707639Y-44827102D01*
X124886877Y-44701598D01*
X125041598Y-44546877D01*
X125167102Y-44367639D01*
X125259575Y-44169330D01*
X125316207Y-43957977D01*
X125335277Y-43740000D01*
X125316207Y-43522023D01*
X125259575Y-43310670D01*
X125167102Y-43112362D01*
X125167099Y-43112358D01*
X125167099Y-43112357D01*
X125041599Y-42933124D01*
X124983772Y-42875297D01*
X124886877Y-42778402D01*
X124707639Y-42652898D01*
X124707640Y-42652898D01*
X124707638Y-42652897D01*
X124608484Y-42606661D01*
X124509330Y-42560425D01*
X124509326Y-42560424D01*
X124509322Y-42560422D01*
X124297977Y-42503793D01*
X124080002Y-42484723D01*
X124079998Y-42484723D01*
X123934682Y-42497436D01*
X123862023Y-42503793D01*
X123862020Y-42503793D01*
X123650677Y-42560422D01*
X123650670Y-42560424D01*
X123650670Y-42560425D01*
X123650153Y-42560666D01*
X123452361Y-42652898D01*
X123452357Y-42652900D01*
X123273121Y-42778402D01*
X123118402Y-42933121D01*
X122992900Y-43112357D01*
X122992898Y-43112361D01*
X122900426Y-43310668D01*
X122900422Y-43310677D01*
X122843793Y-43522020D01*
X122843793Y-43522024D01*
X122824723Y-43739997D01*
X104550500Y-43739997D01*
X104550500Y-42724698D01*
X120315500Y-42724698D01*
X120315500Y-42875301D01*
X120344877Y-43022988D01*
X120344879Y-43022996D01*
X120402507Y-43162124D01*
X120402512Y-43162133D01*
X120486173Y-43287339D01*
X120486176Y-43287343D01*
X120592656Y-43393823D01*
X120592660Y-43393826D01*
X120717866Y-43477487D01*
X120717872Y-43477490D01*
X120717873Y-43477491D01*
X120857004Y-43535121D01*
X121004698Y-43564499D01*
X121004702Y-43564500D01*
X121004703Y-43564500D01*
X121155298Y-43564500D01*
X121155299Y-43564499D01*
X121302996Y-43535121D01*
X121442127Y-43477491D01*
X121567340Y-43393826D01*
X121673826Y-43287340D01*
X121757491Y-43162127D01*
X121815121Y-43022996D01*
X121844500Y-42875297D01*
X121844500Y-42724703D01*
X121815121Y-42577004D01*
X121757491Y-42437873D01*
X121757490Y-42437872D01*
X121757487Y-42437866D01*
X121673826Y-42312660D01*
X121673823Y-42312656D01*
X121567343Y-42206176D01*
X121567339Y-42206173D01*
X121442133Y-42122512D01*
X121442124Y-42122507D01*
X121302996Y-42064879D01*
X121302988Y-42064877D01*
X121155301Y-42035500D01*
X121155297Y-42035500D01*
X121004703Y-42035500D01*
X121004698Y-42035500D01*
X120857011Y-42064877D01*
X120857003Y-42064879D01*
X120717875Y-42122507D01*
X120717866Y-42122512D01*
X120592660Y-42206173D01*
X120592656Y-42206176D01*
X120486176Y-42312656D01*
X120486173Y-42312660D01*
X120402512Y-42437866D01*
X120402507Y-42437875D01*
X120344879Y-42577003D01*
X120344877Y-42577011D01*
X120315500Y-42724698D01*
X104550500Y-42724698D01*
X104550500Y-39509994D01*
X112363941Y-39509994D01*
X112363941Y-39510005D01*
X112384153Y-39831291D01*
X112384155Y-39831299D01*
X112444480Y-40147531D01*
X112444482Y-40147536D01*
X112543963Y-40453710D01*
X112543965Y-40453715D01*
X112681034Y-40745000D01*
X112681037Y-40745006D01*
X112853533Y-41016817D01*
X112853536Y-41016821D01*
X112853537Y-41016822D01*
X113058746Y-41264877D01*
X113293424Y-41485254D01*
X113293434Y-41485262D01*
X113553864Y-41674476D01*
X113553869Y-41674478D01*
X113553876Y-41674484D01*
X113835990Y-41829578D01*
X113835992Y-41829579D01*
X113835995Y-41829580D01*
X114135317Y-41948089D01*
X114447137Y-42028151D01*
X114514141Y-42036615D01*
X114766521Y-42068499D01*
X114766530Y-42068499D01*
X114766533Y-42068500D01*
X114766535Y-42068500D01*
X115088465Y-42068500D01*
X115088467Y-42068500D01*
X115088470Y-42068499D01*
X115088478Y-42068499D01*
X115279062Y-42044422D01*
X115407863Y-42028151D01*
X115719683Y-41948089D01*
X116019010Y-41829578D01*
X116301124Y-41674484D01*
X116561574Y-41485256D01*
X116796254Y-41264877D01*
X117001463Y-41016822D01*
X117173964Y-40745004D01*
X117311037Y-40453709D01*
X117410520Y-40147531D01*
X117470845Y-39831299D01*
X117491059Y-39510000D01*
X117491059Y-39509994D01*
X117470846Y-39188708D01*
X117470845Y-39188701D01*
X117410520Y-38872469D01*
X117311037Y-38566291D01*
X117173964Y-38274996D01*
X117108631Y-38172047D01*
X117001466Y-38003182D01*
X117001463Y-38003178D01*
X116796254Y-37755123D01*
X116561574Y-37534744D01*
X116561571Y-37534742D01*
X116561565Y-37534737D01*
X116301135Y-37345523D01*
X116301128Y-37345518D01*
X116301124Y-37345516D01*
X116069367Y-37218106D01*
X116019007Y-37190420D01*
X116019001Y-37190418D01*
X115719687Y-37071912D01*
X115689988Y-37064286D01*
X115407863Y-36991849D01*
X115407860Y-36991848D01*
X115407853Y-36991847D01*
X115088478Y-36951500D01*
X115088467Y-36951500D01*
X114766533Y-36951500D01*
X114766521Y-36951500D01*
X114447146Y-36991847D01*
X114447137Y-36991849D01*
X114135312Y-37071912D01*
X113835998Y-37190418D01*
X113835992Y-37190420D01*
X113553876Y-37345516D01*
X113553864Y-37345523D01*
X113293434Y-37534737D01*
X113293424Y-37534745D01*
X113058748Y-37755121D01*
X112853533Y-38003182D01*
X112681037Y-38274993D01*
X112681034Y-38274999D01*
X112543965Y-38566284D01*
X112543963Y-38566289D01*
X112451653Y-38850390D01*
X112444480Y-38872469D01*
X112410532Y-39050428D01*
X112384153Y-39188708D01*
X112363941Y-39509994D01*
X104550500Y-39509994D01*
X104550500Y-38503246D01*
X104550670Y-38496756D01*
X104567687Y-38172047D01*
X104569044Y-38159139D01*
X104619401Y-37841201D01*
X104622094Y-37828525D01*
X104705416Y-37517564D01*
X104709425Y-37505229D01*
X104770733Y-37345516D01*
X104824784Y-37204707D01*
X104830054Y-37192868D01*
X104976214Y-36906014D01*
X104982680Y-36894815D01*
X105158015Y-36624823D01*
X105165630Y-36614342D01*
X105368229Y-36364153D01*
X105376896Y-36354528D01*
X105604528Y-36126896D01*
X105614153Y-36118229D01*
X105864342Y-35915630D01*
X105874823Y-35908015D01*
X106144815Y-35732680D01*
X106156014Y-35726214D01*
X106442868Y-35580054D01*
X106454707Y-35574784D01*
X106755236Y-35459422D01*
X106767564Y-35455416D01*
X107078525Y-35372094D01*
X107091201Y-35369401D01*
X107409141Y-35319043D01*
X107422045Y-35317687D01*
X107746756Y-35300669D01*
X107753246Y-35300500D01*
X107797595Y-35300500D01*
X149202405Y-35300500D01*
X149246754Y-35300500D01*
X149253243Y-35300669D01*
G37*
%TD.AperFunction*%
%TD*%
M02*
