M48
; DRILL file {KiCad 8.0.5} date 2024-11-19T02:46:17-0600
; FORMAT={-:-/ absolute / inch / decimal}
; #@! TF.CreationDate,2024-11-19T02:46:17-06:00
; #@! TF.GenerationSoftware,Kicad,Pcbnew,8.0.5
; #@! TF.FileFunction,Plated,1,2,PTH
FMAT,2
INCH
; #@! TA.AperFunction,Plated,PTH,ViaDrill
T1C0.0118
; #@! TA.AperFunction,Plated,PTH,ComponentDrill
T2C0.0394
; #@! TA.AperFunction,Plated,PTH,ComponentDrill
T3C0.0402
; #@! TA.AperFunction,Plated,PTH,ComponentDrill
T4C0.0413
; #@! TA.AperFunction,Plated,PTH,ComponentDrill
T5C0.1220
%
G90
G05
T1
X5.2096Y-2.1289
X5.2633Y-2.6378
X5.4331Y-2.1161
X5.4921Y-1.8209
X5.5807Y-1.8209
X5.6526Y-1.8209
X5.8366Y-2.1541
T2
X5.5053Y-2.0315
X5.6053Y-2.0315
T3
X4.885Y-1.722
X4.885Y-1.8402
X4.9055Y-2.3764
X5.0031Y-1.722
X5.0031Y-1.8402
X5.0236Y-2.3764
X5.1213Y-1.722
X5.1213Y-1.8402
X5.4331Y-2.3764
X5.4961Y-1.7181
X5.5512Y-2.3764
X5.6142Y-1.7181
T4
X4.4688Y-1.8839
X4.4688Y-1.9929
X4.4688Y-2.102
X4.4688Y-2.211
X4.5806Y-1.8293
X4.5806Y-1.9384
X4.5806Y-2.0474
X4.5806Y-2.1565
X4.5806Y-2.2656
T5
X4.5247Y-1.5555
X4.5247Y-2.5394
M30
