%TF.GenerationSoftware,KiCad,Pcbnew,8.0.5*%
%TF.CreationDate,2024-11-19T02:46:13-06:00*%
%TF.ProjectId,Controls-MotorControllerBreakout,436f6e74-726f-46c7-932d-4d6f746f7243,rev?*%
%TF.SameCoordinates,Original*%
%TF.FileFunction,Legend,Bot*%
%TF.FilePolarity,Positive*%
%FSLAX46Y46*%
G04 Gerber Fmt 4.6, Leading zero omitted, Abs format (unit mm)*
G04 Created by KiCad (PCBNEW 8.0.5) date 2024-11-19 02:46:13*
%MOMM*%
%LPD*%
G01*
G04 APERTURE LIST*
%ADD10C,0.100000*%
%ADD11C,0.150000*%
%ADD12C,0.200000*%
%ADD13C,0.120000*%
%ADD14C,0.000000*%
%ADD15C,0.010000*%
G04 APERTURE END LIST*
D10*
X145041353Y-39521371D02*
X145041353Y-40121371D01*
X145041353Y-39549942D02*
X144984211Y-39521371D01*
X144984211Y-39521371D02*
X144869925Y-39521371D01*
X144869925Y-39521371D02*
X144812782Y-39549942D01*
X144812782Y-39549942D02*
X144784211Y-39578514D01*
X144784211Y-39578514D02*
X144755639Y-39635657D01*
X144755639Y-39635657D02*
X144755639Y-39807085D01*
X144755639Y-39807085D02*
X144784211Y-39864228D01*
X144784211Y-39864228D02*
X144812782Y-39892800D01*
X144812782Y-39892800D02*
X144869925Y-39921371D01*
X144869925Y-39921371D02*
X144984211Y-39921371D01*
X144984211Y-39921371D02*
X145041353Y-39892800D01*
X144498496Y-39921371D02*
X144498496Y-39521371D01*
X144498496Y-39635657D02*
X144469925Y-39578514D01*
X144469925Y-39578514D02*
X144441354Y-39549942D01*
X144441354Y-39549942D02*
X144384211Y-39521371D01*
X144384211Y-39521371D02*
X144327068Y-39521371D01*
X144041353Y-39921371D02*
X144098496Y-39892800D01*
X144098496Y-39892800D02*
X144127067Y-39864228D01*
X144127067Y-39864228D02*
X144155639Y-39807085D01*
X144155639Y-39807085D02*
X144155639Y-39635657D01*
X144155639Y-39635657D02*
X144127067Y-39578514D01*
X144127067Y-39578514D02*
X144098496Y-39549942D01*
X144098496Y-39549942D02*
X144041353Y-39521371D01*
X144041353Y-39521371D02*
X143955639Y-39521371D01*
X143955639Y-39521371D02*
X143898496Y-39549942D01*
X143898496Y-39549942D02*
X143869925Y-39578514D01*
X143869925Y-39578514D02*
X143841353Y-39635657D01*
X143841353Y-39635657D02*
X143841353Y-39807085D01*
X143841353Y-39807085D02*
X143869925Y-39864228D01*
X143869925Y-39864228D02*
X143898496Y-39892800D01*
X143898496Y-39892800D02*
X143955639Y-39921371D01*
X143955639Y-39921371D02*
X144041353Y-39921371D01*
X143669925Y-39521371D02*
X143441353Y-39521371D01*
X143584210Y-39921371D02*
X143584210Y-39407085D01*
X143584210Y-39407085D02*
X143555639Y-39349942D01*
X143555639Y-39349942D02*
X143498496Y-39321371D01*
X143498496Y-39321371D02*
X143441353Y-39321371D01*
X143241353Y-39921371D02*
X143241353Y-39521371D01*
X143241353Y-39321371D02*
X143269925Y-39349942D01*
X143269925Y-39349942D02*
X143241353Y-39378514D01*
X143241353Y-39378514D02*
X143212782Y-39349942D01*
X143212782Y-39349942D02*
X143241353Y-39321371D01*
X143241353Y-39321371D02*
X143241353Y-39378514D01*
X142955639Y-39521371D02*
X142955639Y-39921371D01*
X142955639Y-39578514D02*
X142927068Y-39549942D01*
X142927068Y-39549942D02*
X142869925Y-39521371D01*
X142869925Y-39521371D02*
X142784211Y-39521371D01*
X142784211Y-39521371D02*
X142727068Y-39549942D01*
X142727068Y-39549942D02*
X142698497Y-39607085D01*
X142698497Y-39607085D02*
X142698497Y-39921371D01*
X142412782Y-39921371D02*
X142412782Y-39521371D01*
X142412782Y-39321371D02*
X142441354Y-39349942D01*
X142441354Y-39349942D02*
X142412782Y-39378514D01*
X142412782Y-39378514D02*
X142384211Y-39349942D01*
X142384211Y-39349942D02*
X142412782Y-39321371D01*
X142412782Y-39321371D02*
X142412782Y-39378514D01*
X142212783Y-39521371D02*
X141984211Y-39521371D01*
X142127068Y-39321371D02*
X142127068Y-39835657D01*
X142127068Y-39835657D02*
X142098497Y-39892800D01*
X142098497Y-39892800D02*
X142041354Y-39921371D01*
X142041354Y-39921371D02*
X141984211Y-39921371D01*
X141841354Y-39521371D02*
X141698497Y-39921371D01*
X141555640Y-39521371D02*
X141698497Y-39921371D01*
X141698497Y-39921371D02*
X141755640Y-40064228D01*
X141755640Y-40064228D02*
X141784211Y-40092800D01*
X141784211Y-40092800D02*
X141841354Y-40121371D01*
X140898497Y-39292800D02*
X141412783Y-40064228D01*
X140441355Y-39892800D02*
X140498497Y-39921371D01*
X140498497Y-39921371D02*
X140612783Y-39921371D01*
X140612783Y-39921371D02*
X140669926Y-39892800D01*
X140669926Y-39892800D02*
X140698497Y-39864228D01*
X140698497Y-39864228D02*
X140727069Y-39807085D01*
X140727069Y-39807085D02*
X140727069Y-39635657D01*
X140727069Y-39635657D02*
X140698497Y-39578514D01*
X140698497Y-39578514D02*
X140669926Y-39549942D01*
X140669926Y-39549942D02*
X140612783Y-39521371D01*
X140612783Y-39521371D02*
X140498497Y-39521371D01*
X140498497Y-39521371D02*
X140441355Y-39549942D01*
X140098497Y-39921371D02*
X140155640Y-39892800D01*
X140155640Y-39892800D02*
X140184211Y-39864228D01*
X140184211Y-39864228D02*
X140212783Y-39807085D01*
X140212783Y-39807085D02*
X140212783Y-39635657D01*
X140212783Y-39635657D02*
X140184211Y-39578514D01*
X140184211Y-39578514D02*
X140155640Y-39549942D01*
X140155640Y-39549942D02*
X140098497Y-39521371D01*
X140098497Y-39521371D02*
X140012783Y-39521371D01*
X140012783Y-39521371D02*
X139955640Y-39549942D01*
X139955640Y-39549942D02*
X139927069Y-39578514D01*
X139927069Y-39578514D02*
X139898497Y-39635657D01*
X139898497Y-39635657D02*
X139898497Y-39807085D01*
X139898497Y-39807085D02*
X139927069Y-39864228D01*
X139927069Y-39864228D02*
X139955640Y-39892800D01*
X139955640Y-39892800D02*
X140012783Y-39921371D01*
X140012783Y-39921371D02*
X140098497Y-39921371D01*
X139641354Y-39521371D02*
X139641354Y-39921371D01*
X139641354Y-39578514D02*
X139612783Y-39549942D01*
X139612783Y-39549942D02*
X139555640Y-39521371D01*
X139555640Y-39521371D02*
X139469926Y-39521371D01*
X139469926Y-39521371D02*
X139412783Y-39549942D01*
X139412783Y-39549942D02*
X139384212Y-39607085D01*
X139384212Y-39607085D02*
X139384212Y-39921371D01*
X139184212Y-39521371D02*
X138955640Y-39521371D01*
X139098497Y-39321371D02*
X139098497Y-39835657D01*
X139098497Y-39835657D02*
X139069926Y-39892800D01*
X139069926Y-39892800D02*
X139012783Y-39921371D01*
X139012783Y-39921371D02*
X138955640Y-39921371D01*
X138755640Y-39921371D02*
X138755640Y-39521371D01*
X138755640Y-39635657D02*
X138727069Y-39578514D01*
X138727069Y-39578514D02*
X138698498Y-39549942D01*
X138698498Y-39549942D02*
X138641355Y-39521371D01*
X138641355Y-39521371D02*
X138584212Y-39521371D01*
X138298497Y-39921371D02*
X138355640Y-39892800D01*
X138355640Y-39892800D02*
X138384211Y-39864228D01*
X138384211Y-39864228D02*
X138412783Y-39807085D01*
X138412783Y-39807085D02*
X138412783Y-39635657D01*
X138412783Y-39635657D02*
X138384211Y-39578514D01*
X138384211Y-39578514D02*
X138355640Y-39549942D01*
X138355640Y-39549942D02*
X138298497Y-39521371D01*
X138298497Y-39521371D02*
X138212783Y-39521371D01*
X138212783Y-39521371D02*
X138155640Y-39549942D01*
X138155640Y-39549942D02*
X138127069Y-39578514D01*
X138127069Y-39578514D02*
X138098497Y-39635657D01*
X138098497Y-39635657D02*
X138098497Y-39807085D01*
X138098497Y-39807085D02*
X138127069Y-39864228D01*
X138127069Y-39864228D02*
X138155640Y-39892800D01*
X138155640Y-39892800D02*
X138212783Y-39921371D01*
X138212783Y-39921371D02*
X138298497Y-39921371D01*
X137755640Y-39921371D02*
X137812783Y-39892800D01*
X137812783Y-39892800D02*
X137841354Y-39835657D01*
X137841354Y-39835657D02*
X137841354Y-39321371D01*
X137555640Y-39892800D02*
X137498497Y-39921371D01*
X137498497Y-39921371D02*
X137384211Y-39921371D01*
X137384211Y-39921371D02*
X137327068Y-39892800D01*
X137327068Y-39892800D02*
X137298497Y-39835657D01*
X137298497Y-39835657D02*
X137298497Y-39807085D01*
X137298497Y-39807085D02*
X137327068Y-39749942D01*
X137327068Y-39749942D02*
X137384211Y-39721371D01*
X137384211Y-39721371D02*
X137469926Y-39721371D01*
X137469926Y-39721371D02*
X137527068Y-39692800D01*
X137527068Y-39692800D02*
X137555640Y-39635657D01*
X137555640Y-39635657D02*
X137555640Y-39607085D01*
X137555640Y-39607085D02*
X137527068Y-39549942D01*
X137527068Y-39549942D02*
X137469926Y-39521371D01*
X137469926Y-39521371D02*
X137384211Y-39521371D01*
X137384211Y-39521371D02*
X137327068Y-39549942D01*
X136584211Y-39521371D02*
X136584211Y-40121371D01*
X136584211Y-39549942D02*
X136527069Y-39521371D01*
X136527069Y-39521371D02*
X136412783Y-39521371D01*
X136412783Y-39521371D02*
X136355640Y-39549942D01*
X136355640Y-39549942D02*
X136327069Y-39578514D01*
X136327069Y-39578514D02*
X136298497Y-39635657D01*
X136298497Y-39635657D02*
X136298497Y-39807085D01*
X136298497Y-39807085D02*
X136327069Y-39864228D01*
X136327069Y-39864228D02*
X136355640Y-39892800D01*
X136355640Y-39892800D02*
X136412783Y-39921371D01*
X136412783Y-39921371D02*
X136527069Y-39921371D01*
X136527069Y-39921371D02*
X136584211Y-39892800D01*
X135955640Y-39921371D02*
X136012783Y-39892800D01*
X136012783Y-39892800D02*
X136041354Y-39835657D01*
X136041354Y-39835657D02*
X136041354Y-39321371D01*
X135755640Y-39892800D02*
X135698497Y-39921371D01*
X135698497Y-39921371D02*
X135584211Y-39921371D01*
X135584211Y-39921371D02*
X135527068Y-39892800D01*
X135527068Y-39892800D02*
X135498497Y-39835657D01*
X135498497Y-39835657D02*
X135498497Y-39807085D01*
X135498497Y-39807085D02*
X135527068Y-39749942D01*
X135527068Y-39749942D02*
X135584211Y-39721371D01*
X135584211Y-39721371D02*
X135669926Y-39721371D01*
X135669926Y-39721371D02*
X135727068Y-39692800D01*
X135727068Y-39692800D02*
X135755640Y-39635657D01*
X135755640Y-39635657D02*
X135755640Y-39607085D01*
X135755640Y-39607085D02*
X135727068Y-39549942D01*
X135727068Y-39549942D02*
X135669926Y-39521371D01*
X135669926Y-39521371D02*
X135584211Y-39521371D01*
X135584211Y-39521371D02*
X135527068Y-39549942D01*
X134841354Y-39521371D02*
X134727069Y-39921371D01*
X134727069Y-39921371D02*
X134612783Y-39635657D01*
X134612783Y-39635657D02*
X134498497Y-39921371D01*
X134498497Y-39921371D02*
X134384211Y-39521371D01*
X134069926Y-39921371D02*
X134127069Y-39892800D01*
X134127069Y-39892800D02*
X134155640Y-39864228D01*
X134155640Y-39864228D02*
X134184212Y-39807085D01*
X134184212Y-39807085D02*
X134184212Y-39635657D01*
X134184212Y-39635657D02*
X134155640Y-39578514D01*
X134155640Y-39578514D02*
X134127069Y-39549942D01*
X134127069Y-39549942D02*
X134069926Y-39521371D01*
X134069926Y-39521371D02*
X133984212Y-39521371D01*
X133984212Y-39521371D02*
X133927069Y-39549942D01*
X133927069Y-39549942D02*
X133898498Y-39578514D01*
X133898498Y-39578514D02*
X133869926Y-39635657D01*
X133869926Y-39635657D02*
X133869926Y-39807085D01*
X133869926Y-39807085D02*
X133898498Y-39864228D01*
X133898498Y-39864228D02*
X133927069Y-39892800D01*
X133927069Y-39892800D02*
X133984212Y-39921371D01*
X133984212Y-39921371D02*
X134069926Y-39921371D01*
X133612783Y-39921371D02*
X133612783Y-39521371D01*
X133612783Y-39635657D02*
X133584212Y-39578514D01*
X133584212Y-39578514D02*
X133555641Y-39549942D01*
X133555641Y-39549942D02*
X133498498Y-39521371D01*
X133498498Y-39521371D02*
X133441355Y-39521371D01*
X133241354Y-39921371D02*
X133241354Y-39321371D01*
X133184212Y-39692800D02*
X133012783Y-39921371D01*
X133012783Y-39521371D02*
X133241354Y-39749942D01*
X132298497Y-39864228D02*
X132269926Y-39892800D01*
X132269926Y-39892800D02*
X132298497Y-39921371D01*
X132298497Y-39921371D02*
X132327069Y-39892800D01*
X132327069Y-39892800D02*
X132298497Y-39864228D01*
X132298497Y-39864228D02*
X132298497Y-39921371D01*
X132298497Y-39549942D02*
X132269926Y-39578514D01*
X132269926Y-39578514D02*
X132298497Y-39607085D01*
X132298497Y-39607085D02*
X132327069Y-39578514D01*
X132327069Y-39578514D02*
X132298497Y-39549942D01*
X132298497Y-39549942D02*
X132298497Y-39607085D01*
X132069926Y-40149942D02*
X132041355Y-40121371D01*
X132041355Y-40121371D02*
X131984212Y-40035657D01*
X131984212Y-40035657D02*
X131955641Y-39978514D01*
X131955641Y-39978514D02*
X131927069Y-39892800D01*
X131927069Y-39892800D02*
X131898498Y-39749942D01*
X131898498Y-39749942D02*
X131898498Y-39635657D01*
X131898498Y-39635657D02*
X131927069Y-39492800D01*
X131927069Y-39492800D02*
X131955641Y-39407085D01*
X131955641Y-39407085D02*
X131984212Y-39349942D01*
X131984212Y-39349942D02*
X132041355Y-39264228D01*
X132041355Y-39264228D02*
X132069926Y-39235657D01*
D11*
X144913220Y-38869819D02*
X144913220Y-37869819D01*
X144913220Y-37869819D02*
X144579887Y-38584104D01*
X144579887Y-38584104D02*
X144246554Y-37869819D01*
X144246554Y-37869819D02*
X144246554Y-38869819D01*
X143627506Y-38869819D02*
X143722744Y-38822200D01*
X143722744Y-38822200D02*
X143770363Y-38774580D01*
X143770363Y-38774580D02*
X143817982Y-38679342D01*
X143817982Y-38679342D02*
X143817982Y-38393628D01*
X143817982Y-38393628D02*
X143770363Y-38298390D01*
X143770363Y-38298390D02*
X143722744Y-38250771D01*
X143722744Y-38250771D02*
X143627506Y-38203152D01*
X143627506Y-38203152D02*
X143484649Y-38203152D01*
X143484649Y-38203152D02*
X143389411Y-38250771D01*
X143389411Y-38250771D02*
X143341792Y-38298390D01*
X143341792Y-38298390D02*
X143294173Y-38393628D01*
X143294173Y-38393628D02*
X143294173Y-38679342D01*
X143294173Y-38679342D02*
X143341792Y-38774580D01*
X143341792Y-38774580D02*
X143389411Y-38822200D01*
X143389411Y-38822200D02*
X143484649Y-38869819D01*
X143484649Y-38869819D02*
X143627506Y-38869819D01*
X143008458Y-38203152D02*
X142627506Y-38203152D01*
X142865601Y-37869819D02*
X142865601Y-38726961D01*
X142865601Y-38726961D02*
X142817982Y-38822200D01*
X142817982Y-38822200D02*
X142722744Y-38869819D01*
X142722744Y-38869819D02*
X142627506Y-38869819D01*
X142151315Y-38869819D02*
X142246553Y-38822200D01*
X142246553Y-38822200D02*
X142294172Y-38774580D01*
X142294172Y-38774580D02*
X142341791Y-38679342D01*
X142341791Y-38679342D02*
X142341791Y-38393628D01*
X142341791Y-38393628D02*
X142294172Y-38298390D01*
X142294172Y-38298390D02*
X142246553Y-38250771D01*
X142246553Y-38250771D02*
X142151315Y-38203152D01*
X142151315Y-38203152D02*
X142008458Y-38203152D01*
X142008458Y-38203152D02*
X141913220Y-38250771D01*
X141913220Y-38250771D02*
X141865601Y-38298390D01*
X141865601Y-38298390D02*
X141817982Y-38393628D01*
X141817982Y-38393628D02*
X141817982Y-38679342D01*
X141817982Y-38679342D02*
X141865601Y-38774580D01*
X141865601Y-38774580D02*
X141913220Y-38822200D01*
X141913220Y-38822200D02*
X142008458Y-38869819D01*
X142008458Y-38869819D02*
X142151315Y-38869819D01*
X141389410Y-38869819D02*
X141389410Y-38203152D01*
X141389410Y-38393628D02*
X141341791Y-38298390D01*
X141341791Y-38298390D02*
X141294172Y-38250771D01*
X141294172Y-38250771D02*
X141198934Y-38203152D01*
X141198934Y-38203152D02*
X141103696Y-38203152D01*
X139437029Y-38774580D02*
X139484648Y-38822200D01*
X139484648Y-38822200D02*
X139627505Y-38869819D01*
X139627505Y-38869819D02*
X139722743Y-38869819D01*
X139722743Y-38869819D02*
X139865600Y-38822200D01*
X139865600Y-38822200D02*
X139960838Y-38726961D01*
X139960838Y-38726961D02*
X140008457Y-38631723D01*
X140008457Y-38631723D02*
X140056076Y-38441247D01*
X140056076Y-38441247D02*
X140056076Y-38298390D01*
X140056076Y-38298390D02*
X140008457Y-38107914D01*
X140008457Y-38107914D02*
X139960838Y-38012676D01*
X139960838Y-38012676D02*
X139865600Y-37917438D01*
X139865600Y-37917438D02*
X139722743Y-37869819D01*
X139722743Y-37869819D02*
X139627505Y-37869819D01*
X139627505Y-37869819D02*
X139484648Y-37917438D01*
X139484648Y-37917438D02*
X139437029Y-37965057D01*
X138865600Y-38869819D02*
X138960838Y-38822200D01*
X138960838Y-38822200D02*
X139008457Y-38774580D01*
X139008457Y-38774580D02*
X139056076Y-38679342D01*
X139056076Y-38679342D02*
X139056076Y-38393628D01*
X139056076Y-38393628D02*
X139008457Y-38298390D01*
X139008457Y-38298390D02*
X138960838Y-38250771D01*
X138960838Y-38250771D02*
X138865600Y-38203152D01*
X138865600Y-38203152D02*
X138722743Y-38203152D01*
X138722743Y-38203152D02*
X138627505Y-38250771D01*
X138627505Y-38250771D02*
X138579886Y-38298390D01*
X138579886Y-38298390D02*
X138532267Y-38393628D01*
X138532267Y-38393628D02*
X138532267Y-38679342D01*
X138532267Y-38679342D02*
X138579886Y-38774580D01*
X138579886Y-38774580D02*
X138627505Y-38822200D01*
X138627505Y-38822200D02*
X138722743Y-38869819D01*
X138722743Y-38869819D02*
X138865600Y-38869819D01*
X138103695Y-38203152D02*
X138103695Y-38869819D01*
X138103695Y-38298390D02*
X138056076Y-38250771D01*
X138056076Y-38250771D02*
X137960838Y-38203152D01*
X137960838Y-38203152D02*
X137817981Y-38203152D01*
X137817981Y-38203152D02*
X137722743Y-38250771D01*
X137722743Y-38250771D02*
X137675124Y-38346009D01*
X137675124Y-38346009D02*
X137675124Y-38869819D01*
X137341790Y-38203152D02*
X136960838Y-38203152D01*
X137198933Y-37869819D02*
X137198933Y-38726961D01*
X137198933Y-38726961D02*
X137151314Y-38822200D01*
X137151314Y-38822200D02*
X137056076Y-38869819D01*
X137056076Y-38869819D02*
X136960838Y-38869819D01*
X136627504Y-38869819D02*
X136627504Y-38203152D01*
X136627504Y-38393628D02*
X136579885Y-38298390D01*
X136579885Y-38298390D02*
X136532266Y-38250771D01*
X136532266Y-38250771D02*
X136437028Y-38203152D01*
X136437028Y-38203152D02*
X136341790Y-38203152D01*
X135865599Y-38869819D02*
X135960837Y-38822200D01*
X135960837Y-38822200D02*
X136008456Y-38774580D01*
X136008456Y-38774580D02*
X136056075Y-38679342D01*
X136056075Y-38679342D02*
X136056075Y-38393628D01*
X136056075Y-38393628D02*
X136008456Y-38298390D01*
X136008456Y-38298390D02*
X135960837Y-38250771D01*
X135960837Y-38250771D02*
X135865599Y-38203152D01*
X135865599Y-38203152D02*
X135722742Y-38203152D01*
X135722742Y-38203152D02*
X135627504Y-38250771D01*
X135627504Y-38250771D02*
X135579885Y-38298390D01*
X135579885Y-38298390D02*
X135532266Y-38393628D01*
X135532266Y-38393628D02*
X135532266Y-38679342D01*
X135532266Y-38679342D02*
X135579885Y-38774580D01*
X135579885Y-38774580D02*
X135627504Y-38822200D01*
X135627504Y-38822200D02*
X135722742Y-38869819D01*
X135722742Y-38869819D02*
X135865599Y-38869819D01*
X134960837Y-38869819D02*
X135056075Y-38822200D01*
X135056075Y-38822200D02*
X135103694Y-38726961D01*
X135103694Y-38726961D02*
X135103694Y-37869819D01*
X134437027Y-38869819D02*
X134532265Y-38822200D01*
X134532265Y-38822200D02*
X134579884Y-38726961D01*
X134579884Y-38726961D02*
X134579884Y-37869819D01*
X133675122Y-38822200D02*
X133770360Y-38869819D01*
X133770360Y-38869819D02*
X133960836Y-38869819D01*
X133960836Y-38869819D02*
X134056074Y-38822200D01*
X134056074Y-38822200D02*
X134103693Y-38726961D01*
X134103693Y-38726961D02*
X134103693Y-38346009D01*
X134103693Y-38346009D02*
X134056074Y-38250771D01*
X134056074Y-38250771D02*
X133960836Y-38203152D01*
X133960836Y-38203152D02*
X133770360Y-38203152D01*
X133770360Y-38203152D02*
X133675122Y-38250771D01*
X133675122Y-38250771D02*
X133627503Y-38346009D01*
X133627503Y-38346009D02*
X133627503Y-38441247D01*
X133627503Y-38441247D02*
X134103693Y-38536485D01*
X133198931Y-38869819D02*
X133198931Y-38203152D01*
X133198931Y-38393628D02*
X133151312Y-38298390D01*
X133151312Y-38298390D02*
X133103693Y-38250771D01*
X133103693Y-38250771D02*
X133008455Y-38203152D01*
X133008455Y-38203152D02*
X132913217Y-38203152D01*
X131484645Y-38346009D02*
X131341788Y-38393628D01*
X131341788Y-38393628D02*
X131294169Y-38441247D01*
X131294169Y-38441247D02*
X131246550Y-38536485D01*
X131246550Y-38536485D02*
X131246550Y-38679342D01*
X131246550Y-38679342D02*
X131294169Y-38774580D01*
X131294169Y-38774580D02*
X131341788Y-38822200D01*
X131341788Y-38822200D02*
X131437026Y-38869819D01*
X131437026Y-38869819D02*
X131817978Y-38869819D01*
X131817978Y-38869819D02*
X131817978Y-37869819D01*
X131817978Y-37869819D02*
X131484645Y-37869819D01*
X131484645Y-37869819D02*
X131389407Y-37917438D01*
X131389407Y-37917438D02*
X131341788Y-37965057D01*
X131341788Y-37965057D02*
X131294169Y-38060295D01*
X131294169Y-38060295D02*
X131294169Y-38155533D01*
X131294169Y-38155533D02*
X131341788Y-38250771D01*
X131341788Y-38250771D02*
X131389407Y-38298390D01*
X131389407Y-38298390D02*
X131484645Y-38346009D01*
X131484645Y-38346009D02*
X131817978Y-38346009D01*
X130817978Y-38869819D02*
X130817978Y-38203152D01*
X130817978Y-38393628D02*
X130770359Y-38298390D01*
X130770359Y-38298390D02*
X130722740Y-38250771D01*
X130722740Y-38250771D02*
X130627502Y-38203152D01*
X130627502Y-38203152D02*
X130532264Y-38203152D01*
X129817978Y-38822200D02*
X129913216Y-38869819D01*
X129913216Y-38869819D02*
X130103692Y-38869819D01*
X130103692Y-38869819D02*
X130198930Y-38822200D01*
X130198930Y-38822200D02*
X130246549Y-38726961D01*
X130246549Y-38726961D02*
X130246549Y-38346009D01*
X130246549Y-38346009D02*
X130198930Y-38250771D01*
X130198930Y-38250771D02*
X130103692Y-38203152D01*
X130103692Y-38203152D02*
X129913216Y-38203152D01*
X129913216Y-38203152D02*
X129817978Y-38250771D01*
X129817978Y-38250771D02*
X129770359Y-38346009D01*
X129770359Y-38346009D02*
X129770359Y-38441247D01*
X129770359Y-38441247D02*
X130246549Y-38536485D01*
X128913216Y-38869819D02*
X128913216Y-38346009D01*
X128913216Y-38346009D02*
X128960835Y-38250771D01*
X128960835Y-38250771D02*
X129056073Y-38203152D01*
X129056073Y-38203152D02*
X129246549Y-38203152D01*
X129246549Y-38203152D02*
X129341787Y-38250771D01*
X128913216Y-38822200D02*
X129008454Y-38869819D01*
X129008454Y-38869819D02*
X129246549Y-38869819D01*
X129246549Y-38869819D02*
X129341787Y-38822200D01*
X129341787Y-38822200D02*
X129389406Y-38726961D01*
X129389406Y-38726961D02*
X129389406Y-38631723D01*
X129389406Y-38631723D02*
X129341787Y-38536485D01*
X129341787Y-38536485D02*
X129246549Y-38488866D01*
X129246549Y-38488866D02*
X129008454Y-38488866D01*
X129008454Y-38488866D02*
X128913216Y-38441247D01*
X128437025Y-38869819D02*
X128437025Y-37869819D01*
X128341787Y-38488866D02*
X128056073Y-38869819D01*
X128056073Y-38203152D02*
X128437025Y-38584104D01*
X127484644Y-38869819D02*
X127579882Y-38822200D01*
X127579882Y-38822200D02*
X127627501Y-38774580D01*
X127627501Y-38774580D02*
X127675120Y-38679342D01*
X127675120Y-38679342D02*
X127675120Y-38393628D01*
X127675120Y-38393628D02*
X127627501Y-38298390D01*
X127627501Y-38298390D02*
X127579882Y-38250771D01*
X127579882Y-38250771D02*
X127484644Y-38203152D01*
X127484644Y-38203152D02*
X127341787Y-38203152D01*
X127341787Y-38203152D02*
X127246549Y-38250771D01*
X127246549Y-38250771D02*
X127198930Y-38298390D01*
X127198930Y-38298390D02*
X127151311Y-38393628D01*
X127151311Y-38393628D02*
X127151311Y-38679342D01*
X127151311Y-38679342D02*
X127198930Y-38774580D01*
X127198930Y-38774580D02*
X127246549Y-38822200D01*
X127246549Y-38822200D02*
X127341787Y-38869819D01*
X127341787Y-38869819D02*
X127484644Y-38869819D01*
X126294168Y-38203152D02*
X126294168Y-38869819D01*
X126722739Y-38203152D02*
X126722739Y-38726961D01*
X126722739Y-38726961D02*
X126675120Y-38822200D01*
X126675120Y-38822200D02*
X126579882Y-38869819D01*
X126579882Y-38869819D02*
X126437025Y-38869819D01*
X126437025Y-38869819D02*
X126341787Y-38822200D01*
X126341787Y-38822200D02*
X126294168Y-38774580D01*
X125960834Y-38203152D02*
X125579882Y-38203152D01*
X125817977Y-37869819D02*
X125817977Y-38726961D01*
X125817977Y-38726961D02*
X125770358Y-38822200D01*
X125770358Y-38822200D02*
X125675120Y-38869819D01*
X125675120Y-38869819D02*
X125579882Y-38869819D01*
X129341792Y-65119819D02*
X129675125Y-64643628D01*
X129913220Y-65119819D02*
X129913220Y-64119819D01*
X129913220Y-64119819D02*
X129532268Y-64119819D01*
X129532268Y-64119819D02*
X129437030Y-64167438D01*
X129437030Y-64167438D02*
X129389411Y-64215057D01*
X129389411Y-64215057D02*
X129341792Y-64310295D01*
X129341792Y-64310295D02*
X129341792Y-64453152D01*
X129341792Y-64453152D02*
X129389411Y-64548390D01*
X129389411Y-64548390D02*
X129437030Y-64596009D01*
X129437030Y-64596009D02*
X129532268Y-64643628D01*
X129532268Y-64643628D02*
X129913220Y-64643628D01*
X128484649Y-65119819D02*
X128484649Y-64596009D01*
X128484649Y-64596009D02*
X128532268Y-64500771D01*
X128532268Y-64500771D02*
X128627506Y-64453152D01*
X128627506Y-64453152D02*
X128817982Y-64453152D01*
X128817982Y-64453152D02*
X128913220Y-64500771D01*
X128484649Y-65072200D02*
X128579887Y-65119819D01*
X128579887Y-65119819D02*
X128817982Y-65119819D01*
X128817982Y-65119819D02*
X128913220Y-65072200D01*
X128913220Y-65072200D02*
X128960839Y-64976961D01*
X128960839Y-64976961D02*
X128960839Y-64881723D01*
X128960839Y-64881723D02*
X128913220Y-64786485D01*
X128913220Y-64786485D02*
X128817982Y-64738866D01*
X128817982Y-64738866D02*
X128579887Y-64738866D01*
X128579887Y-64738866D02*
X128484649Y-64691247D01*
X128103696Y-64453152D02*
X127865601Y-65119819D01*
X127865601Y-65119819D02*
X127627506Y-64453152D01*
X127246553Y-65119819D02*
X127246553Y-64453152D01*
X127246553Y-64119819D02*
X127294172Y-64167438D01*
X127294172Y-64167438D02*
X127246553Y-64215057D01*
X127246553Y-64215057D02*
X127198934Y-64167438D01*
X127198934Y-64167438D02*
X127246553Y-64119819D01*
X127246553Y-64119819D02*
X127246553Y-64215057D01*
X126056077Y-65072200D02*
X125913220Y-65119819D01*
X125913220Y-65119819D02*
X125675125Y-65119819D01*
X125675125Y-65119819D02*
X125579887Y-65072200D01*
X125579887Y-65072200D02*
X125532268Y-65024580D01*
X125532268Y-65024580D02*
X125484649Y-64929342D01*
X125484649Y-64929342D02*
X125484649Y-64834104D01*
X125484649Y-64834104D02*
X125532268Y-64738866D01*
X125532268Y-64738866D02*
X125579887Y-64691247D01*
X125579887Y-64691247D02*
X125675125Y-64643628D01*
X125675125Y-64643628D02*
X125865601Y-64596009D01*
X125865601Y-64596009D02*
X125960839Y-64548390D01*
X125960839Y-64548390D02*
X126008458Y-64500771D01*
X126008458Y-64500771D02*
X126056077Y-64405533D01*
X126056077Y-64405533D02*
X126056077Y-64310295D01*
X126056077Y-64310295D02*
X126008458Y-64215057D01*
X126008458Y-64215057D02*
X125960839Y-64167438D01*
X125960839Y-64167438D02*
X125865601Y-64119819D01*
X125865601Y-64119819D02*
X125627506Y-64119819D01*
X125627506Y-64119819D02*
X125484649Y-64167438D01*
X125056077Y-65119819D02*
X125056077Y-64119819D01*
X124627506Y-65119819D02*
X124627506Y-64596009D01*
X124627506Y-64596009D02*
X124675125Y-64500771D01*
X124675125Y-64500771D02*
X124770363Y-64453152D01*
X124770363Y-64453152D02*
X124913220Y-64453152D01*
X124913220Y-64453152D02*
X125008458Y-64500771D01*
X125008458Y-64500771D02*
X125056077Y-64548390D01*
X123722744Y-65119819D02*
X123722744Y-64596009D01*
X123722744Y-64596009D02*
X123770363Y-64500771D01*
X123770363Y-64500771D02*
X123865601Y-64453152D01*
X123865601Y-64453152D02*
X124056077Y-64453152D01*
X124056077Y-64453152D02*
X124151315Y-64500771D01*
X123722744Y-65072200D02*
X123817982Y-65119819D01*
X123817982Y-65119819D02*
X124056077Y-65119819D01*
X124056077Y-65119819D02*
X124151315Y-65072200D01*
X124151315Y-65072200D02*
X124198934Y-64976961D01*
X124198934Y-64976961D02*
X124198934Y-64881723D01*
X124198934Y-64881723D02*
X124151315Y-64786485D01*
X124151315Y-64786485D02*
X124056077Y-64738866D01*
X124056077Y-64738866D02*
X123817982Y-64738866D01*
X123817982Y-64738866D02*
X123722744Y-64691247D01*
X123246553Y-65119819D02*
X123246553Y-64119819D01*
X122817982Y-65119819D02*
X122817982Y-64596009D01*
X122817982Y-64596009D02*
X122865601Y-64500771D01*
X122865601Y-64500771D02*
X122960839Y-64453152D01*
X122960839Y-64453152D02*
X123103696Y-64453152D01*
X123103696Y-64453152D02*
X123198934Y-64500771D01*
X123198934Y-64500771D02*
X123246553Y-64548390D01*
X121627505Y-64215057D02*
X121579886Y-64167438D01*
X121579886Y-64167438D02*
X121484648Y-64119819D01*
X121484648Y-64119819D02*
X121246553Y-64119819D01*
X121246553Y-64119819D02*
X121151315Y-64167438D01*
X121151315Y-64167438D02*
X121103696Y-64215057D01*
X121103696Y-64215057D02*
X121056077Y-64310295D01*
X121056077Y-64310295D02*
X121056077Y-64405533D01*
X121056077Y-64405533D02*
X121103696Y-64548390D01*
X121103696Y-64548390D02*
X121675124Y-65119819D01*
X121675124Y-65119819D02*
X121056077Y-65119819D01*
X120437029Y-64119819D02*
X120341791Y-64119819D01*
X120341791Y-64119819D02*
X120246553Y-64167438D01*
X120246553Y-64167438D02*
X120198934Y-64215057D01*
X120198934Y-64215057D02*
X120151315Y-64310295D01*
X120151315Y-64310295D02*
X120103696Y-64500771D01*
X120103696Y-64500771D02*
X120103696Y-64738866D01*
X120103696Y-64738866D02*
X120151315Y-64929342D01*
X120151315Y-64929342D02*
X120198934Y-65024580D01*
X120198934Y-65024580D02*
X120246553Y-65072200D01*
X120246553Y-65072200D02*
X120341791Y-65119819D01*
X120341791Y-65119819D02*
X120437029Y-65119819D01*
X120437029Y-65119819D02*
X120532267Y-65072200D01*
X120532267Y-65072200D02*
X120579886Y-65024580D01*
X120579886Y-65024580D02*
X120627505Y-64929342D01*
X120627505Y-64929342D02*
X120675124Y-64738866D01*
X120675124Y-64738866D02*
X120675124Y-64500771D01*
X120675124Y-64500771D02*
X120627505Y-64310295D01*
X120627505Y-64310295D02*
X120579886Y-64215057D01*
X120579886Y-64215057D02*
X120532267Y-64167438D01*
X120532267Y-64167438D02*
X120437029Y-64119819D01*
X119722743Y-64215057D02*
X119675124Y-64167438D01*
X119675124Y-64167438D02*
X119579886Y-64119819D01*
X119579886Y-64119819D02*
X119341791Y-64119819D01*
X119341791Y-64119819D02*
X119246553Y-64167438D01*
X119246553Y-64167438D02*
X119198934Y-64215057D01*
X119198934Y-64215057D02*
X119151315Y-64310295D01*
X119151315Y-64310295D02*
X119151315Y-64405533D01*
X119151315Y-64405533D02*
X119198934Y-64548390D01*
X119198934Y-64548390D02*
X119770362Y-65119819D01*
X119770362Y-65119819D02*
X119151315Y-65119819D01*
X118294172Y-64453152D02*
X118294172Y-65119819D01*
X118532267Y-64072200D02*
X118770362Y-64786485D01*
X118770362Y-64786485D02*
X118151315Y-64786485D01*
X146059523Y-49954819D02*
X145392857Y-49954819D01*
X145392857Y-49954819D02*
X146059523Y-50954819D01*
X146059523Y-50954819D02*
X145392857Y-50954819D01*
X144488095Y-50954819D02*
X145059523Y-50954819D01*
X144773809Y-50954819D02*
X144773809Y-49954819D01*
X144773809Y-49954819D02*
X144869047Y-50097676D01*
X144869047Y-50097676D02*
X144964285Y-50192914D01*
X144964285Y-50192914D02*
X145059523Y-50240533D01*
X136166666Y-54204819D02*
X136499999Y-53728628D01*
X136738094Y-54204819D02*
X136738094Y-53204819D01*
X136738094Y-53204819D02*
X136357142Y-53204819D01*
X136357142Y-53204819D02*
X136261904Y-53252438D01*
X136261904Y-53252438D02*
X136214285Y-53300057D01*
X136214285Y-53300057D02*
X136166666Y-53395295D01*
X136166666Y-53395295D02*
X136166666Y-53538152D01*
X136166666Y-53538152D02*
X136214285Y-53633390D01*
X136214285Y-53633390D02*
X136261904Y-53681009D01*
X136261904Y-53681009D02*
X136357142Y-53728628D01*
X136357142Y-53728628D02*
X136738094Y-53728628D01*
X135833332Y-53204819D02*
X135214285Y-53204819D01*
X135214285Y-53204819D02*
X135547618Y-53585771D01*
X135547618Y-53585771D02*
X135404761Y-53585771D01*
X135404761Y-53585771D02*
X135309523Y-53633390D01*
X135309523Y-53633390D02*
X135261904Y-53681009D01*
X135261904Y-53681009D02*
X135214285Y-53776247D01*
X135214285Y-53776247D02*
X135214285Y-54014342D01*
X135214285Y-54014342D02*
X135261904Y-54109580D01*
X135261904Y-54109580D02*
X135309523Y-54157200D01*
X135309523Y-54157200D02*
X135404761Y-54204819D01*
X135404761Y-54204819D02*
X135690475Y-54204819D01*
X135690475Y-54204819D02*
X135785713Y-54157200D01*
X135785713Y-54157200D02*
X135833332Y-54109580D01*
X142345238Y-54550057D02*
X142440476Y-54502438D01*
X142440476Y-54502438D02*
X142535714Y-54407200D01*
X142535714Y-54407200D02*
X142678571Y-54264342D01*
X142678571Y-54264342D02*
X142773809Y-54216723D01*
X142773809Y-54216723D02*
X142869047Y-54216723D01*
X142821428Y-54454819D02*
X142916666Y-54407200D01*
X142916666Y-54407200D02*
X143011904Y-54311961D01*
X143011904Y-54311961D02*
X143059523Y-54121485D01*
X143059523Y-54121485D02*
X143059523Y-53788152D01*
X143059523Y-53788152D02*
X143011904Y-53597676D01*
X143011904Y-53597676D02*
X142916666Y-53502438D01*
X142916666Y-53502438D02*
X142821428Y-53454819D01*
X142821428Y-53454819D02*
X142630952Y-53454819D01*
X142630952Y-53454819D02*
X142535714Y-53502438D01*
X142535714Y-53502438D02*
X142440476Y-53597676D01*
X142440476Y-53597676D02*
X142392857Y-53788152D01*
X142392857Y-53788152D02*
X142392857Y-54121485D01*
X142392857Y-54121485D02*
X142440476Y-54311961D01*
X142440476Y-54311961D02*
X142535714Y-54407200D01*
X142535714Y-54407200D02*
X142630952Y-54454819D01*
X142630952Y-54454819D02*
X142821428Y-54454819D01*
X141440476Y-54454819D02*
X142011904Y-54454819D01*
X141726190Y-54454819D02*
X141726190Y-53454819D01*
X141726190Y-53454819D02*
X141821428Y-53597676D01*
X141821428Y-53597676D02*
X141916666Y-53692914D01*
X141916666Y-53692914D02*
X142011904Y-53740533D01*
X136738094Y-56954819D02*
X136738094Y-55954819D01*
X136738094Y-55954819D02*
X136499999Y-55954819D01*
X136499999Y-55954819D02*
X136357142Y-56002438D01*
X136357142Y-56002438D02*
X136261904Y-56097676D01*
X136261904Y-56097676D02*
X136214285Y-56192914D01*
X136214285Y-56192914D02*
X136166666Y-56383390D01*
X136166666Y-56383390D02*
X136166666Y-56526247D01*
X136166666Y-56526247D02*
X136214285Y-56716723D01*
X136214285Y-56716723D02*
X136261904Y-56811961D01*
X136261904Y-56811961D02*
X136357142Y-56907200D01*
X136357142Y-56907200D02*
X136499999Y-56954819D01*
X136499999Y-56954819D02*
X136738094Y-56954819D01*
X135785713Y-56050057D02*
X135738094Y-56002438D01*
X135738094Y-56002438D02*
X135642856Y-55954819D01*
X135642856Y-55954819D02*
X135404761Y-55954819D01*
X135404761Y-55954819D02*
X135309523Y-56002438D01*
X135309523Y-56002438D02*
X135261904Y-56050057D01*
X135261904Y-56050057D02*
X135214285Y-56145295D01*
X135214285Y-56145295D02*
X135214285Y-56240533D01*
X135214285Y-56240533D02*
X135261904Y-56383390D01*
X135261904Y-56383390D02*
X135833332Y-56954819D01*
X135833332Y-56954819D02*
X135214285Y-56954819D01*
X150416666Y-56109580D02*
X150464285Y-56157200D01*
X150464285Y-56157200D02*
X150607142Y-56204819D01*
X150607142Y-56204819D02*
X150702380Y-56204819D01*
X150702380Y-56204819D02*
X150845237Y-56157200D01*
X150845237Y-56157200D02*
X150940475Y-56061961D01*
X150940475Y-56061961D02*
X150988094Y-55966723D01*
X150988094Y-55966723D02*
X151035713Y-55776247D01*
X151035713Y-55776247D02*
X151035713Y-55633390D01*
X151035713Y-55633390D02*
X150988094Y-55442914D01*
X150988094Y-55442914D02*
X150940475Y-55347676D01*
X150940475Y-55347676D02*
X150845237Y-55252438D01*
X150845237Y-55252438D02*
X150702380Y-55204819D01*
X150702380Y-55204819D02*
X150607142Y-55204819D01*
X150607142Y-55204819D02*
X150464285Y-55252438D01*
X150464285Y-55252438D02*
X150416666Y-55300057D01*
X149464285Y-56204819D02*
X150035713Y-56204819D01*
X149749999Y-56204819D02*
X149749999Y-55204819D01*
X149749999Y-55204819D02*
X149845237Y-55347676D01*
X149845237Y-55347676D02*
X149940475Y-55442914D01*
X149940475Y-55442914D02*
X150035713Y-55490533D01*
X142829166Y-48304819D02*
X143162499Y-47828628D01*
X143400594Y-48304819D02*
X143400594Y-47304819D01*
X143400594Y-47304819D02*
X143019642Y-47304819D01*
X143019642Y-47304819D02*
X142924404Y-47352438D01*
X142924404Y-47352438D02*
X142876785Y-47400057D01*
X142876785Y-47400057D02*
X142829166Y-47495295D01*
X142829166Y-47495295D02*
X142829166Y-47638152D01*
X142829166Y-47638152D02*
X142876785Y-47733390D01*
X142876785Y-47733390D02*
X142924404Y-47781009D01*
X142924404Y-47781009D02*
X143019642Y-47828628D01*
X143019642Y-47828628D02*
X143400594Y-47828628D01*
X141876785Y-48304819D02*
X142448213Y-48304819D01*
X142162499Y-48304819D02*
X142162499Y-47304819D01*
X142162499Y-47304819D02*
X142257737Y-47447676D01*
X142257737Y-47447676D02*
X142352975Y-47542914D01*
X142352975Y-47542914D02*
X142448213Y-47590533D01*
X148833333Y-47981009D02*
X149166666Y-47981009D01*
X149166666Y-48504819D02*
X149166666Y-47504819D01*
X149166666Y-47504819D02*
X148690476Y-47504819D01*
X147785714Y-48504819D02*
X148357142Y-48504819D01*
X148071428Y-48504819D02*
X148071428Y-47504819D01*
X148071428Y-47504819D02*
X148166666Y-47647676D01*
X148166666Y-47647676D02*
X148261904Y-47742914D01*
X148261904Y-47742914D02*
X148357142Y-47790533D01*
X135629166Y-65204819D02*
X135962499Y-64728628D01*
X136200594Y-65204819D02*
X136200594Y-64204819D01*
X136200594Y-64204819D02*
X135819642Y-64204819D01*
X135819642Y-64204819D02*
X135724404Y-64252438D01*
X135724404Y-64252438D02*
X135676785Y-64300057D01*
X135676785Y-64300057D02*
X135629166Y-64395295D01*
X135629166Y-64395295D02*
X135629166Y-64538152D01*
X135629166Y-64538152D02*
X135676785Y-64633390D01*
X135676785Y-64633390D02*
X135724404Y-64681009D01*
X135724404Y-64681009D02*
X135819642Y-64728628D01*
X135819642Y-64728628D02*
X136200594Y-64728628D01*
X135248213Y-64300057D02*
X135200594Y-64252438D01*
X135200594Y-64252438D02*
X135105356Y-64204819D01*
X135105356Y-64204819D02*
X134867261Y-64204819D01*
X134867261Y-64204819D02*
X134772023Y-64252438D01*
X134772023Y-64252438D02*
X134724404Y-64300057D01*
X134724404Y-64300057D02*
X134676785Y-64395295D01*
X134676785Y-64395295D02*
X134676785Y-64490533D01*
X134676785Y-64490533D02*
X134724404Y-64633390D01*
X134724404Y-64633390D02*
X135295832Y-65204819D01*
X135295832Y-65204819D02*
X134676785Y-65204819D01*
D10*
%TO.C,Z1*%
X145250000Y-57050000D02*
X145250000Y-57050000D01*
X145250000Y-56950000D02*
X145250000Y-56950000D01*
D12*
X146050000Y-53450000D02*
X146050000Y-55050000D01*
X144450000Y-53450000D02*
X144450000Y-55050000D01*
D10*
X145250000Y-57050000D02*
G75*
G02*
X145250000Y-56950000I0J50000D01*
G01*
X145250000Y-56950000D02*
G75*
G02*
X145250000Y-57050000I0J-50000D01*
G01*
D13*
%TO.C,R3*%
X139227064Y-54485000D02*
X138772936Y-54485000D01*
X139227064Y-53015000D02*
X138772936Y-53015000D01*
%TO.C,Q1*%
X141650000Y-55190000D02*
X141000000Y-55190000D01*
X140350000Y-55190000D02*
X141000000Y-55190000D01*
X141650000Y-58310000D02*
X141000000Y-58310000D01*
X140350000Y-58310000D02*
X141000000Y-58310000D01*
X142162500Y-55240000D02*
X141922500Y-54910000D01*
X142402500Y-54910000D01*
X142162500Y-55240000D01*
G36*
X142162500Y-55240000D02*
G01*
X141922500Y-54910000D01*
X142402500Y-54910000D01*
X142162500Y-55240000D01*
G37*
%TO.C,D2*%
X138850000Y-57800000D02*
X138850000Y-55140000D01*
X137150000Y-57800000D02*
X137150000Y-55140000D01*
X138850000Y-55140000D02*
X137150000Y-55140000D01*
%TO.C,C1*%
X148985000Y-55403748D02*
X148985000Y-55926252D01*
X147515000Y-55403748D02*
X147515000Y-55926252D01*
D14*
%TO.C,G\u002A\u002A\u002A*%
G36*
X133514193Y-50166356D02*
G01*
X133511915Y-50168635D01*
X133509636Y-50166356D01*
X133511915Y-50164077D01*
X133514193Y-50166356D01*
G37*
G36*
X133578001Y-50271183D02*
G01*
X133575722Y-50273461D01*
X133573443Y-50271183D01*
X133575722Y-50268904D01*
X133578001Y-50271183D01*
G37*
G36*
X133737520Y-50435259D02*
G01*
X133735241Y-50437538D01*
X133732962Y-50435259D01*
X133735241Y-50432980D01*
X133737520Y-50435259D01*
G37*
G36*
X133769424Y-49263933D02*
G01*
X133767145Y-49266212D01*
X133764866Y-49263933D01*
X133767145Y-49261654D01*
X133769424Y-49263933D01*
G37*
G36*
X133824116Y-50950278D02*
G01*
X133821837Y-50952557D01*
X133819559Y-50950278D01*
X133821837Y-50947999D01*
X133824116Y-50950278D01*
G37*
G36*
X133833232Y-49254818D02*
G01*
X133830953Y-49257097D01*
X133828674Y-49254818D01*
X133830953Y-49252539D01*
X133833232Y-49254818D01*
G37*
G36*
X133951732Y-49573856D02*
G01*
X133949453Y-49576135D01*
X133947174Y-49573856D01*
X133949453Y-49571577D01*
X133951732Y-49573856D01*
G37*
G36*
X134006424Y-48703338D02*
G01*
X134004145Y-48705616D01*
X134001866Y-48703338D01*
X134004145Y-48701059D01*
X134006424Y-48703338D01*
G37*
G36*
X134348250Y-51241970D02*
G01*
X134345972Y-51244249D01*
X134343693Y-51241970D01*
X134345972Y-51239691D01*
X134348250Y-51241970D01*
G37*
G36*
X134430289Y-50193702D02*
G01*
X134428010Y-50195981D01*
X134425731Y-50193702D01*
X134428010Y-50191423D01*
X134430289Y-50193702D01*
G37*
G36*
X134676404Y-51538220D02*
G01*
X134674125Y-51540499D01*
X134671846Y-51538220D01*
X134674125Y-51535941D01*
X134676404Y-51538220D01*
G37*
G36*
X134685519Y-51551893D02*
G01*
X134683241Y-51554172D01*
X134680962Y-51551893D01*
X134683241Y-51549614D01*
X134685519Y-51551893D01*
G37*
G36*
X134690077Y-51561008D02*
G01*
X134687798Y-51563287D01*
X134685519Y-51561008D01*
X134687798Y-51558730D01*
X134690077Y-51561008D01*
G37*
G36*
X134799462Y-48566607D02*
G01*
X134797183Y-48568886D01*
X134794904Y-48566607D01*
X134797183Y-48564328D01*
X134799462Y-48566607D01*
G37*
G36*
X134972654Y-49678683D02*
G01*
X134970375Y-49680962D01*
X134968096Y-49678683D01*
X134970375Y-49676404D01*
X134972654Y-49678683D01*
G37*
G36*
X135082038Y-51711412D02*
G01*
X135079760Y-51713691D01*
X135077481Y-51711412D01*
X135079760Y-51709133D01*
X135082038Y-51711412D01*
G37*
G36*
X135145846Y-51670393D02*
G01*
X135143567Y-51672672D01*
X135141288Y-51670393D01*
X135143567Y-51668114D01*
X135145846Y-51670393D01*
G37*
G36*
X135159519Y-51670393D02*
G01*
X135157240Y-51672672D01*
X135154961Y-51670393D01*
X135157240Y-51668114D01*
X135159519Y-51670393D01*
G37*
G36*
X135186865Y-51674951D02*
G01*
X135184586Y-51677230D01*
X135182308Y-51674951D01*
X135184586Y-51672672D01*
X135186865Y-51674951D01*
G37*
G36*
X135478557Y-51533662D02*
G01*
X135476278Y-51535941D01*
X135474000Y-51533662D01*
X135476278Y-51531383D01*
X135478557Y-51533662D01*
G37*
G36*
X135870519Y-51264759D02*
G01*
X135868240Y-51267038D01*
X135865961Y-51264759D01*
X135868240Y-51262480D01*
X135870519Y-51264759D01*
G37*
G36*
X136093845Y-51137143D02*
G01*
X136091566Y-51139422D01*
X136089288Y-51137143D01*
X136091566Y-51134865D01*
X136093845Y-51137143D01*
G37*
G36*
X136116634Y-51077893D02*
G01*
X136114355Y-51080172D01*
X136112076Y-51077893D01*
X136114355Y-51075615D01*
X136116634Y-51077893D01*
G37*
G36*
X136244249Y-49382433D02*
G01*
X136241970Y-49384712D01*
X136239691Y-49382433D01*
X136241970Y-49380154D01*
X136244249Y-49382433D01*
G37*
G36*
X136257922Y-50968509D02*
G01*
X136255643Y-50970788D01*
X136253364Y-50968509D01*
X136255643Y-50966230D01*
X136257922Y-50968509D01*
G37*
G36*
X136271595Y-48853741D02*
G01*
X136269316Y-48856020D01*
X136267037Y-48853741D01*
X136269316Y-48851462D01*
X136271595Y-48853741D01*
G37*
G36*
X136280711Y-48748914D02*
G01*
X136278432Y-48751193D01*
X136276153Y-48748914D01*
X136278432Y-48746636D01*
X136280711Y-48748914D01*
G37*
G36*
X136376422Y-49596645D02*
G01*
X136374143Y-49598923D01*
X136371864Y-49596645D01*
X136374143Y-49594366D01*
X136376422Y-49596645D01*
G37*
G36*
X136376422Y-50808990D02*
G01*
X136374143Y-50811269D01*
X136371864Y-50808990D01*
X136374143Y-50806711D01*
X136376422Y-50808990D01*
G37*
G36*
X136412884Y-50093433D02*
G01*
X136410605Y-50095711D01*
X136408326Y-50093433D01*
X136410605Y-50091154D01*
X136412884Y-50093433D01*
G37*
G36*
X136421999Y-49947587D02*
G01*
X136419720Y-49949865D01*
X136417441Y-49947587D01*
X136419720Y-49945308D01*
X136421999Y-49947587D01*
G37*
G36*
X136449345Y-50293971D02*
G01*
X136447066Y-50296250D01*
X136444787Y-50293971D01*
X136447066Y-50291692D01*
X136449345Y-50293971D01*
G37*
G36*
X136472133Y-50052413D02*
G01*
X136469855Y-50054692D01*
X136467576Y-50052413D01*
X136469855Y-50050135D01*
X136472133Y-50052413D01*
G37*
G36*
X136531383Y-50499067D02*
G01*
X136529105Y-50501346D01*
X136526826Y-50499067D01*
X136529105Y-50496788D01*
X136531383Y-50499067D01*
G37*
G36*
X136549614Y-50426144D02*
G01*
X136547335Y-50428423D01*
X136545057Y-50426144D01*
X136547335Y-50423865D01*
X136549614Y-50426144D01*
G37*
G36*
X136558730Y-50385125D02*
G01*
X136556451Y-50387404D01*
X136554172Y-50385125D01*
X136556451Y-50382846D01*
X136558730Y-50385125D01*
G37*
G36*
X133518391Y-50316380D02*
G01*
X133518069Y-50321002D01*
X133515997Y-50322362D01*
X133515094Y-50320749D01*
X133515638Y-50313626D01*
X133517278Y-50311516D01*
X133518391Y-50316380D01*
G37*
G36*
X133551509Y-50434425D02*
G01*
X133553619Y-50436065D01*
X133548756Y-50437178D01*
X133544133Y-50436856D01*
X133542774Y-50434785D01*
X133544386Y-50433881D01*
X133551509Y-50434425D01*
G37*
G36*
X133550655Y-50113942D02*
G01*
X133550326Y-50116355D01*
X133547616Y-50116981D01*
X133547071Y-50116313D01*
X133547616Y-50110904D01*
X133548987Y-50110191D01*
X133550655Y-50113942D01*
G37*
G36*
X133705616Y-50460327D02*
G01*
X133705287Y-50462739D01*
X133702578Y-50463365D01*
X133702032Y-50462697D01*
X133702578Y-50457288D01*
X133703949Y-50456575D01*
X133705616Y-50460327D01*
G37*
G36*
X133732962Y-50752019D02*
G01*
X133732634Y-50754432D01*
X133729924Y-50755057D01*
X133729379Y-50754389D01*
X133729924Y-50748980D01*
X133731295Y-50748267D01*
X133732962Y-50752019D01*
G37*
G36*
X133869693Y-48527867D02*
G01*
X133869364Y-48530279D01*
X133866655Y-48530905D01*
X133866109Y-48530237D01*
X133866655Y-48524828D01*
X133868026Y-48524115D01*
X133869693Y-48527867D01*
G37*
G36*
X133914910Y-50945341D02*
G01*
X133914588Y-50949963D01*
X133912516Y-50951323D01*
X133911613Y-50949710D01*
X133912157Y-50942587D01*
X133913797Y-50940477D01*
X133914910Y-50945341D01*
G37*
G36*
X133983635Y-51016365D02*
G01*
X133983306Y-51018777D01*
X133980597Y-51019403D01*
X133980051Y-51018735D01*
X133980597Y-51013326D01*
X133981968Y-51012613D01*
X133983635Y-51016365D01*
G37*
G36*
X134639943Y-51526826D02*
G01*
X134639614Y-51529239D01*
X134636904Y-51529864D01*
X134636359Y-51529196D01*
X134636904Y-51523787D01*
X134638275Y-51523074D01*
X134639943Y-51526826D01*
G37*
G36*
X135136731Y-51681787D02*
G01*
X135136402Y-51684200D01*
X135133692Y-51684826D01*
X135133147Y-51684158D01*
X135133692Y-51678749D01*
X135135063Y-51678036D01*
X135136731Y-51681787D01*
G37*
G36*
X135162558Y-49718943D02*
G01*
X135163271Y-49720313D01*
X135159519Y-49721981D01*
X135157106Y-49721652D01*
X135156481Y-49718943D01*
X135157149Y-49718397D01*
X135162558Y-49718943D01*
G37*
G36*
X136057384Y-51089288D02*
G01*
X136057055Y-51091700D01*
X136054345Y-51092326D01*
X136053800Y-51091658D01*
X136054345Y-51086249D01*
X136055716Y-51085536D01*
X136057384Y-51089288D01*
G37*
G36*
X136102961Y-51112076D02*
G01*
X136102632Y-51114489D01*
X136099922Y-51115115D01*
X136099377Y-51114447D01*
X136099922Y-51109038D01*
X136101293Y-51108325D01*
X136102961Y-51112076D01*
G37*
G36*
X136248807Y-48919828D02*
G01*
X136248478Y-48922241D01*
X136245768Y-48922866D01*
X136245223Y-48922198D01*
X136245768Y-48916789D01*
X136247139Y-48916076D01*
X136248807Y-48919828D01*
G37*
G36*
X136256403Y-49445481D02*
G01*
X136257116Y-49446852D01*
X136253364Y-49448520D01*
X136250952Y-49448191D01*
X136250326Y-49445481D01*
X136250994Y-49444936D01*
X136256403Y-49445481D01*
G37*
G36*
X136257922Y-48609905D02*
G01*
X136257593Y-48612318D01*
X136254884Y-48612943D01*
X136254338Y-48612275D01*
X136254884Y-48606866D01*
X136256255Y-48606153D01*
X136257922Y-48609905D01*
G37*
G36*
X136280351Y-48693842D02*
G01*
X136280028Y-48698465D01*
X136277957Y-48699824D01*
X136277054Y-48698212D01*
X136277597Y-48691089D01*
X136279238Y-48688979D01*
X136280351Y-48693842D01*
G37*
G36*
X136280351Y-50835956D02*
G01*
X136280028Y-50840579D01*
X136277957Y-50841938D01*
X136277054Y-50840326D01*
X136277597Y-50833203D01*
X136279238Y-50831093D01*
X136280351Y-50835956D01*
G37*
G36*
X136280711Y-48764866D02*
G01*
X136280382Y-48767279D01*
X136277672Y-48767905D01*
X136277127Y-48767237D01*
X136277672Y-48761828D01*
X136279043Y-48761115D01*
X136280711Y-48764866D01*
G37*
G36*
X136289106Y-48742078D02*
G01*
X136288471Y-48748348D01*
X136286807Y-48747775D01*
X136286205Y-48745712D01*
X136286807Y-48736381D01*
X136288390Y-48735608D01*
X136289106Y-48742078D01*
G37*
G36*
X136313469Y-49399829D02*
G01*
X136315579Y-49401470D01*
X136310715Y-49402583D01*
X136306093Y-49402261D01*
X136304733Y-49400189D01*
X136306346Y-49399286D01*
X136313469Y-49399829D01*
G37*
G36*
X136311095Y-49418135D02*
G01*
X136311808Y-49419506D01*
X136308057Y-49421174D01*
X136305644Y-49420845D01*
X136305018Y-49418135D01*
X136305686Y-49417590D01*
X136311095Y-49418135D01*
G37*
G36*
X136466057Y-49769077D02*
G01*
X136466770Y-49770448D01*
X136463018Y-49772116D01*
X136460605Y-49771787D01*
X136459980Y-49769077D01*
X136460648Y-49768532D01*
X136466057Y-49769077D01*
G37*
G36*
X136463018Y-50729230D02*
G01*
X136462689Y-50731643D01*
X136459980Y-50732269D01*
X136459434Y-50731601D01*
X136459980Y-50726192D01*
X136461351Y-50725479D01*
X136463018Y-50729230D01*
G37*
G36*
X136511633Y-50174711D02*
G01*
X136512346Y-50176082D01*
X136508595Y-50177750D01*
X136506182Y-50177421D01*
X136505557Y-50174711D01*
X136506225Y-50174166D01*
X136511633Y-50174711D01*
G37*
G36*
X136023636Y-51229872D02*
G01*
X136022229Y-51231896D01*
X136018374Y-51235134D01*
X136017737Y-51235089D01*
X136016734Y-51232451D01*
X136021626Y-51227862D01*
X136024174Y-51226753D01*
X136023636Y-51229872D01*
G37*
G36*
X133525379Y-50255582D02*
G01*
X133525588Y-50259788D01*
X133524656Y-50261020D01*
X133518213Y-50264346D01*
X133516681Y-50263995D01*
X133516472Y-50259788D01*
X133517404Y-50258557D01*
X133523847Y-50255231D01*
X133525379Y-50255582D01*
G37*
G36*
X133523309Y-50150135D02*
G01*
X133523134Y-50151458D01*
X133518751Y-50154961D01*
X133517720Y-50154909D01*
X133514193Y-50152952D01*
X133514403Y-50152220D01*
X133518751Y-50148125D01*
X133520517Y-50147413D01*
X133523309Y-50150135D01*
G37*
G36*
X133532424Y-50131904D02*
G01*
X133532249Y-50133227D01*
X133527866Y-50136731D01*
X133526835Y-50136678D01*
X133523309Y-50134721D01*
X133523519Y-50133990D01*
X133527866Y-50129894D01*
X133529632Y-50129182D01*
X133532424Y-50131904D01*
G37*
G36*
X133584629Y-50073274D02*
G01*
X133584838Y-50077481D01*
X133583906Y-50078712D01*
X133577463Y-50082038D01*
X133575931Y-50081687D01*
X133575722Y-50077481D01*
X133576654Y-50076249D01*
X133583097Y-50072923D01*
X133584629Y-50073274D01*
G37*
G36*
X133813184Y-49243633D02*
G01*
X133817280Y-49247981D01*
X133817992Y-49249747D01*
X133815270Y-49252539D01*
X133813947Y-49252364D01*
X133810443Y-49247981D01*
X133810495Y-49246950D01*
X133812453Y-49243424D01*
X133813184Y-49243633D01*
G37*
G36*
X133838879Y-50875209D02*
G01*
X133842347Y-50879634D01*
X133842215Y-50880723D01*
X133837789Y-50884192D01*
X133836700Y-50884059D01*
X133833232Y-50879634D01*
X133833364Y-50878545D01*
X133837789Y-50875076D01*
X133838879Y-50875209D01*
G37*
G36*
X133838843Y-48696676D02*
G01*
X133842347Y-48701059D01*
X133842295Y-48702090D01*
X133840337Y-48705616D01*
X133839606Y-48705407D01*
X133835510Y-48701059D01*
X133834798Y-48699293D01*
X133837520Y-48696501D01*
X133838843Y-48696676D01*
G37*
G36*
X133967322Y-49745127D02*
G01*
X133967683Y-49749327D01*
X133966748Y-49750691D01*
X133962857Y-49753885D01*
X133962402Y-49753766D01*
X133960847Y-49749327D01*
X133961032Y-49748078D01*
X133965674Y-49744769D01*
X133967322Y-49745127D01*
G37*
G36*
X133984725Y-49717556D02*
G01*
X133988193Y-49721981D01*
X133988061Y-49723070D01*
X133983635Y-49726539D01*
X133982546Y-49726406D01*
X133979078Y-49721981D01*
X133979210Y-49720892D01*
X133983635Y-49717423D01*
X133984725Y-49717556D01*
G37*
G36*
X134016629Y-51016497D02*
G01*
X134020097Y-51020922D01*
X134019964Y-51022012D01*
X134015539Y-51025480D01*
X134014450Y-51025348D01*
X134010981Y-51020922D01*
X134011114Y-51019833D01*
X134015539Y-51016365D01*
X134016629Y-51016497D01*
G37*
G36*
X134039417Y-49671979D02*
G01*
X134042885Y-49676404D01*
X134042753Y-49677494D01*
X134038328Y-49680962D01*
X134037238Y-49680829D01*
X134033770Y-49676404D01*
X134033902Y-49675315D01*
X134038328Y-49671846D01*
X134039417Y-49671979D01*
G37*
G36*
X134066763Y-49671979D02*
G01*
X134070231Y-49676404D01*
X134070099Y-49677494D01*
X134065674Y-49680962D01*
X134064584Y-49680829D01*
X134061116Y-49676404D01*
X134061249Y-49675315D01*
X134065674Y-49671846D01*
X134066763Y-49671979D01*
G37*
G36*
X134149492Y-51134210D02*
G01*
X134152270Y-51141970D01*
X134151800Y-51144866D01*
X134147712Y-51148538D01*
X134145014Y-51146704D01*
X134143154Y-51139153D01*
X134144125Y-51133981D01*
X134147712Y-51132586D01*
X134149492Y-51134210D01*
G37*
G36*
X134413198Y-50181726D02*
G01*
X134418059Y-50185898D01*
X134421173Y-50189702D01*
X134421099Y-50190502D01*
X134418129Y-50190533D01*
X134411477Y-50183447D01*
X134408931Y-50180145D01*
X134407799Y-50177785D01*
X134413198Y-50181726D01*
G37*
G36*
X134499520Y-51449859D02*
G01*
X134503212Y-51453903D01*
X134502441Y-51455999D01*
X134496375Y-51458460D01*
X134493230Y-51457946D01*
X134489539Y-51453903D01*
X134490310Y-51451806D01*
X134496375Y-51449345D01*
X134499520Y-51449859D01*
G37*
G36*
X134654464Y-51513711D02*
G01*
X134658173Y-51517710D01*
X134658051Y-51518792D01*
X134653885Y-51522268D01*
X134652606Y-51522094D01*
X134646779Y-51517710D01*
X134646350Y-51515362D01*
X134651068Y-51513153D01*
X134654464Y-51513711D01*
G37*
G36*
X134859801Y-49708440D02*
G01*
X134863269Y-49712866D01*
X134863137Y-49713955D01*
X134858712Y-49717423D01*
X134857622Y-49717291D01*
X134854154Y-49712866D01*
X134854286Y-49711776D01*
X134858712Y-49708308D01*
X134859801Y-49708440D01*
G37*
G36*
X134923609Y-49690210D02*
G01*
X134927077Y-49694635D01*
X134926945Y-49695724D01*
X134922519Y-49699193D01*
X134921430Y-49699060D01*
X134917962Y-49694635D01*
X134918094Y-49693545D01*
X134922519Y-49690077D01*
X134923609Y-49690210D01*
G37*
G36*
X134996532Y-49653748D02*
G01*
X135000000Y-49658173D01*
X134999868Y-49659263D01*
X134995442Y-49662731D01*
X134994353Y-49662599D01*
X134990885Y-49658173D01*
X134991017Y-49657084D01*
X134995442Y-49653616D01*
X134996532Y-49653748D01*
G37*
G36*
X135060339Y-49635517D02*
G01*
X135063808Y-49639943D01*
X135063675Y-49641032D01*
X135059250Y-49644500D01*
X135058161Y-49644368D01*
X135054692Y-49639943D01*
X135054825Y-49638853D01*
X135059250Y-49635385D01*
X135060339Y-49635517D01*
G37*
G36*
X135087685Y-49644633D02*
G01*
X135091154Y-49649058D01*
X135091021Y-49650147D01*
X135086596Y-49653616D01*
X135085507Y-49653483D01*
X135082038Y-49649058D01*
X135082171Y-49647969D01*
X135086596Y-49644500D01*
X135087685Y-49644633D01*
G37*
G36*
X135107106Y-51702065D02*
G01*
X135102778Y-51704099D01*
X135092126Y-51708195D01*
X135087163Y-51708525D01*
X135089103Y-51704898D01*
X135095922Y-51701234D01*
X135107106Y-51698036D01*
X135120779Y-51695409D01*
X135107106Y-51702065D01*
G37*
G36*
X135115032Y-49653748D02*
G01*
X135118500Y-49658173D01*
X135118367Y-49659263D01*
X135113942Y-49662731D01*
X135112853Y-49662599D01*
X135109385Y-49658173D01*
X135109517Y-49657084D01*
X135113942Y-49653616D01*
X135115032Y-49653748D01*
G37*
G36*
X135115032Y-49671979D02*
G01*
X135118500Y-49676404D01*
X135118367Y-49677494D01*
X135113942Y-49680962D01*
X135112853Y-49680829D01*
X135109385Y-49676404D01*
X135109517Y-49675315D01*
X135113942Y-49671846D01*
X135115032Y-49671979D01*
G37*
G36*
X135285615Y-51578480D02*
G01*
X135286274Y-51579635D01*
X135285043Y-51585773D01*
X135282095Y-51588931D01*
X135276329Y-51590357D01*
X135273461Y-51586345D01*
X135274836Y-51582481D01*
X135280284Y-51578136D01*
X135285615Y-51578480D01*
G37*
G36*
X135428423Y-51558461D02*
G01*
X135428248Y-51559784D01*
X135423865Y-51563287D01*
X135422834Y-51563235D01*
X135419307Y-51561277D01*
X135419517Y-51560546D01*
X135423865Y-51556451D01*
X135425631Y-51555739D01*
X135428423Y-51558461D01*
G37*
G36*
X135461416Y-48778672D02*
G01*
X135464884Y-48783097D01*
X135464752Y-48784186D01*
X135460327Y-48787655D01*
X135459237Y-48787522D01*
X135455769Y-48783097D01*
X135455901Y-48782008D01*
X135460327Y-48778539D01*
X135461416Y-48778672D01*
G37*
G36*
X135497877Y-48833364D02*
G01*
X135501346Y-48837789D01*
X135501213Y-48838879D01*
X135496788Y-48842347D01*
X135495699Y-48842215D01*
X135492230Y-48837789D01*
X135492363Y-48836700D01*
X135496788Y-48833232D01*
X135497877Y-48833364D01*
G37*
G36*
X135599176Y-51427069D02*
G01*
X135601615Y-51432634D01*
X135600979Y-51435266D01*
X135595213Y-51438710D01*
X135592450Y-51437974D01*
X135591143Y-51432634D01*
X135592455Y-51430148D01*
X135597545Y-51426557D01*
X135599176Y-51427069D01*
G37*
G36*
X135619846Y-51453634D02*
G01*
X135619671Y-51454957D01*
X135615288Y-51458460D01*
X135614257Y-51458408D01*
X135610730Y-51456451D01*
X135610940Y-51455719D01*
X135615288Y-51451624D01*
X135617053Y-51450912D01*
X135619846Y-51453634D01*
G37*
G36*
X136000474Y-51158897D02*
G01*
X136002692Y-51166768D01*
X136001423Y-51172084D01*
X135995855Y-51175884D01*
X135991688Y-51175647D01*
X135989325Y-51172953D01*
X135991785Y-51164862D01*
X135995658Y-51158884D01*
X136000474Y-51158897D01*
G37*
G36*
X136053916Y-51103093D02*
G01*
X136057384Y-51107518D01*
X136057251Y-51108608D01*
X136052826Y-51112076D01*
X136051737Y-51111944D01*
X136048268Y-51107518D01*
X136048401Y-51106429D01*
X136052826Y-51102961D01*
X136053916Y-51103093D01*
G37*
G36*
X136134865Y-51018374D02*
G01*
X136134307Y-51021770D01*
X136130307Y-51025480D01*
X136129225Y-51025357D01*
X136125749Y-51021191D01*
X136125923Y-51019913D01*
X136130307Y-51014086D01*
X136132655Y-51013657D01*
X136134865Y-51018374D01*
G37*
G36*
X136245338Y-48723980D02*
G01*
X136248807Y-48728405D01*
X136248674Y-48729494D01*
X136244249Y-48732963D01*
X136243160Y-48732830D01*
X136239691Y-48728405D01*
X136239824Y-48727315D01*
X136244249Y-48723847D01*
X136245338Y-48723980D01*
G37*
G36*
X136245338Y-48778672D02*
G01*
X136248807Y-48783097D01*
X136248674Y-48784186D01*
X136244249Y-48787655D01*
X136243160Y-48787522D01*
X136239691Y-48783097D01*
X136239824Y-48782008D01*
X136244249Y-48778539D01*
X136245338Y-48778672D01*
G37*
G36*
X136254454Y-48960979D02*
G01*
X136257922Y-48965405D01*
X136257790Y-48966494D01*
X136253364Y-48969962D01*
X136252275Y-48969830D01*
X136248807Y-48965405D01*
X136248939Y-48964315D01*
X136253364Y-48960847D01*
X136254454Y-48960979D01*
G37*
G36*
X136272685Y-48888056D02*
G01*
X136276153Y-48892482D01*
X136276020Y-48893571D01*
X136271595Y-48897039D01*
X136270506Y-48896907D01*
X136267037Y-48892482D01*
X136267170Y-48891392D01*
X136271595Y-48887924D01*
X136272685Y-48888056D01*
G37*
G36*
X136396385Y-50743709D02*
G01*
X136400859Y-50749740D01*
X136401387Y-50753557D01*
X136396789Y-50756576D01*
X136393670Y-50755784D01*
X136390095Y-50749740D01*
X136390552Y-50746602D01*
X136394165Y-50742903D01*
X136396385Y-50743709D01*
G37*
G36*
X136401128Y-49640300D02*
G01*
X136401489Y-49644500D01*
X136400554Y-49645864D01*
X136396663Y-49649058D01*
X136396208Y-49648939D01*
X136394653Y-49644500D01*
X136394838Y-49643251D01*
X136399479Y-49639943D01*
X136401128Y-49640300D01*
G37*
G36*
X136397195Y-49676609D02*
G01*
X136401489Y-49680962D01*
X136402338Y-49682575D01*
X136402027Y-49685519D01*
X136401226Y-49685314D01*
X136396932Y-49680962D01*
X136396083Y-49679348D01*
X136396394Y-49676404D01*
X136397195Y-49676609D01*
G37*
G36*
X136446576Y-49780701D02*
G01*
X136446872Y-49786104D01*
X136446173Y-49787065D01*
X136440230Y-49790346D01*
X136436602Y-49789350D01*
X136433172Y-49784247D01*
X136435598Y-49778998D01*
X136441096Y-49777814D01*
X136446576Y-49780701D01*
G37*
G36*
X136477781Y-50483247D02*
G01*
X136481249Y-50487673D01*
X136481116Y-50488762D01*
X136476691Y-50492230D01*
X136475602Y-50492098D01*
X136472133Y-50487673D01*
X136472266Y-50486583D01*
X136476691Y-50483115D01*
X136477781Y-50483247D01*
G37*
G36*
X136518800Y-50401209D02*
G01*
X136522268Y-50405634D01*
X136522136Y-50406724D01*
X136517710Y-50410192D01*
X136516621Y-50410060D01*
X136513153Y-50405634D01*
X136513285Y-50404545D01*
X136517710Y-50401077D01*
X136518800Y-50401209D01*
G37*
G36*
X135568278Y-48629741D02*
G01*
X135568796Y-48632573D01*
X135565245Y-48639420D01*
X135559873Y-48644497D01*
X135553855Y-48645652D01*
X135551480Y-48639387D01*
X135551481Y-48639269D01*
X135554862Y-48632521D01*
X135561889Y-48628525D01*
X135568278Y-48629741D01*
G37*
G36*
X136390095Y-49594366D02*
G01*
X136392306Y-49598230D01*
X136394583Y-49604621D01*
X136394472Y-49605422D01*
X136390095Y-49608039D01*
X136387268Y-49605786D01*
X136385607Y-49597784D01*
X136385658Y-49595313D01*
X136386770Y-49590786D01*
X136390095Y-49594366D01*
G37*
G36*
X135514367Y-51500861D02*
G01*
X135513377Y-51507223D01*
X135504764Y-51513011D01*
X135499580Y-51514998D01*
X135491197Y-51517066D01*
X135490324Y-51514301D01*
X135496656Y-51506457D01*
X135497702Y-51505374D01*
X135505731Y-51498939D01*
X135511124Y-51497610D01*
X135514367Y-51500861D01*
G37*
G36*
X133978238Y-51040170D02*
G01*
X133977463Y-51045612D01*
X133969185Y-51055933D01*
X133968623Y-51056524D01*
X133961352Y-51062902D01*
X133957173Y-51064345D01*
X133956881Y-51063866D01*
X133958292Y-51058145D01*
X133963287Y-51049857D01*
X133969515Y-51042395D01*
X133974625Y-51039153D01*
X133978238Y-51040170D01*
G37*
G36*
X134765239Y-51621390D02*
G01*
X134773441Y-51626519D01*
X134781606Y-51634387D01*
X134782538Y-51635518D01*
X134785315Y-51639526D01*
X134782653Y-51639186D01*
X134773255Y-51634519D01*
X134771146Y-51633381D01*
X134762110Y-51627178D01*
X134758442Y-51622260D01*
X134759566Y-51620343D01*
X134765239Y-51621390D01*
G37*
G36*
X134895835Y-51667563D02*
G01*
X134906567Y-51675092D01*
X134911895Y-51679711D01*
X134915757Y-51684793D01*
X134912519Y-51686322D01*
X134911480Y-51686241D01*
X134902465Y-51682562D01*
X134892009Y-51675095D01*
X134886193Y-51669232D01*
X134884205Y-51664633D01*
X134887900Y-51664077D01*
X134895835Y-51667563D01*
G37*
G36*
X135463461Y-51523553D02*
G01*
X135464344Y-51528604D01*
X135459226Y-51535817D01*
X135448932Y-51543383D01*
X135442908Y-51546310D01*
X135438313Y-51547196D01*
X135437897Y-51546227D01*
X135440203Y-51540294D01*
X135446060Y-51532301D01*
X135453005Y-51525282D01*
X135458572Y-51522268D01*
X135463461Y-51523553D01*
G37*
G36*
X135848016Y-51218396D02*
G01*
X135854183Y-51224384D01*
X135854687Y-51225737D01*
X135855067Y-51229424D01*
X135850171Y-51226153D01*
X135845329Y-51223509D01*
X135836157Y-51223177D01*
X135832547Y-51223992D01*
X135831810Y-51221408D01*
X135831880Y-51221297D01*
X135838978Y-51217153D01*
X135848016Y-51218396D01*
G37*
G36*
X136053207Y-51178203D02*
G01*
X136050675Y-51184212D01*
X136043915Y-51193946D01*
X136033456Y-51206232D01*
X136029223Y-51210759D01*
X136019933Y-51219678D01*
X136014738Y-51222315D01*
X136012528Y-51219366D01*
X136012428Y-51217848D01*
X136016559Y-51208357D01*
X136027652Y-51195721D01*
X136044850Y-51180956D01*
X136050982Y-51177091D01*
X136053207Y-51178203D01*
G37*
G36*
X134553743Y-49963618D02*
G01*
X134569654Y-49968790D01*
X134583466Y-49980407D01*
X134592319Y-49996174D01*
X134593043Y-50001154D01*
X134589306Y-50013305D01*
X134579594Y-50024240D01*
X134565856Y-50031369D01*
X134554865Y-50034432D01*
X134546958Y-50035351D01*
X134540944Y-50032805D01*
X134533086Y-50026207D01*
X134527434Y-50020290D01*
X134519881Y-50005415D01*
X134519139Y-49990219D01*
X134524591Y-49976785D01*
X134535622Y-49967197D01*
X134551616Y-49963539D01*
X134553743Y-49963618D01*
G37*
G36*
X135585701Y-49961356D02*
G01*
X135601965Y-49972303D01*
X135607548Y-49978509D01*
X135614287Y-49991986D01*
X135612156Y-50004978D01*
X135601133Y-50018681D01*
X135599999Y-50019723D01*
X135585786Y-50029159D01*
X135569935Y-50031904D01*
X135568273Y-50031880D01*
X135551777Y-50027958D01*
X135540768Y-50017016D01*
X135534792Y-49998621D01*
X135533991Y-49991736D01*
X135535856Y-49980948D01*
X135543895Y-49970710D01*
X135551582Y-49964522D01*
X135568306Y-49958746D01*
X135585701Y-49961356D01*
G37*
G36*
X136429885Y-49707268D02*
G01*
X136448486Y-49720081D01*
X136456273Y-49725884D01*
X136467060Y-49733423D01*
X136473553Y-49737300D01*
X136476142Y-49739665D01*
X136472133Y-49744375D01*
X136467727Y-49746443D01*
X136458460Y-49746414D01*
X136453087Y-49744515D01*
X136441798Y-49741455D01*
X136436706Y-49739868D01*
X136424629Y-49733133D01*
X136413827Y-49723864D01*
X136406596Y-49714256D01*
X136405234Y-49706505D01*
X136408217Y-49702375D01*
X136416601Y-49701410D01*
X136429885Y-49707268D01*
G37*
G36*
X134368906Y-49998861D02*
G01*
X134361438Y-50021139D01*
X134354879Y-50059195D01*
X134357104Y-50094870D01*
X134368120Y-50128231D01*
X134387934Y-50159343D01*
X134400664Y-50175120D01*
X134378713Y-50159494D01*
X134375338Y-50157037D01*
X134354791Y-50139982D01*
X134335399Y-50120708D01*
X134319357Y-50101560D01*
X134308861Y-50084882D01*
X134305485Y-50075923D01*
X134304723Y-50063569D01*
X134309425Y-50050554D01*
X134320243Y-50035333D01*
X134337830Y-50016363D01*
X134341428Y-50012771D01*
X134356189Y-49999054D01*
X134365822Y-49992088D01*
X134370128Y-49991986D01*
X134368906Y-49998861D01*
G37*
G36*
X135087775Y-50879808D02*
G01*
X135110258Y-50882399D01*
X135147310Y-50889973D01*
X135176387Y-50901074D01*
X135197836Y-50915852D01*
X135212001Y-50934459D01*
X135218416Y-50952235D01*
X135217173Y-50966953D01*
X135207788Y-50977588D01*
X135190286Y-50984083D01*
X135189430Y-50984226D01*
X135179649Y-50984919D01*
X135162298Y-50985436D01*
X135138682Y-50985765D01*
X135110111Y-50985894D01*
X135077890Y-50985809D01*
X135043329Y-50985499D01*
X135032748Y-50985366D01*
X134992457Y-50984721D01*
X134960088Y-50983835D01*
X134934670Y-50982550D01*
X134915235Y-50980705D01*
X134900815Y-50978139D01*
X134890438Y-50974693D01*
X134883137Y-50970205D01*
X134877943Y-50964515D01*
X134873885Y-50957464D01*
X134872571Y-50954533D01*
X134871325Y-50947301D01*
X134874228Y-50939008D01*
X134882080Y-50926647D01*
X134893893Y-50912998D01*
X134917590Y-50896793D01*
X134948741Y-50885390D01*
X134987433Y-50878772D01*
X135033749Y-50876917D01*
X135087775Y-50879808D01*
G37*
G36*
X135450407Y-50087703D02*
G01*
X135459016Y-50098277D01*
X135478415Y-50120162D01*
X135495253Y-50135494D01*
X135510955Y-50145241D01*
X135526944Y-50150374D01*
X135544644Y-50151862D01*
X135559162Y-50150773D01*
X135582560Y-50143567D01*
X135605234Y-50128970D01*
X135628562Y-50106235D01*
X135640667Y-50093154D01*
X135649043Y-50085772D01*
X135654906Y-50083424D01*
X135659843Y-50085038D01*
X135662749Y-50087572D01*
X135666336Y-50096301D01*
X135666933Y-50111507D01*
X135665883Y-50121305D01*
X135657193Y-50145064D01*
X135640383Y-50166637D01*
X135616113Y-50185309D01*
X135585040Y-50200367D01*
X135580065Y-50202156D01*
X135546161Y-50209088D01*
X135512239Y-50206923D01*
X135478557Y-50195673D01*
X135472124Y-50192530D01*
X135444174Y-50175476D01*
X135424449Y-50156943D01*
X135413171Y-50137290D01*
X135410562Y-50116878D01*
X135416846Y-50096064D01*
X135419609Y-50091425D01*
X135429571Y-50082190D01*
X135440424Y-50080803D01*
X135450407Y-50087703D01*
G37*
G36*
X133718978Y-50475916D02*
G01*
X133719657Y-50477063D01*
X133720791Y-50486234D01*
X133719438Y-50499779D01*
X133716112Y-50514305D01*
X133711327Y-50526413D01*
X133710353Y-50528239D01*
X133705047Y-50538881D01*
X133698286Y-50553121D01*
X133691148Y-50568595D01*
X133684713Y-50582940D01*
X133680061Y-50593792D01*
X133678270Y-50598788D01*
X133677994Y-50599802D01*
X133674604Y-50606805D01*
X133668590Y-50617501D01*
X133666001Y-50621663D01*
X133660008Y-50629502D01*
X133656473Y-50631471D01*
X133655620Y-50628979D01*
X133654760Y-50618919D01*
X133654556Y-50603578D01*
X133654919Y-50585344D01*
X133655757Y-50566604D01*
X133656983Y-50549747D01*
X133658505Y-50537159D01*
X133660236Y-50531230D01*
X133663150Y-50525029D01*
X133664597Y-50514107D01*
X133665797Y-50505286D01*
X133668897Y-50501346D01*
X133669269Y-50501303D01*
X133674563Y-50497087D01*
X133681033Y-50488081D01*
X133687790Y-50480270D01*
X133699086Y-50473779D01*
X133710533Y-50471991D01*
X133718978Y-50475916D01*
G37*
G36*
X134419435Y-50034809D02*
G01*
X134426026Y-50051348D01*
X134428619Y-50060783D01*
X134435981Y-50084075D01*
X134443428Y-50101114D01*
X134452002Y-50113978D01*
X134462742Y-50124749D01*
X134465248Y-50126840D01*
X134490615Y-50142416D01*
X134517108Y-50149050D01*
X134544295Y-50146772D01*
X134571742Y-50135610D01*
X134599017Y-50115595D01*
X134605209Y-50110272D01*
X134618027Y-50102041D01*
X134626667Y-50101768D01*
X134631518Y-50109568D01*
X134632968Y-50125554D01*
X134631078Y-50143915D01*
X134623852Y-50160279D01*
X134616097Y-50168676D01*
X134598847Y-50182095D01*
X134577954Y-50194318D01*
X134556580Y-50203321D01*
X134554965Y-50203830D01*
X134526912Y-50208115D01*
X134496056Y-50205616D01*
X134464706Y-50196957D01*
X134435171Y-50182762D01*
X134409759Y-50163655D01*
X134404051Y-50157975D01*
X134385311Y-50133301D01*
X134374683Y-50107617D01*
X134372296Y-50081910D01*
X134378279Y-50057166D01*
X134392763Y-50034371D01*
X134401348Y-50027307D01*
X134411057Y-50026718D01*
X134419435Y-50034809D01*
G37*
G36*
X136267027Y-49473124D02*
G01*
X136281518Y-49478772D01*
X136297640Y-49486841D01*
X136313713Y-49496530D01*
X136328055Y-49507040D01*
X136338985Y-49517571D01*
X136341687Y-49520803D01*
X136357379Y-49540814D01*
X136369825Y-49558832D01*
X136378024Y-49573306D01*
X136380980Y-49582689D01*
X136380859Y-49587682D01*
X136379298Y-49588844D01*
X136374288Y-49582703D01*
X136370445Y-49577885D01*
X136367821Y-49577369D01*
X136366912Y-49585250D01*
X136366647Y-49593527D01*
X136366966Y-49602342D01*
X136366881Y-49604539D01*
X136362949Y-49608039D01*
X136360888Y-49607398D01*
X136358191Y-49601582D01*
X136357711Y-49598825D01*
X136352494Y-49593133D01*
X136352047Y-49592960D01*
X136350169Y-49589128D01*
X136355479Y-49581359D01*
X136359814Y-49576214D01*
X136361227Y-49572391D01*
X136356580Y-49571577D01*
X136350231Y-49568741D01*
X136338895Y-49560773D01*
X136324178Y-49549020D01*
X136307580Y-49534834D01*
X136290604Y-49519568D01*
X136274752Y-49504572D01*
X136261526Y-49491199D01*
X136252427Y-49480800D01*
X136248958Y-49474726D01*
X136249661Y-49472289D01*
X136255848Y-49470696D01*
X136267027Y-49473124D01*
G37*
G36*
X136421209Y-50048856D02*
G01*
X136422201Y-50050187D01*
X136429149Y-50055442D01*
X136438179Y-50059366D01*
X136446006Y-50060817D01*
X136449345Y-50058650D01*
X136450651Y-50056311D01*
X136457321Y-50057092D01*
X136462045Y-50058649D01*
X136473255Y-50060143D01*
X136476260Y-50060821D01*
X136485086Y-50066672D01*
X136494714Y-50076626D01*
X136502242Y-50086008D01*
X136520494Y-50108954D01*
X136533776Y-50126174D01*
X136542698Y-50138647D01*
X136547867Y-50147353D01*
X136549892Y-50153272D01*
X136549383Y-50157383D01*
X136546948Y-50160666D01*
X136546596Y-50160936D01*
X136539889Y-50161067D01*
X136528994Y-50158096D01*
X136517309Y-50153181D01*
X136508236Y-50147480D01*
X136503313Y-50144028D01*
X136495702Y-50141288D01*
X136493948Y-50141089D01*
X136490364Y-50137713D01*
X136490157Y-50136996D01*
X136485150Y-50131932D01*
X136475552Y-50125435D01*
X136463839Y-50118168D01*
X136454658Y-50110754D01*
X136452617Y-50105339D01*
X136457009Y-50100991D01*
X136459299Y-50099109D01*
X136455610Y-50098114D01*
X136443400Y-50099042D01*
X136438649Y-50099502D01*
X136426257Y-50099377D01*
X136421999Y-50096482D01*
X136419192Y-50090417D01*
X136412024Y-50082216D01*
X136411549Y-50081768D01*
X136406148Y-50075485D01*
X136406327Y-50072853D01*
X136407692Y-50072304D01*
X136404810Y-50069106D01*
X136403301Y-50067920D01*
X136402564Y-50062941D01*
X136408485Y-50054509D01*
X136408493Y-50054499D01*
X136416433Y-50047557D01*
X136421209Y-50048856D01*
G37*
G36*
X136416015Y-50128105D02*
G01*
X136430074Y-50138606D01*
X136448067Y-50152447D01*
X136463018Y-50164356D01*
X136471636Y-50171069D01*
X136485856Y-50180948D01*
X136497201Y-50187473D01*
X136497288Y-50187514D01*
X136510413Y-50198224D01*
X136522530Y-50217782D01*
X136528185Y-50228192D01*
X136534227Y-50236455D01*
X136538069Y-50238257D01*
X136539814Y-50237676D01*
X136539160Y-50242513D01*
X136538653Y-50245099D01*
X136539289Y-50256159D01*
X136542418Y-50269859D01*
X136544444Y-50276642D01*
X136550673Y-50301196D01*
X136555131Y-50324786D01*
X136557674Y-50345852D01*
X136558159Y-50362831D01*
X136556442Y-50374164D01*
X136552381Y-50378288D01*
X136552149Y-50378291D01*
X136545530Y-50381871D01*
X136541690Y-50392752D01*
X136540354Y-50411704D01*
X136540295Y-50416647D01*
X136539676Y-50425328D01*
X136537707Y-50426633D01*
X136533517Y-50421855D01*
X136529392Y-50415171D01*
X136526826Y-50407269D01*
X136526268Y-50404506D01*
X136520883Y-50397885D01*
X136520062Y-50397297D01*
X136513759Y-50389371D01*
X136507027Y-50376978D01*
X136501667Y-50363838D01*
X136499480Y-50353672D01*
X136498706Y-50350084D01*
X136493551Y-50346384D01*
X136491138Y-50345369D01*
X136484645Y-50338406D01*
X136477623Y-50327014D01*
X136473787Y-50319801D01*
X136454974Y-50288943D01*
X136434087Y-50260691D01*
X136413364Y-50238139D01*
X136412179Y-50237007D01*
X136406373Y-50230529D01*
X136405809Y-50227884D01*
X136405526Y-50225309D01*
X136401026Y-50217231D01*
X136393145Y-50205563D01*
X136392282Y-50204349D01*
X136379302Y-50182257D01*
X136370564Y-50159869D01*
X136367332Y-50140384D01*
X136367375Y-50139638D01*
X136370916Y-50130802D01*
X136378414Y-50120658D01*
X136389521Y-50108673D01*
X136416015Y-50128105D01*
G37*
G36*
X133839789Y-50818804D02*
G01*
X133832960Y-50828741D01*
X133830195Y-50831978D01*
X133826806Y-50838177D01*
X133825088Y-50846838D01*
X133824716Y-50860169D01*
X133825365Y-50880381D01*
X133826307Y-50897153D01*
X133828095Y-50912853D01*
X133830798Y-50922404D01*
X133834752Y-50927498D01*
X133839125Y-50931232D01*
X133842347Y-50935968D01*
X133842225Y-50936638D01*
X133837789Y-50938884D01*
X133836212Y-50938544D01*
X133833232Y-50933415D01*
X133832427Y-50930397D01*
X133828119Y-50933059D01*
X133821607Y-50936157D01*
X133813946Y-50934046D01*
X133810443Y-50927002D01*
X133809829Y-50924273D01*
X133804154Y-50920653D01*
X133801599Y-50919519D01*
X133797869Y-50911235D01*
X133795262Y-50894446D01*
X133792734Y-50869587D01*
X133790101Y-50845907D01*
X133787808Y-50828735D01*
X133785629Y-50816645D01*
X133784764Y-50813456D01*
X133834205Y-50813456D01*
X133834751Y-50818865D01*
X133836122Y-50819578D01*
X133837789Y-50815826D01*
X133837460Y-50813414D01*
X133834751Y-50812788D01*
X133834205Y-50813456D01*
X133784764Y-50813456D01*
X133783341Y-50808213D01*
X133780720Y-50802012D01*
X133777586Y-50793497D01*
X133779246Y-50782498D01*
X133781583Y-50775846D01*
X133782315Y-50763864D01*
X133782296Y-50763711D01*
X133784088Y-50755563D01*
X133785780Y-50756207D01*
X133790369Y-50751314D01*
X133791478Y-50748767D01*
X133788359Y-50749305D01*
X133786334Y-50750712D01*
X133784736Y-50752615D01*
X133784921Y-50751772D01*
X133794542Y-50737481D01*
X133800924Y-50730500D01*
X133812820Y-50720564D01*
X133821057Y-50718929D01*
X133825674Y-50725580D01*
X133828579Y-50731363D01*
X133835475Y-50732153D01*
X133839165Y-50731286D01*
X133840276Y-50733451D01*
X133839704Y-50735080D01*
X133842879Y-50739283D01*
X133843832Y-50740171D01*
X133846099Y-50747474D01*
X133847758Y-50759713D01*
X133848683Y-50774093D01*
X133848744Y-50787821D01*
X133847815Y-50798106D01*
X133845765Y-50802155D01*
X133843915Y-50803477D01*
X133842347Y-50810409D01*
X133840696Y-50815826D01*
X133839789Y-50818804D01*
G37*
G36*
X134672065Y-51324207D02*
G01*
X134678625Y-51329382D01*
X134689855Y-51334372D01*
X134706029Y-51337061D01*
X134707385Y-51337237D01*
X134718629Y-51339754D01*
X134732147Y-51343861D01*
X134735377Y-51344898D01*
X134746838Y-51347321D01*
X134753796Y-51346852D01*
X134755654Y-51346131D01*
X134758442Y-51349076D01*
X134758961Y-51350994D01*
X134763510Y-51351040D01*
X134765714Y-51350158D01*
X134771486Y-51352165D01*
X134772571Y-51353259D01*
X134780096Y-51358714D01*
X134792771Y-51366840D01*
X134808577Y-51376322D01*
X134822243Y-51384248D01*
X134853963Y-51402178D01*
X134880439Y-51415989D01*
X134903465Y-51426216D01*
X134924834Y-51433396D01*
X134946340Y-51438064D01*
X134969778Y-51440756D01*
X134996942Y-51442008D01*
X135029625Y-51442357D01*
X135053486Y-51442313D01*
X135076611Y-51441870D01*
X135094399Y-51440803D01*
X135108943Y-51438906D01*
X135122338Y-51435971D01*
X135136675Y-51431793D01*
X135150334Y-51427298D01*
X135177941Y-51416739D01*
X135199940Y-51406162D01*
X135214642Y-51396336D01*
X135220346Y-51392936D01*
X135233110Y-51387763D01*
X135248797Y-51382962D01*
X135259906Y-51379661D01*
X135279464Y-51372408D01*
X135295657Y-51364796D01*
X135310130Y-51357654D01*
X135325083Y-51353626D01*
X135334191Y-51356271D01*
X135337269Y-51365586D01*
X135337451Y-51371249D01*
X135339391Y-51374747D01*
X135344955Y-51371283D01*
X135347456Y-51369359D01*
X135351124Y-51367865D01*
X135349930Y-51371707D01*
X135344723Y-51379745D01*
X135336349Y-51390835D01*
X135325655Y-51403835D01*
X135313486Y-51417604D01*
X135300691Y-51430998D01*
X135290951Y-51440437D01*
X135253679Y-51470970D01*
X135213843Y-51494532D01*
X135169583Y-51512078D01*
X135119042Y-51524567D01*
X135109449Y-51526161D01*
X135083990Y-51528703D01*
X135052573Y-51529732D01*
X135013673Y-51529318D01*
X135012199Y-51529279D01*
X134968248Y-51527047D01*
X134931127Y-51522655D01*
X134898770Y-51515662D01*
X134869116Y-51505625D01*
X134840101Y-51492101D01*
X134838967Y-51491503D01*
X134803654Y-51469676D01*
X134767210Y-51441693D01*
X134732010Y-51409704D01*
X134700429Y-51375863D01*
X134674840Y-51342321D01*
X134674770Y-51342216D01*
X134666467Y-51328660D01*
X134663188Y-51320744D01*
X134665024Y-51319062D01*
X134672065Y-51324207D01*
G37*
G36*
X136060322Y-48296658D02*
G01*
X136077439Y-48301126D01*
X136093882Y-48310588D01*
X136112734Y-48326186D01*
X136132409Y-48347318D01*
X136154629Y-48379108D01*
X136176124Y-48418171D01*
X136196362Y-48463526D01*
X136214811Y-48514193D01*
X136220927Y-48532799D01*
X136229015Y-48557288D01*
X136236390Y-48579496D01*
X136241994Y-48596232D01*
X136248240Y-48614828D01*
X136254584Y-48634190D01*
X136258723Y-48647816D01*
X136261115Y-48657369D01*
X136262215Y-48664515D01*
X136262480Y-48670918D01*
X136263575Y-48680863D01*
X136267324Y-48692478D01*
X136269718Y-48699216D01*
X136270404Y-48711549D01*
X136269486Y-48716396D01*
X136267958Y-48718697D01*
X136265228Y-48712453D01*
X136262893Y-48706597D01*
X136258324Y-48696501D01*
X136255903Y-48690561D01*
X136251546Y-48677910D01*
X136246666Y-48662318D01*
X136245047Y-48656942D01*
X136235295Y-48626171D01*
X136225217Y-48596735D01*
X136215694Y-48571128D01*
X136207609Y-48551844D01*
X136204978Y-48545956D01*
X136200459Y-48534581D01*
X136198672Y-48528027D01*
X136197204Y-48523340D01*
X136192484Y-48511915D01*
X136185284Y-48495757D01*
X136176400Y-48476704D01*
X136165957Y-48455766D01*
X136148368Y-48424817D01*
X136131191Y-48399728D01*
X136115117Y-48381468D01*
X136100841Y-48371007D01*
X136093951Y-48368442D01*
X136079453Y-48365264D01*
X136063259Y-48363463D01*
X136048025Y-48363169D01*
X136036401Y-48364510D01*
X136031041Y-48367615D01*
X136029227Y-48370190D01*
X136021682Y-48372981D01*
X136019616Y-48373248D01*
X136008729Y-48377440D01*
X135993139Y-48385802D01*
X135974699Y-48397154D01*
X135955259Y-48410315D01*
X135936672Y-48424103D01*
X135920791Y-48437337D01*
X135919912Y-48438129D01*
X135904162Y-48452087D01*
X135888637Y-48465459D01*
X135876579Y-48475453D01*
X135872489Y-48478795D01*
X135857307Y-48492082D01*
X135843327Y-48505370D01*
X135833646Y-48514828D01*
X135818543Y-48529007D01*
X135803365Y-48542771D01*
X135789292Y-48555859D01*
X135765445Y-48579775D01*
X135736624Y-48610285D01*
X135703170Y-48647028D01*
X135665423Y-48689639D01*
X135655613Y-48700823D01*
X135630670Y-48729013D01*
X135610341Y-48751479D01*
X135593701Y-48769155D01*
X135579822Y-48782978D01*
X135567777Y-48793883D01*
X135556640Y-48802806D01*
X135545483Y-48810681D01*
X135544581Y-48811282D01*
X135530830Y-48820067D01*
X135520048Y-48826303D01*
X135514499Y-48828674D01*
X135509317Y-48826234D01*
X135501346Y-48819559D01*
X135493711Y-48813423D01*
X135486506Y-48810443D01*
X135480749Y-48807092D01*
X135475351Y-48797696D01*
X135472171Y-48785549D01*
X135472489Y-48773982D01*
X135475576Y-48765500D01*
X135482211Y-48754584D01*
X135485923Y-48748866D01*
X135486209Y-48743653D01*
X135486081Y-48740476D01*
X135489231Y-48731162D01*
X135495377Y-48718504D01*
X135501411Y-48708774D01*
X135518294Y-48687768D01*
X135539505Y-48666830D01*
X135562465Y-48648645D01*
X135569356Y-48643508D01*
X135582377Y-48633208D01*
X135598654Y-48619948D01*
X135616175Y-48605347D01*
X135628669Y-48594815D01*
X135649435Y-48577305D01*
X135669209Y-48560630D01*
X135685002Y-48547309D01*
X135686228Y-48546279D01*
X135701464Y-48533824D01*
X135721317Y-48518035D01*
X135743353Y-48500832D01*
X135765138Y-48484133D01*
X135777373Y-48474631D01*
X135801618Y-48454961D01*
X135828484Y-48432354D01*
X135855487Y-48408915D01*
X135880144Y-48386746D01*
X135906730Y-48362780D01*
X135933074Y-48340566D01*
X135955618Y-48323785D01*
X135975591Y-48311709D01*
X135994223Y-48303608D01*
X136012742Y-48298753D01*
X136032377Y-48296415D01*
X136039450Y-48296044D01*
X136060322Y-48296658D01*
G37*
G36*
X136192112Y-48790460D02*
G01*
X136198630Y-48853242D01*
X136199780Y-48927622D01*
X136193466Y-48998509D01*
X136179731Y-49064974D01*
X136175704Y-49078093D01*
X136167957Y-49099628D01*
X136158319Y-49123843D01*
X136147624Y-49148862D01*
X136136707Y-49172811D01*
X136126400Y-49193816D01*
X136117540Y-49210002D01*
X136110959Y-49219496D01*
X136110639Y-49219840D01*
X136105358Y-49227193D01*
X136107341Y-49229751D01*
X136108003Y-49229689D01*
X136115375Y-49225843D01*
X136124339Y-49217849D01*
X136125975Y-49216154D01*
X136133735Y-49209971D01*
X136138528Y-49209106D01*
X136138332Y-49212886D01*
X136132578Y-49219030D01*
X136127194Y-49223331D01*
X136128207Y-49224426D01*
X136137143Y-49222547D01*
X136148866Y-49219409D01*
X136161602Y-49215321D01*
X136165254Y-49214285D01*
X136177995Y-49211833D01*
X136195818Y-49209204D01*
X136216062Y-49206813D01*
X136225583Y-49205715D01*
X136244083Y-49202829D01*
X136257296Y-49199670D01*
X136263318Y-49196647D01*
X136265994Y-49193737D01*
X136267507Y-49197847D01*
X136267692Y-49200829D01*
X136267446Y-49208494D01*
X136268886Y-49211247D01*
X136276043Y-49214728D01*
X136278489Y-49215631D01*
X136278983Y-49218274D01*
X136272787Y-49222666D01*
X136259000Y-49229594D01*
X136257879Y-49230130D01*
X136243230Y-49237840D01*
X136225236Y-49248261D01*
X136205294Y-49260472D01*
X136184801Y-49273548D01*
X136165151Y-49286567D01*
X136147742Y-49298604D01*
X136133970Y-49308736D01*
X136125230Y-49316041D01*
X136122919Y-49319594D01*
X136123525Y-49319700D01*
X136130401Y-49317775D01*
X136143495Y-49312775D01*
X136161235Y-49305326D01*
X136182047Y-49296055D01*
X136200934Y-49287571D01*
X136219981Y-49279609D01*
X136233185Y-49275092D01*
X136241833Y-49273601D01*
X136247214Y-49274712D01*
X136259721Y-49281092D01*
X136281881Y-49289443D01*
X136303491Y-49292997D01*
X136309277Y-49293441D01*
X136322505Y-49295222D01*
X136329072Y-49298055D01*
X136330845Y-49302596D01*
X136330598Y-49303075D01*
X136324582Y-49305162D01*
X136312160Y-49307061D01*
X136295523Y-49308412D01*
X136274159Y-49309777D01*
X136257812Y-49311806D01*
X136244126Y-49315294D01*
X136229818Y-49321088D01*
X136211604Y-49330035D01*
X136190772Y-49339626D01*
X136165537Y-49347371D01*
X136142158Y-49349093D01*
X136118142Y-49345196D01*
X136114758Y-49344333D01*
X136098226Y-49340892D01*
X136088129Y-49340120D01*
X136085099Y-49341767D01*
X136089768Y-49345581D01*
X136102767Y-49351310D01*
X136113581Y-49355806D01*
X136124379Y-49361353D01*
X136129158Y-49365314D01*
X136127941Y-49367862D01*
X136119113Y-49372159D01*
X136102683Y-49376853D01*
X136079533Y-49381707D01*
X136050547Y-49386483D01*
X136014086Y-49391855D01*
X136038856Y-49405375D01*
X136050305Y-49412103D01*
X136060663Y-49419331D01*
X136065296Y-49424152D01*
X136065296Y-49425326D01*
X136060132Y-49429360D01*
X136048502Y-49432528D01*
X136044128Y-49433365D01*
X136034060Y-49436273D01*
X136030038Y-49439092D01*
X136029266Y-49439644D01*
X136021958Y-49439822D01*
X136008587Y-49438541D01*
X135991191Y-49435966D01*
X135980924Y-49434313D01*
X135960399Y-49431893D01*
X135947519Y-49432137D01*
X135941487Y-49435126D01*
X135941508Y-49440939D01*
X135941743Y-49441484D01*
X135949281Y-49448666D01*
X135963704Y-49455476D01*
X135982954Y-49461137D01*
X136004970Y-49464873D01*
X136017286Y-49466296D01*
X136031961Y-49468152D01*
X136041239Y-49469525D01*
X136042798Y-49469717D01*
X136054084Y-49469109D01*
X136067777Y-49466406D01*
X136076970Y-49464916D01*
X136098330Y-49465403D01*
X136123914Y-49469551D01*
X136151298Y-49476908D01*
X136178057Y-49487020D01*
X136190678Y-49492585D01*
X136200886Y-49496807D01*
X136205583Y-49497894D01*
X136206378Y-49496135D01*
X136204878Y-49491818D01*
X136204154Y-49487367D01*
X136208272Y-49485430D01*
X136218828Y-49488469D01*
X136236367Y-49496567D01*
X136239786Y-49498321D01*
X136265097Y-49514209D01*
X136288404Y-49534801D01*
X136312028Y-49562107D01*
X136312854Y-49563156D01*
X136323083Y-49575313D01*
X136331299Y-49583660D01*
X136335792Y-49586444D01*
X136337367Y-49586756D01*
X136337165Y-49591789D01*
X136338109Y-49598892D01*
X136344166Y-49607686D01*
X136350938Y-49615614D01*
X136353384Y-49621598D01*
X136349968Y-49622495D01*
X136341100Y-49617050D01*
X136333875Y-49611760D01*
X136329101Y-49610364D01*
X136327093Y-49614440D01*
X136326382Y-49616861D01*
X136323192Y-49620287D01*
X136316727Y-49620912D01*
X136305721Y-49618520D01*
X136288906Y-49612895D01*
X136265014Y-49603818D01*
X136248824Y-49597691D01*
X136220818Y-49587757D01*
X136191101Y-49577857D01*
X136161720Y-49568630D01*
X136134724Y-49560710D01*
X136112161Y-49554734D01*
X136096078Y-49551338D01*
X136094558Y-49551104D01*
X136084531Y-49549896D01*
X136082177Y-49550858D01*
X136086347Y-49554345D01*
X136090655Y-49557360D01*
X136101792Y-49565231D01*
X136116972Y-49576005D01*
X136134203Y-49588270D01*
X136145334Y-49595964D01*
X136164360Y-49608176D01*
X136181521Y-49618136D01*
X136194114Y-49624222D01*
X136198510Y-49626046D01*
X136217281Y-49635586D01*
X136241182Y-49649641D01*
X136268766Y-49667197D01*
X136298585Y-49687246D01*
X136329194Y-49708774D01*
X136359144Y-49730771D01*
X136386988Y-49752225D01*
X136411280Y-49772125D01*
X136430571Y-49789461D01*
X136440257Y-49798507D01*
X136455261Y-49812002D01*
X136470507Y-49825287D01*
X136474833Y-49829138D01*
X136489860Y-49844346D01*
X136505882Y-49862785D01*
X136521693Y-49882810D01*
X136536089Y-49902773D01*
X136547864Y-49921028D01*
X136555812Y-49935928D01*
X136558730Y-49945826D01*
X136558438Y-49948031D01*
X136556082Y-49949085D01*
X136550412Y-49946027D01*
X136540304Y-49938162D01*
X136524633Y-49924798D01*
X136521723Y-49922290D01*
X136509738Y-49912371D01*
X136501160Y-49905940D01*
X136497685Y-49904289D01*
X136497597Y-49904437D01*
X136493737Y-49902754D01*
X136486258Y-49896572D01*
X136474309Y-49887455D01*
X136454754Y-49875908D01*
X136432133Y-49864833D01*
X136409546Y-49855730D01*
X136390095Y-49850096D01*
X136378567Y-49847486D01*
X136354853Y-49841198D01*
X136326953Y-49833021D01*
X136297536Y-49823777D01*
X136269271Y-49814287D01*
X136244825Y-49805373D01*
X136229608Y-49799728D01*
X136215381Y-49794890D01*
X136206420Y-49792362D01*
X136200568Y-49790624D01*
X136192398Y-49785895D01*
X136190290Y-49784192D01*
X136181897Y-49781231D01*
X136178398Y-49780506D01*
X136167048Y-49775057D01*
X136151263Y-49765191D01*
X136132633Y-49752002D01*
X136112746Y-49736587D01*
X136093189Y-49720042D01*
X136068648Y-49700406D01*
X136046469Y-49687755D01*
X136026214Y-49682234D01*
X136006732Y-49683354D01*
X136000417Y-49684408D01*
X135984171Y-49685805D01*
X135966774Y-49686101D01*
X135943678Y-49687305D01*
X135923748Y-49693529D01*
X135908910Y-49705746D01*
X135897617Y-49724822D01*
X135892495Y-49735562D01*
X135886719Y-49745494D01*
X135882962Y-49749327D01*
X135881964Y-49749485D01*
X135881462Y-49753156D01*
X135881619Y-49755708D01*
X135878867Y-49764736D01*
X135873130Y-49776986D01*
X135862432Y-49796987D01*
X135881288Y-49818123D01*
X135886979Y-49825013D01*
X135899090Y-49841590D01*
X135912373Y-49861571D01*
X135924833Y-49882028D01*
X135932409Y-49895615D01*
X135943424Y-49918858D01*
X135949066Y-49938015D01*
X135949770Y-49954926D01*
X135945971Y-49971433D01*
X135944778Y-49975854D01*
X135946560Y-49981920D01*
X135955465Y-49986668D01*
X135958191Y-49987542D01*
X135974013Y-49989455D01*
X135996327Y-49988907D01*
X136023335Y-49986005D01*
X136053238Y-49980856D01*
X136070717Y-49979001D01*
X136093619Y-49980376D01*
X136121096Y-49985536D01*
X136153973Y-49994681D01*
X136193077Y-50008011D01*
X136239234Y-50025725D01*
X136245195Y-50028136D01*
X136260217Y-50034212D01*
X136295474Y-50049090D01*
X136322090Y-50061299D01*
X136340108Y-50070862D01*
X136349569Y-50077798D01*
X136350517Y-50082131D01*
X136348893Y-50083000D01*
X136339708Y-50086055D01*
X136324402Y-50090286D01*
X136304911Y-50095226D01*
X136283165Y-50100408D01*
X136261100Y-50105367D01*
X136240647Y-50109634D01*
X136223739Y-50112743D01*
X136200951Y-50116477D01*
X136244249Y-50143139D01*
X136258412Y-50151962D01*
X136295840Y-50176603D01*
X136327001Y-50199512D01*
X136353534Y-50221951D01*
X136377079Y-50245176D01*
X136391002Y-50260737D01*
X136405470Y-50279002D01*
X136415743Y-50294596D01*
X136421034Y-50306297D01*
X136420560Y-50312881D01*
X136420503Y-50312932D01*
X136414451Y-50313886D01*
X136401202Y-50313809D01*
X136382539Y-50312865D01*
X136360243Y-50311214D01*
X136336094Y-50309018D01*
X136311873Y-50306439D01*
X136289364Y-50303637D01*
X136270345Y-50300775D01*
X136256600Y-50298015D01*
X136247489Y-50296036D01*
X136228899Y-50293783D01*
X136214345Y-50294324D01*
X136198480Y-50297300D01*
X136215819Y-50316145D01*
X136225182Y-50326954D01*
X136231028Y-50334374D01*
X136240804Y-50346781D01*
X136244975Y-50352461D01*
X136257780Y-50369900D01*
X136274684Y-50394242D01*
X136290092Y-50417737D01*
X136302577Y-50438317D01*
X136310715Y-50453911D01*
X136326501Y-50496600D01*
X136336487Y-50539379D01*
X136339961Y-50579316D01*
X136339875Y-50589799D01*
X136338625Y-50607579D01*
X136334944Y-50617342D01*
X136327646Y-50619832D01*
X136315543Y-50615795D01*
X136297449Y-50605974D01*
X136283855Y-50598238D01*
X136249512Y-50580442D01*
X136219888Y-50568131D01*
X136193545Y-50560766D01*
X136169047Y-50557809D01*
X136153113Y-50556511D01*
X136128440Y-50552802D01*
X136106379Y-50547801D01*
X136105018Y-50547415D01*
X136090152Y-50543422D01*
X136079616Y-50540999D01*
X136075615Y-50540659D01*
X136077305Y-50543592D01*
X136083230Y-50552010D01*
X136091945Y-50563681D01*
X136097721Y-50571824D01*
X136110452Y-50592455D01*
X136124261Y-50617509D01*
X136137756Y-50644284D01*
X136149544Y-50670084D01*
X136158235Y-50692207D01*
X136160780Y-50700326D01*
X136165563Y-50717916D01*
X136170914Y-50739604D01*
X136176358Y-50763236D01*
X136181419Y-50786658D01*
X136185623Y-50807717D01*
X136188494Y-50824259D01*
X136189557Y-50834130D01*
X136189542Y-50835132D01*
X136188092Y-50840919D01*
X136183608Y-50842201D01*
X136175140Y-50838596D01*
X136161737Y-50829722D01*
X136142450Y-50815199D01*
X136139259Y-50812756D01*
X136123770Y-50801468D01*
X136105406Y-50788751D01*
X136085647Y-50775551D01*
X136065974Y-50762815D01*
X136047866Y-50751489D01*
X136032805Y-50742522D01*
X136022271Y-50736859D01*
X136017744Y-50735447D01*
X136017715Y-50735489D01*
X136018743Y-50740376D01*
X136022432Y-50751318D01*
X136028019Y-50766042D01*
X136029497Y-50769940D01*
X136035151Y-50786860D01*
X136041675Y-50808678D01*
X136048568Y-50833447D01*
X136055329Y-50859221D01*
X136061459Y-50884054D01*
X136066458Y-50906000D01*
X136069824Y-50923111D01*
X136071057Y-50933442D01*
X136070729Y-50938753D01*
X136067503Y-50942588D01*
X136058523Y-50941441D01*
X136057517Y-50941181D01*
X136046446Y-50937344D01*
X136030688Y-50930907D01*
X136013309Y-50923113D01*
X136009051Y-50921139D01*
X135994225Y-50914689D01*
X135983384Y-50910631D01*
X135978628Y-50909774D01*
X135978208Y-50911552D01*
X135977870Y-50920718D01*
X135978091Y-50935724D01*
X135978861Y-50954457D01*
X135979049Y-50959773D01*
X135979570Y-50974488D01*
X135979016Y-50991027D01*
X135978927Y-50993671D01*
X135976265Y-51010808D01*
X135974165Y-51018643D01*
X135971196Y-51029723D01*
X135970952Y-51030519D01*
X135964733Y-51048015D01*
X135956535Y-51067541D01*
X135947400Y-51086986D01*
X135938370Y-51104239D01*
X135930487Y-51117190D01*
X135924793Y-51123729D01*
X135924653Y-51123809D01*
X135920163Y-51121814D01*
X135915404Y-51112418D01*
X135910986Y-51097239D01*
X135907518Y-51077893D01*
X135904474Y-51055105D01*
X135889033Y-51083793D01*
X135883797Y-51092945D01*
X135872824Y-51109846D01*
X135860901Y-51126094D01*
X135849451Y-51139906D01*
X135839900Y-51149501D01*
X135833670Y-51153095D01*
X135832287Y-51151871D01*
X135830266Y-51144069D01*
X135829449Y-51131446D01*
X135829378Y-51126705D01*
X135828326Y-51108183D01*
X135826430Y-51091818D01*
X135823461Y-51073838D01*
X135815304Y-51103614D01*
X135811615Y-51115069D01*
X135800334Y-51141544D01*
X135784357Y-51172263D01*
X135764595Y-51205541D01*
X135741954Y-51239691D01*
X135741429Y-51240444D01*
X135729815Y-51257849D01*
X135719047Y-51275201D01*
X135711393Y-51288848D01*
X135710597Y-51290400D01*
X135703086Y-51302077D01*
X135697479Y-51304851D01*
X135693938Y-51298764D01*
X135692624Y-51283860D01*
X135692434Y-51279963D01*
X135690125Y-51267564D01*
X135686074Y-51256633D01*
X135681394Y-51249672D01*
X135677199Y-51249184D01*
X135677121Y-51249276D01*
X135674201Y-51254508D01*
X135668230Y-51266184D01*
X135660037Y-51282663D01*
X135650448Y-51302303D01*
X135640681Y-51322263D01*
X135630818Y-51341536D01*
X135623365Y-51354531D01*
X135617575Y-51362393D01*
X135612699Y-51366269D01*
X135607986Y-51367307D01*
X135605477Y-51366579D01*
X135598555Y-51359285D01*
X135591241Y-51345662D01*
X135584434Y-51327582D01*
X135579031Y-51306917D01*
X135576266Y-51295351D01*
X135572761Y-51284785D01*
X135569970Y-51280711D01*
X135569247Y-51281004D01*
X135566126Y-51286840D01*
X135563397Y-51297802D01*
X135563025Y-51299812D01*
X135556620Y-51321445D01*
X135546092Y-51345924D01*
X135533168Y-51369652D01*
X135519577Y-51389033D01*
X135512971Y-51396664D01*
X135504984Y-51404979D01*
X135500658Y-51408244D01*
X135500457Y-51408173D01*
X135499145Y-51403016D01*
X135498358Y-51391300D01*
X135498259Y-51375283D01*
X135498128Y-51357535D01*
X135497047Y-51334466D01*
X135495222Y-51314893D01*
X135494024Y-51305169D01*
X135493549Y-51293756D01*
X135495507Y-51284195D01*
X135500724Y-51273310D01*
X135510027Y-51257922D01*
X135512241Y-51254317D01*
X135522984Y-51235850D01*
X135533939Y-51215696D01*
X135544150Y-51195768D01*
X135552658Y-51177983D01*
X135558508Y-51164253D01*
X135560741Y-51156494D01*
X135562228Y-51151168D01*
X135567515Y-51142054D01*
X135569756Y-51138214D01*
X135575100Y-51126173D01*
X135581598Y-51109191D01*
X135588309Y-51089640D01*
X135592367Y-51077468D01*
X135598609Y-51059994D01*
X135603817Y-51046877D01*
X135607159Y-51040293D01*
X135609284Y-51036303D01*
X135605010Y-51034595D01*
X135601768Y-51034919D01*
X135595950Y-51038248D01*
X135590936Y-51046334D01*
X135585997Y-51060596D01*
X135580403Y-51082451D01*
X135579239Y-51087180D01*
X135565691Y-51127597D01*
X135546410Y-51167719D01*
X135522990Y-51204621D01*
X135497026Y-51235382D01*
X135490027Y-51242113D01*
X135470034Y-51259434D01*
X135447211Y-51277192D01*
X135423466Y-51294066D01*
X135400709Y-51308735D01*
X135380848Y-51319879D01*
X135365791Y-51326177D01*
X135359232Y-51327794D01*
X135343187Y-51331034D01*
X135322760Y-51334637D01*
X135300807Y-51338078D01*
X135294561Y-51338951D01*
X135263935Y-51341941D01*
X135232064Y-51342720D01*
X135197068Y-51341217D01*
X135157064Y-51337365D01*
X135110173Y-51331094D01*
X135056971Y-51323260D01*
X135058441Y-51305472D01*
X135058721Y-51302723D01*
X135061330Y-51289899D01*
X135065050Y-51281492D01*
X135067058Y-51279823D01*
X135076373Y-51273988D01*
X135091527Y-51265459D01*
X135110965Y-51255099D01*
X135133131Y-51243769D01*
X135150275Y-51235017D01*
X135179786Y-51218739D01*
X135202671Y-51203926D01*
X135220266Y-51189554D01*
X135233909Y-51174598D01*
X135244934Y-51158034D01*
X135248438Y-51152027D01*
X135259095Y-51134500D01*
X135269079Y-51118913D01*
X135278654Y-51102042D01*
X135290405Y-51072625D01*
X135299047Y-51039951D01*
X135302267Y-51018643D01*
X135606173Y-51018643D01*
X135608451Y-51020922D01*
X135610730Y-51018643D01*
X135608451Y-51016365D01*
X135606173Y-51018643D01*
X135302267Y-51018643D01*
X135304069Y-51006715D01*
X135304399Y-50995213D01*
X135615905Y-50995213D01*
X135616441Y-51000806D01*
X135618199Y-51000773D01*
X135621669Y-50995399D01*
X135622875Y-50991027D01*
X135622339Y-50985435D01*
X135620581Y-50985468D01*
X135617111Y-50990842D01*
X135615905Y-50995213D01*
X135304399Y-50995213D01*
X135304961Y-50975610D01*
X135304035Y-50969117D01*
X135621513Y-50969117D01*
X135621843Y-50974210D01*
X135625923Y-50972307D01*
X135627598Y-50968885D01*
X135628672Y-50959773D01*
X135628410Y-50955007D01*
X135627206Y-50953998D01*
X135624017Y-50961195D01*
X135621513Y-50969117D01*
X135304035Y-50969117D01*
X135301212Y-50949330D01*
X135290797Y-50925197D01*
X135272308Y-50900685D01*
X135247671Y-50878662D01*
X135218412Y-50860481D01*
X135186060Y-50847490D01*
X135178892Y-50845476D01*
X135139807Y-50837667D01*
X135095458Y-50833115D01*
X135048165Y-50831753D01*
X135000250Y-50833509D01*
X134954033Y-50838314D01*
X134911836Y-50846098D01*
X134875979Y-50856792D01*
X134863408Y-50862204D01*
X134833579Y-50880578D01*
X134808574Y-50904096D01*
X134790474Y-50930952D01*
X134786949Y-50938233D01*
X134780523Y-50954685D01*
X134777456Y-50970774D01*
X134776673Y-50991198D01*
X134777846Y-51014807D01*
X134783965Y-51047796D01*
X134795865Y-51080967D01*
X134802606Y-51093845D01*
X134814163Y-51115921D01*
X134839477Y-51154259D01*
X134848653Y-51166513D01*
X134877096Y-51197477D01*
X134908900Y-51221578D01*
X134946129Y-51240486D01*
X134949445Y-51241885D01*
X134975977Y-51255166D01*
X134994750Y-51268796D01*
X135005325Y-51282381D01*
X135007263Y-51295523D01*
X135006482Y-51300380D01*
X135007708Y-51306577D01*
X135014345Y-51308057D01*
X135016429Y-51308090D01*
X135021176Y-51309639D01*
X135018231Y-51314893D01*
X135014302Y-51318530D01*
X135006658Y-51321730D01*
X135004463Y-51322040D01*
X134999176Y-51326482D01*
X134996634Y-51328848D01*
X134985465Y-51332443D01*
X134966012Y-51335719D01*
X134938785Y-51338613D01*
X134904296Y-51341063D01*
X134863055Y-51343008D01*
X134824277Y-51343782D01*
X134786790Y-51342571D01*
X134754896Y-51338921D01*
X134726840Y-51332623D01*
X134700870Y-51323464D01*
X134698438Y-51322500D01*
X134687453Y-51319433D01*
X134680726Y-51319597D01*
X134676630Y-51319795D01*
X134669289Y-51315266D01*
X134662877Y-51309886D01*
X134650971Y-51301083D01*
X134636712Y-51291273D01*
X134602331Y-51263691D01*
X134570221Y-51228258D01*
X134542144Y-51186871D01*
X134519285Y-51141045D01*
X134516385Y-51134087D01*
X134510247Y-51119540D01*
X134506264Y-51111295D01*
X134503337Y-51107836D01*
X134500371Y-51107645D01*
X134496269Y-51109207D01*
X134494529Y-51110012D01*
X134492436Y-51113354D01*
X134494940Y-51119830D01*
X134502608Y-51131419D01*
X134503211Y-51132282D01*
X134519014Y-51162914D01*
X134526978Y-51197287D01*
X134526977Y-51234315D01*
X134518887Y-51272909D01*
X134518506Y-51274139D01*
X134512667Y-51295152D01*
X134507778Y-51316400D01*
X134504863Y-51333462D01*
X134503438Y-51342910D01*
X134500361Y-51353730D01*
X134496868Y-51356923D01*
X134495527Y-51356002D01*
X134489907Y-51348441D01*
X134482013Y-51334862D01*
X134472690Y-51317033D01*
X134462784Y-51296723D01*
X134453140Y-51275699D01*
X134444605Y-51255728D01*
X134438024Y-51238578D01*
X134434244Y-51226018D01*
X134431178Y-51212800D01*
X134425798Y-51196585D01*
X134418808Y-51187610D01*
X134408583Y-51185103D01*
X134393494Y-51188288D01*
X134371915Y-51196393D01*
X134357570Y-51201799D01*
X134343789Y-51206128D01*
X134335222Y-51207788D01*
X134335057Y-51207784D01*
X134327650Y-51204167D01*
X134316821Y-51194889D01*
X134304481Y-51181581D01*
X134291790Y-51166755D01*
X134277740Y-51150753D01*
X134266326Y-51138161D01*
X134266268Y-51138098D01*
X134252080Y-51120060D01*
X134237386Y-51096735D01*
X134234592Y-51091475D01*
X134495070Y-51091475D01*
X134495616Y-51096884D01*
X134496987Y-51097597D01*
X134498654Y-51093845D01*
X134498325Y-51091433D01*
X134495616Y-51090807D01*
X134495070Y-51091475D01*
X134234592Y-51091475D01*
X134223805Y-51071166D01*
X134212954Y-51046400D01*
X134206451Y-51025480D01*
X134201168Y-51000413D01*
X134194832Y-51018533D01*
X134190121Y-51030834D01*
X134184990Y-51039337D01*
X134179812Y-51040538D01*
X134173447Y-51035333D01*
X134170517Y-51030892D01*
X134165247Y-51016584D01*
X134160908Y-50996742D01*
X134157957Y-50973726D01*
X134156854Y-50949898D01*
X134156671Y-50941509D01*
X134155696Y-50929801D01*
X134154168Y-50924070D01*
X134153329Y-50923722D01*
X134146536Y-50925315D01*
X134136185Y-50930451D01*
X134120861Y-50939492D01*
X134111396Y-50920939D01*
X134101931Y-50902385D01*
X134086132Y-50908987D01*
X134079585Y-50912055D01*
X134064452Y-50920433D01*
X134049256Y-50930089D01*
X134045773Y-50932457D01*
X134034479Y-50939268D01*
X134027817Y-50941014D01*
X134023863Y-50938318D01*
X134023419Y-50937518D01*
X134021631Y-50928060D01*
X134021194Y-50912134D01*
X134021945Y-50891892D01*
X134023719Y-50869489D01*
X134026353Y-50847079D01*
X134029684Y-50826815D01*
X134033548Y-50810852D01*
X134037962Y-50796079D01*
X134039573Y-50788145D01*
X134038410Y-50785502D01*
X134034539Y-50786471D01*
X134025454Y-50790189D01*
X134013260Y-50794992D01*
X134003074Y-50799389D01*
X133987615Y-50806694D01*
X133970921Y-50815043D01*
X133969949Y-50815541D01*
X133955313Y-50822351D01*
X133943818Y-50826501D01*
X133937877Y-50827109D01*
X133935211Y-50822999D01*
X133933220Y-50810862D01*
X133933120Y-50792884D01*
X133934721Y-50770821D01*
X133937830Y-50746428D01*
X133942256Y-50721460D01*
X133947807Y-50697671D01*
X133954292Y-50676817D01*
X133955055Y-50674659D01*
X133955648Y-50670433D01*
X133951491Y-50673399D01*
X133947633Y-50676194D01*
X133938829Y-50679096D01*
X133935638Y-50677318D01*
X133934516Y-50669132D01*
X133937030Y-50655680D01*
X133942587Y-50638497D01*
X133950600Y-50619112D01*
X133960479Y-50599059D01*
X133971634Y-50579870D01*
X133983475Y-50563077D01*
X133985747Y-50560189D01*
X133994392Y-50547871D01*
X133996435Y-50540933D01*
X133991751Y-50538484D01*
X133980217Y-50539630D01*
X133970843Y-50541016D01*
X133950855Y-50543059D01*
X133927479Y-50544694D01*
X133903205Y-50545819D01*
X133880525Y-50546328D01*
X133861931Y-50546117D01*
X133849914Y-50545082D01*
X133847126Y-50544486D01*
X133837231Y-50540895D01*
X133833232Y-50536820D01*
X133835572Y-50532207D01*
X133843027Y-50523069D01*
X133853821Y-50511959D01*
X133863465Y-50502495D01*
X133870530Y-50495074D01*
X133872525Y-50492230D01*
X133871898Y-50492396D01*
X133865155Y-50495176D01*
X133852870Y-50500673D01*
X133837123Y-50507964D01*
X133819280Y-50516086D01*
X133796406Y-50525810D01*
X133775484Y-50533995D01*
X133758092Y-50540062D01*
X133745805Y-50543433D01*
X133740203Y-50543528D01*
X133739272Y-50542209D01*
X133737294Y-50532425D01*
X133737558Y-50516752D01*
X133739824Y-50497454D01*
X133743851Y-50476794D01*
X133749399Y-50457036D01*
X133757151Y-50435182D01*
X133767226Y-50410908D01*
X133768443Y-50408486D01*
X134658173Y-50408486D01*
X134659093Y-50415421D01*
X134662104Y-50419307D01*
X134667505Y-50417171D01*
X134678536Y-50409196D01*
X134693164Y-50396508D01*
X134710145Y-50380378D01*
X134728232Y-50362073D01*
X134735931Y-50353832D01*
X135356306Y-50353832D01*
X135360057Y-50355500D01*
X135362470Y-50355171D01*
X135363096Y-50352461D01*
X135362428Y-50351916D01*
X135357019Y-50352461D01*
X135356306Y-50353832D01*
X134735931Y-50353832D01*
X134746178Y-50342863D01*
X134762737Y-50324015D01*
X134776663Y-50306799D01*
X134786708Y-50292483D01*
X134796331Y-50276913D01*
X134785617Y-50233049D01*
X134782819Y-50221258D01*
X134778864Y-50203162D01*
X134776255Y-50189266D01*
X134775452Y-50181886D01*
X134776019Y-50179223D01*
X134781412Y-50167642D01*
X134792014Y-50150392D01*
X134807288Y-50128377D01*
X134810998Y-50124008D01*
X134826711Y-50112216D01*
X134847517Y-50102803D01*
X134870432Y-50097239D01*
X134876105Y-50096245D01*
X134889721Y-50092162D01*
X134898566Y-50087110D01*
X134904107Y-50082972D01*
X134907635Y-50085241D01*
X134908698Y-50087124D01*
X134914838Y-50088841D01*
X134918103Y-50088360D01*
X134929495Y-50087490D01*
X134947234Y-50086513D01*
X134969667Y-50085517D01*
X134995143Y-50084588D01*
X134999402Y-50084444D01*
X135030906Y-50083035D01*
X135053577Y-50081288D01*
X135067664Y-50079179D01*
X135073416Y-50076683D01*
X135076329Y-50073872D01*
X135082830Y-50076017D01*
X135087072Y-50078065D01*
X135098851Y-50081198D01*
X135113942Y-50083583D01*
X135123794Y-50084715D01*
X135146255Y-50087850D01*
X135163274Y-50091455D01*
X135177549Y-50096193D01*
X135191777Y-50102727D01*
X135203671Y-50109046D01*
X135222894Y-50121506D01*
X135237177Y-50135258D01*
X135247343Y-50151861D01*
X135254216Y-50172870D01*
X135258619Y-50199844D01*
X135261375Y-50234339D01*
X135261726Y-50239714D01*
X135263727Y-50254326D01*
X135267769Y-50263929D01*
X135275022Y-50271721D01*
X135276221Y-50272775D01*
X135283967Y-50280979D01*
X135287134Y-50286916D01*
X135287270Y-50288175D01*
X135290960Y-50291692D01*
X135292272Y-50292221D01*
X135299323Y-50297351D01*
X135310470Y-50306771D01*
X135323973Y-50319038D01*
X135329979Y-50324661D01*
X135341894Y-50335790D01*
X135350193Y-50343501D01*
X135353360Y-50346384D01*
X135353672Y-50344138D01*
X135354416Y-50336130D01*
X135354519Y-50334374D01*
X135353850Y-50325172D01*
X135350976Y-50313106D01*
X135345456Y-50296839D01*
X135336847Y-50275037D01*
X135324707Y-50246365D01*
X135316000Y-50224105D01*
X135305862Y-50193092D01*
X135302305Y-50180160D01*
X135347192Y-50180160D01*
X135348114Y-50197969D01*
X135352237Y-50211557D01*
X135359705Y-50222233D01*
X135370664Y-50231303D01*
X135374214Y-50233578D01*
X135389274Y-50239569D01*
X135408195Y-50240828D01*
X135411958Y-50240694D01*
X135451245Y-50238004D01*
X135491476Y-50233151D01*
X135530639Y-50226523D01*
X135566724Y-50218505D01*
X135597718Y-50209484D01*
X135621611Y-50199845D01*
X135629591Y-50195418D01*
X135650595Y-50180024D01*
X135670118Y-50160965D01*
X135685865Y-50140671D01*
X135695542Y-50121570D01*
X135700918Y-50095078D01*
X135701224Y-50063691D01*
X135696277Y-50032509D01*
X135686372Y-50005244D01*
X135680984Y-49993996D01*
X135676840Y-49983560D01*
X135676087Y-49978701D01*
X135677897Y-49978020D01*
X135686105Y-49980579D01*
X135698653Y-49988204D01*
X135714065Y-49999924D01*
X135730867Y-50014766D01*
X135741489Y-50025171D01*
X135750802Y-50036048D01*
X135755366Y-50045001D01*
X135756576Y-50054172D01*
X135756282Y-50060330D01*
X135752425Y-50076454D01*
X135743440Y-50093503D01*
X135728498Y-50112840D01*
X135706770Y-50135823D01*
X135694957Y-50147875D01*
X135686604Y-50157085D01*
X135683361Y-50161668D01*
X135685946Y-50160766D01*
X135695342Y-50153431D01*
X135712026Y-50137757D01*
X135729763Y-50118738D01*
X135746199Y-50098945D01*
X135758982Y-50080951D01*
X135764723Y-50072403D01*
X135773217Y-50063299D01*
X135779971Y-50061721D01*
X135783209Y-50061707D01*
X135791818Y-50056957D01*
X135800994Y-50048024D01*
X135808286Y-50037540D01*
X135811246Y-50028136D01*
X135807386Y-50017568D01*
X135796302Y-50004056D01*
X135779132Y-49988692D01*
X135757018Y-49972395D01*
X135731100Y-49956081D01*
X135702518Y-49940668D01*
X135684927Y-49932189D01*
X135657715Y-49920630D01*
X135633314Y-49912918D01*
X135608726Y-49908187D01*
X135580954Y-49905571D01*
X135576671Y-49905340D01*
X135533497Y-49906867D01*
X135494865Y-49915951D01*
X135459817Y-49932922D01*
X135427392Y-49958107D01*
X135425419Y-49959969D01*
X135408708Y-49977502D01*
X135395146Y-49995921D01*
X135383984Y-50016867D01*
X135374471Y-50041984D01*
X135365856Y-50072912D01*
X135357390Y-50111294D01*
X135354371Y-50126649D01*
X135349326Y-50156823D01*
X135347192Y-50180160D01*
X135302305Y-50180160D01*
X135296790Y-50160113D01*
X135289423Y-50127749D01*
X135284401Y-50098585D01*
X135282362Y-50075202D01*
X135281886Y-50066965D01*
X135280457Y-50056753D01*
X135277783Y-50043799D01*
X135273565Y-50026912D01*
X135267504Y-50004902D01*
X135259303Y-49976578D01*
X135248664Y-49940750D01*
X135243628Y-49923578D01*
X135238159Y-49902969D01*
X135234422Y-49884734D01*
X135231965Y-49866000D01*
X135230341Y-49843897D01*
X135229101Y-49815550D01*
X135227882Y-49788568D01*
X135225983Y-49764184D01*
X135223217Y-49745743D01*
X135219214Y-49731538D01*
X135213604Y-49719866D01*
X135206018Y-49709019D01*
X135196594Y-49701214D01*
X135180825Y-49697861D01*
X135179912Y-49697827D01*
X135169937Y-49696321D01*
X135164254Y-49693690D01*
X135164340Y-49691190D01*
X135171673Y-49690077D01*
X135175262Y-49689057D01*
X135175082Y-49685529D01*
X135169394Y-49682847D01*
X135163868Y-49681506D01*
X135154354Y-49675785D01*
X135150404Y-49668320D01*
X135149977Y-49665085D01*
X135147437Y-49664179D01*
X135145801Y-49664296D01*
X135139442Y-49660014D01*
X135130822Y-49651169D01*
X135125324Y-49645158D01*
X135116146Y-49638366D01*
X135108151Y-49638055D01*
X135102942Y-49638974D01*
X135101862Y-49636494D01*
X135101906Y-49636419D01*
X135099285Y-49633437D01*
X135089235Y-49630699D01*
X135073398Y-49628441D01*
X135053419Y-49626899D01*
X135030942Y-49626309D01*
X135015239Y-49626980D01*
X135004019Y-49629791D01*
X134996299Y-49635515D01*
X134985875Y-49642282D01*
X134972194Y-49645770D01*
X134971640Y-49645809D01*
X134959163Y-49648304D01*
X134950455Y-49652700D01*
X134942967Y-49657307D01*
X134931159Y-49661231D01*
X134931075Y-49661248D01*
X134922481Y-49663995D01*
X134920022Y-49666935D01*
X134919326Y-49668413D01*
X134912495Y-49672066D01*
X134900578Y-49676142D01*
X134894016Y-49678202D01*
X134880626Y-49683506D01*
X134872042Y-49688430D01*
X134864285Y-49692702D01*
X134852095Y-49695662D01*
X134848710Y-49696033D01*
X134840782Y-49698229D01*
X134834804Y-49702995D01*
X134830493Y-49711420D01*
X134827571Y-49724597D01*
X134825756Y-49743613D01*
X134824767Y-49769561D01*
X134824324Y-49803530D01*
X134824160Y-49822856D01*
X134823700Y-49849342D01*
X134822842Y-49869856D01*
X134821388Y-49886370D01*
X134819138Y-49900855D01*
X134815896Y-49915286D01*
X134811462Y-49931635D01*
X134809592Y-49938391D01*
X134803629Y-49961296D01*
X134796773Y-49989116D01*
X134789733Y-50018940D01*
X134783217Y-50047856D01*
X134780539Y-50060062D01*
X134770393Y-50105727D01*
X134761692Y-50143704D01*
X134754164Y-50175002D01*
X134751149Y-50186669D01*
X134747541Y-50200631D01*
X134741551Y-50221601D01*
X134735925Y-50238920D01*
X134730393Y-50253600D01*
X134724685Y-50266650D01*
X134721909Y-50272627D01*
X134714962Y-50288082D01*
X134710124Y-50299597D01*
X134708308Y-50305029D01*
X134708306Y-50305086D01*
X134705697Y-50310421D01*
X134699106Y-50320831D01*
X134689922Y-50334114D01*
X134684777Y-50341595D01*
X134670622Y-50366248D01*
X134661442Y-50389277D01*
X134658173Y-50408486D01*
X133768443Y-50408486D01*
X133779032Y-50387419D01*
X133793908Y-50362097D01*
X133813194Y-50332322D01*
X133823730Y-50316132D01*
X133833387Y-50300406D01*
X133839935Y-50288687D01*
X133842347Y-50282727D01*
X133841557Y-50280182D01*
X133834411Y-50278001D01*
X133820227Y-50280411D01*
X133799493Y-50287264D01*
X133772695Y-50298413D01*
X133740319Y-50313710D01*
X133712609Y-50327799D01*
X133690912Y-50339895D01*
X133673230Y-50351321D01*
X133657355Y-50363503D01*
X133641082Y-50377869D01*
X133630152Y-50387768D01*
X133616621Y-50399348D01*
X133606429Y-50407262D01*
X133601202Y-50410192D01*
X133597612Y-50407180D01*
X133595565Y-50396827D01*
X133596163Y-50380708D01*
X133598170Y-50373312D01*
X133604266Y-50358534D01*
X133613432Y-50339374D01*
X133624695Y-50317695D01*
X133637077Y-50295362D01*
X133649605Y-50274240D01*
X133661302Y-50256193D01*
X133677837Y-50234778D01*
X133700517Y-50209441D01*
X133726633Y-50183173D01*
X133754074Y-50158093D01*
X133780728Y-50136321D01*
X133791420Y-50128161D01*
X133804928Y-50117746D01*
X133814561Y-50110199D01*
X133825515Y-50101453D01*
X133775821Y-50098318D01*
X133756488Y-50096943D01*
X133723518Y-50093745D01*
X133696547Y-50089928D01*
X133676612Y-50085652D01*
X133664754Y-50081078D01*
X133664098Y-50080698D01*
X133656273Y-50078907D01*
X133643530Y-50080027D01*
X133624058Y-50084200D01*
X133621628Y-50084785D01*
X133605765Y-50088101D01*
X133593867Y-50089739D01*
X133588352Y-50089351D01*
X133587956Y-50088464D01*
X133590659Y-50082404D01*
X133598456Y-50073118D01*
X133609610Y-50062326D01*
X133622381Y-50051749D01*
X133635034Y-50043109D01*
X133644590Y-50038288D01*
X133651663Y-50035530D01*
X134257891Y-50035530D01*
X134258493Y-50045893D01*
X134260219Y-50049999D01*
X134267745Y-50061665D01*
X134279676Y-50077170D01*
X134294595Y-50094909D01*
X134311082Y-50113275D01*
X134327720Y-50130662D01*
X134343091Y-50145463D01*
X134355775Y-50156072D01*
X134384369Y-50175521D01*
X134420678Y-50195064D01*
X134459183Y-50209532D01*
X134503212Y-50220377D01*
X134525874Y-50224664D01*
X134551016Y-50228990D01*
X134573345Y-50232411D01*
X134589808Y-50234433D01*
X134603680Y-50235704D01*
X134624702Y-50237599D01*
X134642221Y-50239146D01*
X134658592Y-50239627D01*
X134682153Y-50235558D01*
X134699134Y-50225314D01*
X134709412Y-50208988D01*
X134712866Y-50186669D01*
X134712184Y-50174580D01*
X134709293Y-50152415D01*
X134704603Y-50125796D01*
X134698617Y-50096973D01*
X134691843Y-50068191D01*
X134684787Y-50041698D01*
X134677955Y-50019742D01*
X134671852Y-50004570D01*
X134661097Y-49986639D01*
X134636831Y-49959142D01*
X134606402Y-49936352D01*
X134571252Y-49919076D01*
X134532822Y-49908120D01*
X134492551Y-49904289D01*
X134483802Y-49904509D01*
X134443411Y-49910788D01*
X134400709Y-49925620D01*
X134356004Y-49948879D01*
X134309602Y-49980436D01*
X134287310Y-49998056D01*
X134271482Y-50012659D01*
X134261948Y-50024801D01*
X134257891Y-50035530D01*
X133651663Y-50035530D01*
X133662738Y-50031211D01*
X133681399Y-50025752D01*
X133694857Y-50022416D01*
X133707411Y-50018861D01*
X133713969Y-50016423D01*
X133715735Y-50015605D01*
X133723183Y-50015626D01*
X133729186Y-50019048D01*
X133729910Y-50024041D01*
X133729541Y-50026645D01*
X133735633Y-50025139D01*
X133744095Y-50021771D01*
X133761920Y-50015330D01*
X133784134Y-50007759D01*
X133808173Y-49999907D01*
X133831471Y-49992624D01*
X133851462Y-49986762D01*
X133858566Y-49984850D01*
X133893163Y-49977186D01*
X133928002Y-49971863D01*
X133960188Y-49969247D01*
X133986827Y-49969702D01*
X133999295Y-49970856D01*
X134021749Y-49972945D01*
X134042885Y-49974922D01*
X134045108Y-49975125D01*
X134063368Y-49975927D01*
X134076640Y-49974186D01*
X134088462Y-49969482D01*
X134089710Y-49968837D01*
X134098045Y-49963886D01*
X134102435Y-49958300D01*
X134104150Y-49949251D01*
X134104462Y-49933914D01*
X134104748Y-49925194D01*
X134109151Y-49902317D01*
X134119822Y-49881983D01*
X134137978Y-49861565D01*
X134139532Y-49859996D01*
X134148757Y-49847823D01*
X134157509Y-49832317D01*
X134164583Y-49816165D01*
X134168773Y-49802056D01*
X134168873Y-49792678D01*
X134168023Y-49789168D01*
X134169765Y-49785789D01*
X134170686Y-49785464D01*
X134172437Y-49779886D01*
X134172032Y-49770090D01*
X134169839Y-49759601D01*
X134166228Y-49751949D01*
X134163737Y-49748307D01*
X134161765Y-49741831D01*
X134162290Y-49733060D01*
X134160516Y-49725623D01*
X134156961Y-49724177D01*
X134153246Y-49723071D01*
X134149712Y-49715654D01*
X134143739Y-49705812D01*
X134130940Y-49696830D01*
X134129492Y-49696125D01*
X134116397Y-49688447D01*
X134106286Y-49680555D01*
X134100090Y-49674724D01*
X134096438Y-49672082D01*
X134092319Y-49672274D01*
X134081778Y-49670698D01*
X134070036Y-49667519D01*
X134060495Y-49663739D01*
X134056558Y-49660357D01*
X134055933Y-49657637D01*
X134050161Y-49652136D01*
X134047290Y-49651370D01*
X134037429Y-49651585D01*
X134028527Y-49654568D01*
X134024655Y-49659193D01*
X134023732Y-49661115D01*
X134017943Y-49661131D01*
X134012646Y-49661292D01*
X134005409Y-49666867D01*
X134003793Y-49669102D01*
X133997321Y-49675069D01*
X133988336Y-49676404D01*
X133986611Y-49677017D01*
X133986169Y-49682261D01*
X133985186Y-49689031D01*
X133979324Y-49697878D01*
X133979048Y-49698176D01*
X133973675Y-49705950D01*
X133975794Y-49709905D01*
X133978280Y-49711531D01*
X133976799Y-49715937D01*
X133974925Y-49717941D01*
X133970946Y-49726539D01*
X133968401Y-49732697D01*
X133957876Y-49744484D01*
X133940953Y-49757082D01*
X133919217Y-49769756D01*
X133894255Y-49781773D01*
X133867651Y-49792398D01*
X133840991Y-49800897D01*
X133815861Y-49806535D01*
X133793845Y-49808577D01*
X133789627Y-49809119D01*
X133776472Y-49812633D01*
X133757835Y-49818815D01*
X133735543Y-49826964D01*
X133711424Y-49836378D01*
X133687303Y-49846356D01*
X133665008Y-49856196D01*
X133646366Y-49865197D01*
X133646078Y-49865346D01*
X133629693Y-49873421D01*
X133615071Y-49880017D01*
X133605347Y-49883720D01*
X133601971Y-49884952D01*
X133589935Y-49891353D01*
X133577129Y-49900193D01*
X133571784Y-49904279D01*
X133562421Y-49910822D01*
X133557433Y-49913404D01*
X133554464Y-49914697D01*
X133547725Y-49920240D01*
X133546376Y-49921549D01*
X133538578Y-49926761D01*
X133535264Y-49924289D01*
X133537189Y-49914543D01*
X133538300Y-49911514D01*
X133548412Y-49886504D01*
X133559863Y-49861719D01*
X133571280Y-49839978D01*
X133581287Y-49824099D01*
X133582982Y-49821736D01*
X133589171Y-49811790D01*
X133591674Y-49805422D01*
X133591864Y-49804693D01*
X133596339Y-49798402D01*
X133605551Y-49788230D01*
X133617881Y-49775996D01*
X133618217Y-49775678D01*
X133638298Y-49759058D01*
X133662904Y-49743279D01*
X133694222Y-49726937D01*
X133709495Y-49719446D01*
X133737468Y-49705307D01*
X133765671Y-49690632D01*
X133789858Y-49677612D01*
X133805062Y-49669491D01*
X133825712Y-49659225D01*
X133843881Y-49651007D01*
X133856872Y-49646104D01*
X133863661Y-49643868D01*
X133876846Y-49638260D01*
X133885108Y-49632992D01*
X133889943Y-49629278D01*
X133898520Y-49626270D01*
X133899431Y-49626191D01*
X133908082Y-49623902D01*
X133922030Y-49619087D01*
X133938726Y-49612612D01*
X133942550Y-49611067D01*
X133958568Y-49604906D01*
X133971059Y-49600578D01*
X133977589Y-49598939D01*
X133978982Y-49598683D01*
X133986934Y-49594537D01*
X133997185Y-49586934D01*
X134011434Y-49574944D01*
X133997337Y-49566371D01*
X133996208Y-49565709D01*
X133983803Y-49560711D01*
X133973183Y-49559714D01*
X133963869Y-49561405D01*
X133948752Y-49564062D01*
X133931222Y-49567088D01*
X133901519Y-49572266D01*
X133859327Y-49580043D01*
X133824643Y-49587018D01*
X133797852Y-49593106D01*
X133779337Y-49598225D01*
X133769483Y-49602290D01*
X133769475Y-49602295D01*
X133756768Y-49607747D01*
X133742137Y-49610507D01*
X133741528Y-49610541D01*
X133725785Y-49612181D01*
X133706197Y-49615203D01*
X133685991Y-49619001D01*
X133668390Y-49622972D01*
X133656621Y-49626513D01*
X133650696Y-49627987D01*
X133646762Y-49625469D01*
X133647654Y-49618624D01*
X133652512Y-49608806D01*
X133660478Y-49597370D01*
X133670691Y-49585673D01*
X133682292Y-49575069D01*
X133694421Y-49566913D01*
X133701772Y-49560952D01*
X133703640Y-49554770D01*
X133703082Y-49552057D01*
X133705759Y-49548789D01*
X133706717Y-49548890D01*
X133710174Y-49553049D01*
X133713669Y-49553014D01*
X133723809Y-49549648D01*
X133738993Y-49543475D01*
X133757608Y-49535104D01*
X133774180Y-49527637D01*
X133794311Y-49519304D01*
X133811269Y-49513075D01*
X133822555Y-49509920D01*
X133827383Y-49509022D01*
X133842717Y-49505800D01*
X133862397Y-49501358D01*
X133883366Y-49496375D01*
X133897146Y-49493079D01*
X133915043Y-49489096D01*
X133933174Y-49485522D01*
X133953740Y-49481958D01*
X133978942Y-49478005D01*
X134010981Y-49473266D01*
X134016405Y-49472367D01*
X134029764Y-49469245D01*
X134038328Y-49465944D01*
X134038715Y-49465676D01*
X134037976Y-49463587D01*
X134029781Y-49462540D01*
X134015572Y-49462417D01*
X133996788Y-49463101D01*
X133974872Y-49464475D01*
X133951265Y-49466421D01*
X133927408Y-49468821D01*
X133904741Y-49471559D01*
X133884707Y-49474516D01*
X133868746Y-49477575D01*
X133858299Y-49480619D01*
X133850964Y-49483396D01*
X133838276Y-49487488D01*
X133833648Y-49489179D01*
X133821117Y-49495264D01*
X133807248Y-49503327D01*
X133801645Y-49506461D01*
X133784640Y-49513740D01*
X133763700Y-49520829D01*
X133741887Y-49526840D01*
X133722265Y-49530888D01*
X133707895Y-49532086D01*
X133701387Y-49531762D01*
X133688555Y-49531100D01*
X133678330Y-49530558D01*
X133688555Y-49518652D01*
X133697480Y-49509776D01*
X133710712Y-49499028D01*
X133725348Y-49488741D01*
X133739299Y-49480272D01*
X133750477Y-49474983D01*
X133756794Y-49474232D01*
X133762575Y-49476159D01*
X133777141Y-49476548D01*
X133796185Y-49473863D01*
X133817280Y-49468342D01*
X133830159Y-49464171D01*
X133859809Y-49454282D01*
X133882831Y-49446069D01*
X133900795Y-49438956D01*
X133915270Y-49432366D01*
X133927724Y-49427075D01*
X133950406Y-49419215D01*
X133979592Y-49410411D01*
X134013913Y-49401071D01*
X134052001Y-49391603D01*
X134073882Y-49385431D01*
X134096598Y-49376917D01*
X134116332Y-49367412D01*
X134131935Y-49357645D01*
X134142259Y-49348346D01*
X134146159Y-49340243D01*
X134142486Y-49334068D01*
X134136077Y-49332183D01*
X134123004Y-49330549D01*
X134106693Y-49329776D01*
X134092219Y-49329413D01*
X134075306Y-49328580D01*
X134063395Y-49327521D01*
X134060474Y-49327185D01*
X134045826Y-49326199D01*
X134025729Y-49325449D01*
X134002999Y-49324980D01*
X133980452Y-49324835D01*
X133960905Y-49325059D01*
X133947174Y-49325695D01*
X133947074Y-49325704D01*
X133931560Y-49324414D01*
X133916636Y-49319434D01*
X133915217Y-49318706D01*
X133903808Y-49313798D01*
X133895693Y-49311789D01*
X133889560Y-49309594D01*
X133881185Y-49302781D01*
X133874749Y-49297309D01*
X133869399Y-49296019D01*
X133867980Y-49296507D01*
X133862903Y-49293633D01*
X133862161Y-49291807D01*
X133864793Y-49289001D01*
X133865562Y-49288769D01*
X133865897Y-49283603D01*
X133862032Y-49273244D01*
X133860470Y-49270158D01*
X133854974Y-49261894D01*
X133851026Y-49259645D01*
X133849659Y-49260102D01*
X133844672Y-49257171D01*
X133844220Y-49254781D01*
X133848915Y-49252539D01*
X133850134Y-49252441D01*
X133854651Y-49248143D01*
X133856020Y-49236474D01*
X133856701Y-49227999D01*
X133860149Y-49220895D01*
X133867961Y-49216047D01*
X133881717Y-49212548D01*
X133902996Y-49209491D01*
X133914672Y-49207714D01*
X133924723Y-49205308D01*
X133928037Y-49203183D01*
X133926408Y-49199929D01*
X133921478Y-49190350D01*
X133914711Y-49177337D01*
X133905809Y-49158638D01*
X133891243Y-49120549D01*
X133878365Y-49077409D01*
X133867902Y-49031780D01*
X133860580Y-48986229D01*
X133859279Y-48974084D01*
X133857901Y-48948006D01*
X133858373Y-48918846D01*
X133860697Y-48883681D01*
X133863508Y-48853114D01*
X133867420Y-48821128D01*
X133872434Y-48792092D01*
X133879142Y-48763158D01*
X133888133Y-48731483D01*
X133899998Y-48694222D01*
X133918265Y-48642862D01*
X133939437Y-48592991D01*
X133961182Y-48551632D01*
X133983410Y-48518935D01*
X134006031Y-48495050D01*
X134028953Y-48480128D01*
X134040409Y-48476165D01*
X134054417Y-48475077D01*
X134070487Y-48478293D01*
X134090369Y-48486195D01*
X134115808Y-48499166D01*
X134117267Y-48499987D01*
X134131843Y-48510069D01*
X134150998Y-48525687D01*
X134173511Y-48545630D01*
X134198161Y-48568685D01*
X134223729Y-48593640D01*
X134248992Y-48619284D01*
X134272731Y-48644403D01*
X134293724Y-48667787D01*
X134310752Y-48688223D01*
X134322594Y-48704499D01*
X134327994Y-48713019D01*
X134364159Y-48776414D01*
X134391655Y-48837389D01*
X134410543Y-48896096D01*
X134420884Y-48952691D01*
X134422847Y-48972104D01*
X134425187Y-49005162D01*
X134425429Y-49030385D01*
X134423577Y-49047427D01*
X134419637Y-49055942D01*
X134417407Y-49057492D01*
X134407982Y-49062992D01*
X134393422Y-49070903D01*
X134375374Y-49080390D01*
X134355488Y-49090617D01*
X134335410Y-49100748D01*
X134316791Y-49109948D01*
X134301278Y-49117382D01*
X134290519Y-49122213D01*
X134286163Y-49123606D01*
X134285241Y-49122477D01*
X134280243Y-49114912D01*
X134272674Y-49102540D01*
X134263750Y-49087460D01*
X134254690Y-49071772D01*
X134246710Y-49057575D01*
X134241030Y-49046969D01*
X134238866Y-49042053D01*
X134238438Y-49040506D01*
X134234598Y-49032235D01*
X134227631Y-49019025D01*
X134218585Y-49002901D01*
X134216030Y-48998426D01*
X134203175Y-48974146D01*
X134195947Y-48956690D01*
X134194376Y-48946150D01*
X134198492Y-48942619D01*
X134202920Y-48943370D01*
X134214318Y-48946680D01*
X134228660Y-48951734D01*
X134232890Y-48953313D01*
X134251283Y-48959023D01*
X134262301Y-48959659D01*
X134266341Y-48954856D01*
X134263799Y-48944249D01*
X134255072Y-48927476D01*
X134254542Y-48926560D01*
X134247022Y-48912213D01*
X134238143Y-48893510D01*
X134229714Y-48874251D01*
X134223607Y-48859466D01*
X134213724Y-48834731D01*
X134207411Y-48817290D01*
X134204522Y-48806470D01*
X134204907Y-48801600D01*
X134208419Y-48802009D01*
X134214910Y-48807024D01*
X134216025Y-48807920D01*
X134226365Y-48813424D01*
X134241453Y-48819175D01*
X134258028Y-48824168D01*
X134272828Y-48827400D01*
X134282591Y-48827864D01*
X134283675Y-48826520D01*
X134282125Y-48820784D01*
X134276518Y-48810053D01*
X134266510Y-48793746D01*
X134251759Y-48771282D01*
X134231920Y-48742078D01*
X134206808Y-48705879D01*
X134180452Y-48669069D01*
X134157767Y-48639036D01*
X134138207Y-48615202D01*
X134121230Y-48596993D01*
X134106289Y-48583833D01*
X134092843Y-48575145D01*
X134080346Y-48570355D01*
X134068254Y-48568886D01*
X134049676Y-48571406D01*
X134032115Y-48580408D01*
X134016238Y-48596776D01*
X134000933Y-48621377D01*
X133995623Y-48631934D01*
X133981991Y-48667103D01*
X133973065Y-48706095D01*
X133968272Y-48751193D01*
X133967808Y-48759754D01*
X133967365Y-48772878D01*
X133967564Y-48779586D01*
X133968398Y-48778539D01*
X133970851Y-48770282D01*
X133975035Y-48762026D01*
X133976502Y-48759625D01*
X133977624Y-48750632D01*
X133977075Y-48747995D01*
X133977840Y-48747519D01*
X133978060Y-48747854D01*
X133983285Y-48749097D01*
X133989650Y-48745746D01*
X133992751Y-48740018D01*
X133995025Y-48734241D01*
X134001866Y-48726126D01*
X134007858Y-48719184D01*
X134010981Y-48711747D01*
X134011349Y-48709259D01*
X134015232Y-48705616D01*
X134018284Y-48703867D01*
X134022376Y-48696501D01*
X134025223Y-48691176D01*
X134031372Y-48687386D01*
X134034765Y-48685861D01*
X134035091Y-48678270D01*
X134034663Y-48672762D01*
X134037796Y-48669155D01*
X134040033Y-48669823D01*
X134042885Y-48675684D01*
X134044361Y-48679804D01*
X134051458Y-48684935D01*
X134054816Y-48686730D01*
X134060979Y-48695821D01*
X134065478Y-48712511D01*
X134068548Y-48737520D01*
X134069064Y-48742885D01*
X134070967Y-48756279D01*
X134073068Y-48764866D01*
X134073648Y-48767029D01*
X134075010Y-48777549D01*
X134076184Y-48793617D01*
X134076967Y-48812722D01*
X134077030Y-48814911D01*
X134078332Y-48840498D01*
X134080534Y-48868232D01*
X134083195Y-48892482D01*
X134083229Y-48892737D01*
X134086116Y-48917435D01*
X134088745Y-48944936D01*
X134090552Y-48969335D01*
X134090930Y-48975172D01*
X134092564Y-48992589D01*
X134094562Y-49005912D01*
X134096575Y-49012633D01*
X134096621Y-49012695D01*
X134102096Y-49023991D01*
X134106737Y-49040568D01*
X134110369Y-49060402D01*
X134112819Y-49081471D01*
X134113913Y-49101752D01*
X134113476Y-49119220D01*
X134111336Y-49131854D01*
X134107317Y-49137629D01*
X134105454Y-49138767D01*
X134105133Y-49144318D01*
X134105749Y-49146950D01*
X134100604Y-49146351D01*
X134096179Y-49145093D01*
X134093735Y-49146542D01*
X134095616Y-49152460D01*
X134102179Y-49163805D01*
X134113785Y-49181535D01*
X134120262Y-49191441D01*
X134129992Y-49208965D01*
X134133323Y-49222061D01*
X134129977Y-49232409D01*
X134119674Y-49241686D01*
X134102135Y-49251571D01*
X134085493Y-49260004D01*
X134054204Y-49275995D01*
X134030202Y-49288499D01*
X134012860Y-49297859D01*
X134001550Y-49304420D01*
X133995645Y-49308524D01*
X133994517Y-49310517D01*
X133996215Y-49310630D01*
X134004763Y-49308350D01*
X134018606Y-49303364D01*
X134035762Y-49296351D01*
X134074025Y-49282770D01*
X134112256Y-49274546D01*
X134121378Y-49273232D01*
X134141539Y-49269445D01*
X134153929Y-49265243D01*
X134159540Y-49260191D01*
X134159366Y-49253851D01*
X134158760Y-49250993D01*
X134161437Y-49250292D01*
X134163127Y-49251020D01*
X134165943Y-49248759D01*
X134166034Y-49248354D01*
X134170605Y-49243329D01*
X134180705Y-49235255D01*
X134194428Y-49225677D01*
X134200102Y-49221904D01*
X134228546Y-49202008D01*
X134256351Y-49181106D01*
X134281105Y-49161064D01*
X134300395Y-49143746D01*
X134309789Y-49135604D01*
X134327969Y-49122370D01*
X134349818Y-49108342D01*
X134373145Y-49094774D01*
X134395760Y-49082922D01*
X134415474Y-49074043D01*
X134430096Y-49069391D01*
X134433438Y-49068703D01*
X134445063Y-49065378D01*
X134459261Y-49059860D01*
X134477358Y-49051552D01*
X134500682Y-49039855D01*
X134530558Y-49024172D01*
X134537929Y-49020080D01*
X134547992Y-49013782D01*
X134552587Y-49009842D01*
X134553138Y-49008975D01*
X134559158Y-49006424D01*
X134559767Y-49006344D01*
X134567057Y-49003394D01*
X134579385Y-48997042D01*
X134594454Y-48988456D01*
X134612165Y-48977226D01*
X134642246Y-48954076D01*
X134665960Y-48929926D01*
X134682689Y-48905586D01*
X134691816Y-48881865D01*
X134692724Y-48859573D01*
X134687142Y-48837337D01*
X134674068Y-48806415D01*
X134655739Y-48775650D01*
X134633600Y-48747775D01*
X134629841Y-48743925D01*
X134620500Y-48736083D01*
X134613981Y-48732963D01*
X134611608Y-48732462D01*
X134608039Y-48726979D01*
X134607715Y-48725375D01*
X134602970Y-48717481D01*
X134594366Y-48707895D01*
X134591331Y-48705031D01*
X134583389Y-48698338D01*
X134581336Y-48698328D01*
X134585161Y-48704793D01*
X134594855Y-48717523D01*
X134602221Y-48727323D01*
X134613862Y-48747997D01*
X134619892Y-48769424D01*
X134621664Y-48780213D01*
X134623993Y-48794491D01*
X134624551Y-48797808D01*
X134627253Y-48812617D01*
X134630404Y-48828674D01*
X134630945Y-48831495D01*
X134632355Y-48843180D01*
X134632088Y-48850987D01*
X134630399Y-48853185D01*
X134627545Y-48848044D01*
X134624811Y-48844839D01*
X134616407Y-48842347D01*
X134610040Y-48840802D01*
X134597793Y-48835268D01*
X134583744Y-48827098D01*
X134573612Y-48820619D01*
X134556387Y-48809860D01*
X134541952Y-48801126D01*
X134517590Y-48785200D01*
X134490690Y-48761993D01*
X134465794Y-48732963D01*
X134464991Y-48731907D01*
X134451544Y-48714772D01*
X134437771Y-48698006D01*
X134426532Y-48685098D01*
X134420549Y-48678463D01*
X134406301Y-48662069D01*
X134393208Y-48646358D01*
X134386819Y-48638803D01*
X134373393Y-48623836D01*
X134357218Y-48606508D01*
X134340523Y-48589235D01*
X134329865Y-48578179D01*
X134312561Y-48559337D01*
X134296963Y-48541367D01*
X134285490Y-48527006D01*
X134274924Y-48513846D01*
X134262206Y-48500188D01*
X134251580Y-48490937D01*
X134249750Y-48489601D01*
X134239405Y-48481233D01*
X134224589Y-48468503D01*
X134207002Y-48452893D01*
X134188347Y-48435884D01*
X134164654Y-48414675D01*
X134142777Y-48397196D01*
X134123775Y-48385061D01*
X134106062Y-48377432D01*
X134088052Y-48373470D01*
X134068158Y-48372335D01*
X134067850Y-48372336D01*
X134039100Y-48374950D01*
X134013644Y-48383157D01*
X133990624Y-48397649D01*
X133969180Y-48419122D01*
X133948453Y-48448267D01*
X133927582Y-48485779D01*
X133926977Y-48486974D01*
X133916746Y-48507168D01*
X133907792Y-48524817D01*
X133901062Y-48538058D01*
X133897501Y-48545029D01*
X133891653Y-48557934D01*
X133884309Y-48576680D01*
X133877220Y-48596797D01*
X133871802Y-48614463D01*
X133871194Y-48616279D01*
X133868295Y-48623578D01*
X133864802Y-48632206D01*
X133860170Y-48644088D01*
X133859542Y-48645650D01*
X133855566Y-48652362D01*
X133852818Y-48652064D01*
X133850038Y-48647808D01*
X133844926Y-48647082D01*
X133842347Y-48653203D01*
X133841833Y-48656348D01*
X133837789Y-48660039D01*
X133834559Y-48659082D01*
X133833171Y-48653966D01*
X133836480Y-48647197D01*
X133843486Y-48641951D01*
X133849415Y-48639130D01*
X133850206Y-48637540D01*
X133849724Y-48637290D01*
X133850177Y-48632182D01*
X133854227Y-48622639D01*
X133854951Y-48621214D01*
X133858762Y-48610760D01*
X133856622Y-48606308D01*
X133855037Y-48605553D01*
X133851462Y-48599922D01*
X133852530Y-48597875D01*
X133858536Y-48597971D01*
X133862000Y-48598779D01*
X133863060Y-48596561D01*
X133862629Y-48595584D01*
X133862340Y-48586508D01*
X133864584Y-48572576D01*
X133868622Y-48556777D01*
X133873715Y-48542101D01*
X133879124Y-48531537D01*
X133881264Y-48528172D01*
X133887994Y-48514161D01*
X133893377Y-48498494D01*
X133895350Y-48491835D01*
X133899355Y-48481716D01*
X133902542Y-48477732D01*
X133904580Y-48476200D01*
X133906155Y-48468996D01*
X133906718Y-48463958D01*
X133909573Y-48458742D01*
X133909581Y-48458738D01*
X133912982Y-48454119D01*
X133919191Y-48443072D01*
X133927268Y-48427464D01*
X133936270Y-48409165D01*
X133945257Y-48390043D01*
X133953287Y-48371966D01*
X133958562Y-48361787D01*
X133972983Y-48341804D01*
X133991071Y-48322899D01*
X134009900Y-48308357D01*
X134014638Y-48305640D01*
X134026122Y-48301158D01*
X134040492Y-48298915D01*
X134060834Y-48298303D01*
X134061775Y-48298304D01*
X134080763Y-48298855D01*
X134095387Y-48301115D01*
X134109705Y-48306082D01*
X134127776Y-48314752D01*
X134143408Y-48323143D01*
X134164167Y-48335796D01*
X134185599Y-48350800D01*
X134208802Y-48369031D01*
X134234872Y-48391361D01*
X134264908Y-48418663D01*
X134300005Y-48451810D01*
X134323799Y-48474332D01*
X134350857Y-48499398D01*
X134377323Y-48523394D01*
X134402337Y-48545577D01*
X134425038Y-48565204D01*
X134444566Y-48581532D01*
X134460059Y-48593819D01*
X134470657Y-48601320D01*
X134475500Y-48603295D01*
X134479252Y-48603688D01*
X134487042Y-48608030D01*
X134491927Y-48612284D01*
X134492131Y-48614463D01*
X134491044Y-48615797D01*
X134494097Y-48621299D01*
X134494632Y-48621881D01*
X134504229Y-48626439D01*
X134519463Y-48628136D01*
X134527518Y-48628435D01*
X134538860Y-48631341D01*
X134546376Y-48638390D01*
X134550029Y-48643893D01*
X134551005Y-48648286D01*
X134546295Y-48650184D01*
X134539502Y-48649287D01*
X134530191Y-48643755D01*
X134523745Y-48638984D01*
X134519228Y-48637946D01*
X134519015Y-48638674D01*
X134522112Y-48644341D01*
X134529743Y-48653390D01*
X134540028Y-48663870D01*
X134551086Y-48673829D01*
X134561037Y-48681318D01*
X134562583Y-48682305D01*
X134570090Y-48686866D01*
X134571197Y-48686324D01*
X134567020Y-48680533D01*
X134561099Y-48673579D01*
X134551068Y-48663672D01*
X134546267Y-48658129D01*
X134547529Y-48655633D01*
X134552603Y-48658008D01*
X134562185Y-48665400D01*
X134573710Y-48676085D01*
X134577352Y-48679674D01*
X134588974Y-48689792D01*
X134597712Y-48694261D01*
X134605733Y-48694316D01*
X134614432Y-48692509D01*
X134628548Y-48689578D01*
X134630542Y-48689106D01*
X134638527Y-48684284D01*
X134638238Y-48676143D01*
X134629688Y-48664405D01*
X134629293Y-48663976D01*
X134622300Y-48654753D01*
X134619381Y-48647751D01*
X134617278Y-48642618D01*
X134610265Y-48635275D01*
X134609724Y-48634862D01*
X134604809Y-48629889D01*
X134607789Y-48628281D01*
X134609398Y-48628508D01*
X134617923Y-48632743D01*
X134628228Y-48640669D01*
X134631839Y-48643926D01*
X134637923Y-48649164D01*
X134638130Y-48648410D01*
X134633065Y-48641809D01*
X134628315Y-48635918D01*
X134617983Y-48623399D01*
X134606645Y-48609905D01*
X134599345Y-48601318D01*
X134589380Y-48589325D01*
X134584653Y-48582346D01*
X134584815Y-48579032D01*
X134589520Y-48578034D01*
X134598418Y-48578001D01*
X134601487Y-48578087D01*
X134614359Y-48580205D01*
X134622776Y-48584274D01*
X134625438Y-48586553D01*
X134630040Y-48588938D01*
X134637483Y-48591108D01*
X134649317Y-48593410D01*
X134667091Y-48596188D01*
X134692356Y-48599790D01*
X134719610Y-48605773D01*
X134751594Y-48616825D01*
X134782891Y-48631395D01*
X134787188Y-48633568D01*
X134795092Y-48635777D01*
X134799473Y-48632675D01*
X134801692Y-48630446D01*
X134808487Y-48630359D01*
X134808619Y-48630438D01*
X134812115Y-48629225D01*
X134813175Y-48621246D01*
X134812127Y-48608365D01*
X134809302Y-48592450D01*
X134805027Y-48575364D01*
X134799634Y-48558975D01*
X134793449Y-48545147D01*
X134786978Y-48532043D01*
X134782914Y-48521237D01*
X134782568Y-48515894D01*
X134782905Y-48515605D01*
X134789127Y-48515411D01*
X134800728Y-48520473D01*
X134818194Y-48531048D01*
X134842012Y-48547394D01*
X134853818Y-48555702D01*
X134864878Y-48562845D01*
X134871686Y-48565713D01*
X134876022Y-48564962D01*
X134879668Y-48561245D01*
X134881945Y-48557686D01*
X134884108Y-48548953D01*
X134883121Y-48536132D01*
X134878947Y-48517004D01*
X134878497Y-48515003D01*
X134878847Y-48506764D01*
X134883940Y-48505387D01*
X134892911Y-48510691D01*
X134904898Y-48522493D01*
X134913559Y-48532390D01*
X134926180Y-48547346D01*
X134934875Y-48558812D01*
X134941161Y-48568863D01*
X134946552Y-48579577D01*
X134954633Y-48596982D01*
X134963083Y-48586547D01*
X134963530Y-48585986D01*
X134969174Y-48574189D01*
X134969180Y-48558572D01*
X134968936Y-48556440D01*
X134969003Y-48542172D01*
X134971538Y-48531031D01*
X134973721Y-48526205D01*
X134979284Y-48513257D01*
X134985500Y-48498242D01*
X134989582Y-48489424D01*
X134996302Y-48478755D01*
X135001934Y-48473979D01*
X135003465Y-48473799D01*
X135006960Y-48475889D01*
X135008666Y-48483449D01*
X135009115Y-48498287D01*
X135009436Y-48509840D01*
X135011175Y-48519975D01*
X135014564Y-48522252D01*
X135018747Y-48518632D01*
X135023197Y-48507989D01*
X135025360Y-48493687D01*
X135024512Y-48478871D01*
X135024453Y-48478548D01*
X135023322Y-48468633D01*
X135026504Y-48464736D01*
X135036211Y-48464059D01*
X135041281Y-48464565D01*
X135056626Y-48472015D01*
X135071938Y-48488072D01*
X135086827Y-48512364D01*
X135092895Y-48522798D01*
X135101179Y-48531193D01*
X135111943Y-48535056D01*
X135125054Y-48536168D01*
X135136049Y-48534919D01*
X135142283Y-48534111D01*
X135152673Y-48536894D01*
X135160168Y-48543206D01*
X135161661Y-48551087D01*
X135161527Y-48556138D01*
X135166253Y-48564243D01*
X135169912Y-48568464D01*
X135173192Y-48577828D01*
X135174046Y-48581699D01*
X135181207Y-48588868D01*
X135193352Y-48592953D01*
X135207688Y-48592745D01*
X135213216Y-48591108D01*
X135226756Y-48585646D01*
X135244307Y-48577553D01*
X135263466Y-48567900D01*
X135283109Y-48558159D01*
X135308630Y-48548079D01*
X135327912Y-48544332D01*
X135341157Y-48546926D01*
X135348566Y-48555867D01*
X135350340Y-48571165D01*
X135350432Y-48585942D01*
X135353716Y-48597620D01*
X135360972Y-48601390D01*
X135372653Y-48597423D01*
X135389213Y-48585891D01*
X135397772Y-48579309D01*
X135415251Y-48567661D01*
X135428538Y-48561532D01*
X135436584Y-48561460D01*
X135438072Y-48563765D01*
X135437341Y-48573444D01*
X135432092Y-48589050D01*
X135422649Y-48609466D01*
X135418459Y-48617799D01*
X135415415Y-48625022D01*
X135416160Y-48627429D01*
X135420447Y-48626996D01*
X135423235Y-48627386D01*
X135425658Y-48632947D01*
X135425674Y-48634489D01*
X135429108Y-48638384D01*
X135439331Y-48638475D01*
X135441705Y-48638213D01*
X135463793Y-48635632D01*
X135478260Y-48633538D01*
X135486446Y-48631625D01*
X135489690Y-48629591D01*
X135489331Y-48627132D01*
X135488957Y-48626416D01*
X135491081Y-48624023D01*
X135501207Y-48625145D01*
X135514620Y-48627219D01*
X135526983Y-48628136D01*
X135535369Y-48629156D01*
X135536525Y-48632616D01*
X135529790Y-48638915D01*
X135514928Y-48648448D01*
X135505174Y-48654592D01*
X135495838Y-48661447D01*
X135492230Y-48665539D01*
X135491535Y-48667145D01*
X135485588Y-48669155D01*
X135481521Y-48670943D01*
X135473200Y-48677941D01*
X135464029Y-48687694D01*
X135456529Y-48697456D01*
X135453217Y-48704476D01*
X135452395Y-48706014D01*
X135446597Y-48713100D01*
X135436484Y-48724145D01*
X135423519Y-48737520D01*
X135401946Y-48761491D01*
X135382912Y-48790205D01*
X135372370Y-48818640D01*
X135370120Y-48847839D01*
X135375959Y-48878844D01*
X135389686Y-48912699D01*
X135397831Y-48927304D01*
X135419346Y-48956742D01*
X135445460Y-48983837D01*
X135473361Y-49005471D01*
X135483607Y-49012744D01*
X135494509Y-49021827D01*
X135498539Y-49025376D01*
X135513622Y-49036769D01*
X135534040Y-49050561D01*
X135557788Y-49065515D01*
X135582861Y-49080390D01*
X135607254Y-49093946D01*
X135628961Y-49104945D01*
X135637967Y-49109206D01*
X135660527Y-49120027D01*
X135677934Y-49128823D01*
X135692532Y-49136951D01*
X135706664Y-49145765D01*
X135722673Y-49156623D01*
X135742903Y-49170879D01*
X135748849Y-49174982D01*
X135771144Y-49189178D01*
X135797934Y-49204944D01*
X135826363Y-49220634D01*
X135853575Y-49234607D01*
X135869732Y-49242690D01*
X135889870Y-49253309D01*
X135905725Y-49262332D01*
X135915977Y-49268996D01*
X135919304Y-49272539D01*
X135918920Y-49273358D01*
X135912168Y-49277965D01*
X135897348Y-49282365D01*
X135873937Y-49286722D01*
X135870816Y-49287289D01*
X135860860Y-49290379D01*
X135856845Y-49293878D01*
X135857146Y-49295334D01*
X135862534Y-49299974D01*
X135875147Y-49304546D01*
X135895610Y-49309241D01*
X135924550Y-49314246D01*
X135932643Y-49315549D01*
X135956251Y-49319683D01*
X135978735Y-49324033D01*
X135996146Y-49327850D01*
X136008765Y-49330514D01*
X136027192Y-49333250D01*
X136041723Y-49334127D01*
X136059663Y-49333676D01*
X136039205Y-49327265D01*
X136033290Y-49325058D01*
X136022274Y-49319004D01*
X136009331Y-49309273D01*
X135993107Y-49294798D01*
X135972250Y-49274513D01*
X135925751Y-49228173D01*
X135937787Y-49207313D01*
X135942499Y-49199574D01*
X135950094Y-49188703D01*
X135955500Y-49182947D01*
X135956541Y-49182196D01*
X135963411Y-49175143D01*
X135971501Y-49164716D01*
X135975980Y-49158037D01*
X135977592Y-49154165D01*
X135973681Y-49156535D01*
X135966641Y-49160492D01*
X135962137Y-49157579D01*
X135960714Y-49150677D01*
X135960065Y-49137229D01*
X135960134Y-49119897D01*
X135960823Y-49101279D01*
X135962036Y-49083975D01*
X135963674Y-49070585D01*
X135965642Y-49063707D01*
X135968010Y-49056572D01*
X135968674Y-49045164D01*
X135968652Y-49041990D01*
X135970203Y-49027403D01*
X135973614Y-49011747D01*
X135974928Y-49006694D01*
X135977378Y-48992929D01*
X135977548Y-48983238D01*
X135977212Y-48977493D01*
X135977950Y-48964208D01*
X135979896Y-48948289D01*
X135980167Y-48946486D01*
X135982518Y-48928031D01*
X135984870Y-48905503D01*
X135986751Y-48883366D01*
X135987220Y-48877176D01*
X135988776Y-48859295D01*
X135990288Y-48845297D01*
X135991486Y-48837789D01*
X135992449Y-48833627D01*
X135994807Y-48820323D01*
X135997458Y-48802488D01*
X135999944Y-48783097D01*
X136001600Y-48770104D01*
X136004602Y-48752161D01*
X136105775Y-48752161D01*
X136105870Y-48758030D01*
X136107346Y-48761302D01*
X136110285Y-48764866D01*
X136111101Y-48764111D01*
X136112076Y-48758030D01*
X136111579Y-48754887D01*
X136107661Y-48751193D01*
X136105775Y-48752161D01*
X136004602Y-48752161D01*
X136005424Y-48747246D01*
X136009465Y-48731920D01*
X136013535Y-48724918D01*
X136018557Y-48718579D01*
X136023372Y-48707895D01*
X136023643Y-48707114D01*
X136027944Y-48698461D01*
X136031917Y-48695751D01*
X136033659Y-48695945D01*
X136039022Y-48692156D01*
X136042873Y-48689733D01*
X136051982Y-48691296D01*
X136063664Y-48697410D01*
X136076033Y-48706614D01*
X136087203Y-48717448D01*
X136095289Y-48728449D01*
X136098403Y-48738158D01*
X136099605Y-48742881D01*
X136105446Y-48746636D01*
X136107598Y-48746403D01*
X136109898Y-48744403D01*
X136110611Y-48739157D01*
X136109663Y-48729248D01*
X136106981Y-48713257D01*
X136102490Y-48689765D01*
X136097351Y-48666415D01*
X136087573Y-48634721D01*
X136075661Y-48610433D01*
X136061072Y-48592544D01*
X136043261Y-48580047D01*
X136028238Y-48574499D01*
X136012322Y-48575025D01*
X135994197Y-48582764D01*
X135984806Y-48589342D01*
X135974076Y-48599971D01*
X135962001Y-48615195D01*
X135947929Y-48635919D01*
X135931205Y-48663046D01*
X135911174Y-48697479D01*
X135906471Y-48705799D01*
X135890834Y-48734438D01*
X135874839Y-48765030D01*
X135859075Y-48796330D01*
X135844126Y-48827092D01*
X135830580Y-48856068D01*
X135819023Y-48882012D01*
X135810042Y-48903677D01*
X135804223Y-48919817D01*
X135802153Y-48929186D01*
X135802777Y-48930700D01*
X135808315Y-48930390D01*
X135818118Y-48925767D01*
X135830392Y-48918026D01*
X135843342Y-48908359D01*
X135855172Y-48897959D01*
X135864088Y-48888018D01*
X135864444Y-48887535D01*
X135877541Y-48869755D01*
X135885997Y-48858999D01*
X135890734Y-48855086D01*
X135892671Y-48857836D01*
X135892730Y-48867072D01*
X135891831Y-48882613D01*
X135891375Y-48889597D01*
X135890233Y-48900154D01*
X135888158Y-48910357D01*
X135884614Y-48921617D01*
X135879062Y-48935344D01*
X135870964Y-48952949D01*
X135859781Y-48975843D01*
X135844976Y-49005437D01*
X135840195Y-49014900D01*
X135826566Y-49041373D01*
X135813892Y-49065289D01*
X135802941Y-49085240D01*
X135794479Y-49099822D01*
X135789272Y-49107630D01*
X135786050Y-49111294D01*
X135778777Y-49117114D01*
X135769619Y-49119283D01*
X135755006Y-49118983D01*
X135746857Y-49118249D01*
X135732203Y-49115816D01*
X135722394Y-49112723D01*
X135716844Y-49110204D01*
X135703741Y-49105160D01*
X135688211Y-49099840D01*
X135675065Y-49095387D01*
X135646390Y-49083398D01*
X135626344Y-49070916D01*
X135614575Y-49057685D01*
X135610730Y-49043447D01*
X135611745Y-49036205D01*
X135615567Y-49020897D01*
X135621662Y-49000341D01*
X135629426Y-48976333D01*
X135638256Y-48950668D01*
X135647548Y-48925142D01*
X135656699Y-48901550D01*
X135665105Y-48881689D01*
X135676299Y-48858183D01*
X135698499Y-48816945D01*
X135724329Y-48774262D01*
X135753064Y-48730994D01*
X135783979Y-48688001D01*
X135816350Y-48646143D01*
X135849451Y-48606279D01*
X135882559Y-48569271D01*
X135914948Y-48535977D01*
X135945894Y-48507259D01*
X135974673Y-48483975D01*
X136000558Y-48466986D01*
X136022827Y-48457152D01*
X136030025Y-48455493D01*
X136052821Y-48455916D01*
X136073987Y-48464321D01*
X136091199Y-48479934D01*
X136099227Y-48491530D01*
X136115142Y-48520384D01*
X136130939Y-48556205D01*
X136146160Y-48597583D01*
X136160345Y-48643107D01*
X136173038Y-48691368D01*
X136183780Y-48740956D01*
X136186654Y-48758030D01*
X136192112Y-48790460D01*
G37*
D15*
%TO.C,LOGO1*%
X108689644Y-48284343D02*
X108754000Y-48401612D01*
X108755076Y-48423926D01*
X108795507Y-48489181D01*
X108923201Y-48504950D01*
X109177334Y-48478334D01*
X109202366Y-48474936D01*
X109448218Y-48452093D01*
X109568698Y-48473253D01*
X109600667Y-48544148D01*
X109591210Y-48581182D01*
X109463175Y-48664866D01*
X109177334Y-48724342D01*
X109151465Y-48727834D01*
X108904676Y-48774996D01*
X108785175Y-48841195D01*
X108754000Y-48946916D01*
X108730509Y-49043050D01*
X108627000Y-49113334D01*
X108560668Y-49086244D01*
X108513596Y-48956219D01*
X108500000Y-48690000D01*
X108508127Y-48468894D01*
X108547135Y-48311986D01*
X108627000Y-48266667D01*
X108689644Y-48284343D01*
G36*
X108689644Y-48284343D02*
G01*
X108754000Y-48401612D01*
X108755076Y-48423926D01*
X108795507Y-48489181D01*
X108923201Y-48504950D01*
X109177334Y-48478334D01*
X109202366Y-48474936D01*
X109448218Y-48452093D01*
X109568698Y-48473253D01*
X109600667Y-48544148D01*
X109591210Y-48581182D01*
X109463175Y-48664866D01*
X109177334Y-48724342D01*
X109151465Y-48727834D01*
X108904676Y-48774996D01*
X108785175Y-48841195D01*
X108754000Y-48946916D01*
X108730509Y-49043050D01*
X108627000Y-49113334D01*
X108560668Y-49086244D01*
X108513596Y-48956219D01*
X108500000Y-48690000D01*
X108508127Y-48468894D01*
X108547135Y-48311986D01*
X108627000Y-48266667D01*
X108689644Y-48284343D01*
G37*
X109608836Y-49208320D02*
X109659270Y-49304919D01*
X109667544Y-49476083D01*
X109553533Y-49687161D01*
X109517372Y-49733769D01*
X109328490Y-49860343D01*
X109139319Y-49835609D01*
X108991596Y-49661474D01*
X108964247Y-49607901D01*
X108848427Y-49489271D01*
X108751982Y-49523919D01*
X108711667Y-49706000D01*
X108688619Y-49835971D01*
X108605834Y-49938412D01*
X108543696Y-49917135D01*
X108503621Y-49788847D01*
X108504491Y-49601927D01*
X108544772Y-49414838D01*
X108622933Y-49286042D01*
X108784311Y-49212433D01*
X108984940Y-49255049D01*
X109133910Y-49431328D01*
X109199420Y-49542230D01*
X109315169Y-49621882D01*
X109400631Y-49575718D01*
X109410225Y-49407646D01*
X109401665Y-49340992D01*
X109427410Y-49182926D01*
X109507447Y-49127683D01*
X109608836Y-49208320D01*
G36*
X109608836Y-49208320D02*
G01*
X109659270Y-49304919D01*
X109667544Y-49476083D01*
X109553533Y-49687161D01*
X109517372Y-49733769D01*
X109328490Y-49860343D01*
X109139319Y-49835609D01*
X108991596Y-49661474D01*
X108964247Y-49607901D01*
X108848427Y-49489271D01*
X108751982Y-49523919D01*
X108711667Y-49706000D01*
X108688619Y-49835971D01*
X108605834Y-49938412D01*
X108543696Y-49917135D01*
X108503621Y-49788847D01*
X108504491Y-49601927D01*
X108544772Y-49414838D01*
X108622933Y-49286042D01*
X108784311Y-49212433D01*
X108984940Y-49255049D01*
X109133910Y-49431328D01*
X109199420Y-49542230D01*
X109315169Y-49621882D01*
X109400631Y-49575718D01*
X109410225Y-49407646D01*
X109401665Y-49340992D01*
X109427410Y-49182926D01*
X109507447Y-49127683D01*
X109608836Y-49208320D01*
G37*
X109236812Y-47080401D02*
X109460585Y-47130859D01*
X109595932Y-47229500D01*
X109643677Y-47432331D01*
X109615001Y-47681009D01*
X109520361Y-47871082D01*
X109508676Y-47880907D01*
X109360123Y-47947108D01*
X109122471Y-48016406D01*
X108862794Y-48071556D01*
X108648167Y-48095314D01*
X108569315Y-48078617D01*
X108500000Y-47982241D01*
X108513690Y-47945765D01*
X108658155Y-47861395D01*
X108944500Y-47791741D01*
X109039613Y-47774798D01*
X109263762Y-47717221D01*
X109375283Y-47638993D01*
X109417509Y-47514740D01*
X109424415Y-47402683D01*
X109378448Y-47346265D01*
X109240789Y-47334174D01*
X108973009Y-47352373D01*
X108746093Y-47364710D01*
X108558109Y-47347526D01*
X108500000Y-47287858D01*
X108556923Y-47190335D01*
X108732782Y-47112919D01*
X108976811Y-47075347D01*
X109236812Y-47080401D01*
G36*
X109236812Y-47080401D02*
G01*
X109460585Y-47130859D01*
X109595932Y-47229500D01*
X109643677Y-47432331D01*
X109615001Y-47681009D01*
X109520361Y-47871082D01*
X109508676Y-47880907D01*
X109360123Y-47947108D01*
X109122471Y-48016406D01*
X108862794Y-48071556D01*
X108648167Y-48095314D01*
X108569315Y-48078617D01*
X108500000Y-47982241D01*
X108513690Y-47945765D01*
X108658155Y-47861395D01*
X108944500Y-47791741D01*
X109039613Y-47774798D01*
X109263762Y-47717221D01*
X109375283Y-47638993D01*
X109417509Y-47514740D01*
X109424415Y-47402683D01*
X109378448Y-47346265D01*
X109240789Y-47334174D01*
X108973009Y-47352373D01*
X108746093Y-47364710D01*
X108558109Y-47347526D01*
X108500000Y-47287858D01*
X108556923Y-47190335D01*
X108732782Y-47112919D01*
X108976811Y-47075347D01*
X109236812Y-47080401D01*
G37*
X106482557Y-51396415D02*
X106401373Y-51621517D01*
X106246400Y-51990314D01*
X106133276Y-52256897D01*
X105792308Y-53214463D01*
X105593057Y-54095127D01*
X105536807Y-54913309D01*
X105624838Y-55683426D01*
X105858433Y-56419895D01*
X106238873Y-57137133D01*
X106767442Y-57849559D01*
X106839479Y-57935169D01*
X107034039Y-58168916D01*
X107170987Y-58337298D01*
X107224302Y-58408479D01*
X107223370Y-58417260D01*
X107147853Y-58392543D01*
X106979225Y-58284812D01*
X106747321Y-58114432D01*
X106481975Y-57901770D01*
X106435341Y-57862345D01*
X105893275Y-57313510D01*
X105473482Y-56709242D01*
X105199318Y-56082668D01*
X105117039Y-55775022D01*
X105038863Y-55207797D01*
X105062760Y-54627555D01*
X105193189Y-54007658D01*
X105434603Y-53321464D01*
X105791458Y-52542334D01*
X105959130Y-52210962D01*
X106170824Y-51809890D01*
X106334085Y-51521746D01*
X106443842Y-51352683D01*
X106495023Y-51308855D01*
X106482557Y-51396415D01*
G36*
X106482557Y-51396415D02*
G01*
X106401373Y-51621517D01*
X106246400Y-51990314D01*
X106133276Y-52256897D01*
X105792308Y-53214463D01*
X105593057Y-54095127D01*
X105536807Y-54913309D01*
X105624838Y-55683426D01*
X105858433Y-56419895D01*
X106238873Y-57137133D01*
X106767442Y-57849559D01*
X106839479Y-57935169D01*
X107034039Y-58168916D01*
X107170987Y-58337298D01*
X107224302Y-58408479D01*
X107223370Y-58417260D01*
X107147853Y-58392543D01*
X106979225Y-58284812D01*
X106747321Y-58114432D01*
X106481975Y-57901770D01*
X106435341Y-57862345D01*
X105893275Y-57313510D01*
X105473482Y-56709242D01*
X105199318Y-56082668D01*
X105117039Y-55775022D01*
X105038863Y-55207797D01*
X105062760Y-54627555D01*
X105193189Y-54007658D01*
X105434603Y-53321464D01*
X105791458Y-52542334D01*
X105959130Y-52210962D01*
X106170824Y-51809890D01*
X106334085Y-51521746D01*
X106443842Y-51352683D01*
X106495023Y-51308855D01*
X106482557Y-51396415D01*
G37*
X108820851Y-50173659D02*
X109143136Y-50262341D01*
X109319296Y-50321428D01*
X109523915Y-50421830D01*
X109600667Y-50511376D01*
X109600593Y-50513380D01*
X109526760Y-50610268D01*
X109340806Y-50750318D01*
X109081851Y-50903930D01*
X109053984Y-50918902D01*
X108820276Y-51056145D01*
X108678527Y-51161169D01*
X108658517Y-51212284D01*
X108708815Y-51252358D01*
X108754000Y-51398463D01*
X108777742Y-51491544D01*
X108902167Y-51523775D01*
X108959193Y-51512673D01*
X109284973Y-51455037D01*
X109480418Y-51436959D01*
X109575620Y-51458213D01*
X109600667Y-51518575D01*
X109600663Y-51519432D01*
X109521292Y-51631073D01*
X109307587Y-51707513D01*
X108992722Y-51736844D01*
X108810816Y-51778364D01*
X108738722Y-51921868D01*
X108701847Y-52037889D01*
X108605834Y-52140591D01*
X108584973Y-52142975D01*
X108535224Y-52078544D01*
X108508171Y-51888000D01*
X108500000Y-51550069D01*
X108500000Y-50924694D01*
X108859834Y-50747167D01*
X108890599Y-50731897D01*
X109073914Y-50628480D01*
X109114036Y-50557097D01*
X109002998Y-50497921D01*
X108732834Y-50431125D01*
X108572943Y-50361642D01*
X108500000Y-50254720D01*
X108501054Y-50226406D01*
X108531449Y-50156067D01*
X108627502Y-50138360D01*
X108820851Y-50173659D01*
G36*
X108820851Y-50173659D02*
G01*
X109143136Y-50262341D01*
X109319296Y-50321428D01*
X109523915Y-50421830D01*
X109600667Y-50511376D01*
X109600593Y-50513380D01*
X109526760Y-50610268D01*
X109340806Y-50750318D01*
X109081851Y-50903930D01*
X109053984Y-50918902D01*
X108820276Y-51056145D01*
X108678527Y-51161169D01*
X108658517Y-51212284D01*
X108708815Y-51252358D01*
X108754000Y-51398463D01*
X108777742Y-51491544D01*
X108902167Y-51523775D01*
X108959193Y-51512673D01*
X109284973Y-51455037D01*
X109480418Y-51436959D01*
X109575620Y-51458213D01*
X109600667Y-51518575D01*
X109600663Y-51519432D01*
X109521292Y-51631073D01*
X109307587Y-51707513D01*
X108992722Y-51736844D01*
X108810816Y-51778364D01*
X108738722Y-51921868D01*
X108701847Y-52037889D01*
X108605834Y-52140591D01*
X108584973Y-52142975D01*
X108535224Y-52078544D01*
X108508171Y-51888000D01*
X108500000Y-51550069D01*
X108500000Y-50924694D01*
X108859834Y-50747167D01*
X108890599Y-50731897D01*
X109073914Y-50628480D01*
X109114036Y-50557097D01*
X109002998Y-50497921D01*
X108732834Y-50431125D01*
X108572943Y-50361642D01*
X108500000Y-50254720D01*
X108501054Y-50226406D01*
X108531449Y-50156067D01*
X108627502Y-50138360D01*
X108820851Y-50173659D01*
G37*
X109818973Y-46405925D02*
X109997845Y-46451827D01*
X110233420Y-46534503D01*
X110500429Y-46649551D01*
X110972205Y-46935459D01*
X111364277Y-47336869D01*
X111610469Y-47820343D01*
X111668339Y-48065807D01*
X111689424Y-48600012D01*
X111605144Y-49222950D01*
X111421038Y-49910966D01*
X111142640Y-50640408D01*
X110775489Y-51387621D01*
X110640486Y-51624765D01*
X110443795Y-51952599D01*
X110221948Y-52309526D01*
X109993760Y-52666558D01*
X109778048Y-52994708D01*
X109593627Y-53264990D01*
X109459313Y-53448417D01*
X109393923Y-53516000D01*
X109394964Y-53504364D01*
X109446240Y-53380927D01*
X109557028Y-53144034D01*
X109714671Y-52820340D01*
X109906512Y-52436500D01*
X109915408Y-52418863D01*
X110146511Y-51938793D01*
X110374941Y-51427735D01*
X110574784Y-50945692D01*
X110720125Y-50552667D01*
X110822955Y-50231558D01*
X110909661Y-49903059D01*
X110960514Y-49592277D01*
X110985070Y-49236913D01*
X110992887Y-48774667D01*
X110991869Y-48387296D01*
X110979376Y-48057005D01*
X110949418Y-47820015D01*
X110896448Y-47635425D01*
X110814921Y-47462334D01*
X110734930Y-47326388D01*
X110360842Y-46877640D01*
X109897000Y-46544449D01*
X109875274Y-46532879D01*
X109732418Y-46442050D01*
X109722074Y-46401199D01*
X109818973Y-46405925D01*
G36*
X109818973Y-46405925D02*
G01*
X109997845Y-46451827D01*
X110233420Y-46534503D01*
X110500429Y-46649551D01*
X110972205Y-46935459D01*
X111364277Y-47336869D01*
X111610469Y-47820343D01*
X111668339Y-48065807D01*
X111689424Y-48600012D01*
X111605144Y-49222950D01*
X111421038Y-49910966D01*
X111142640Y-50640408D01*
X110775489Y-51387621D01*
X110640486Y-51624765D01*
X110443795Y-51952599D01*
X110221948Y-52309526D01*
X109993760Y-52666558D01*
X109778048Y-52994708D01*
X109593627Y-53264990D01*
X109459313Y-53448417D01*
X109393923Y-53516000D01*
X109394964Y-53504364D01*
X109446240Y-53380927D01*
X109557028Y-53144034D01*
X109714671Y-52820340D01*
X109906512Y-52436500D01*
X109915408Y-52418863D01*
X110146511Y-51938793D01*
X110374941Y-51427735D01*
X110574784Y-50945692D01*
X110720125Y-50552667D01*
X110822955Y-50231558D01*
X110909661Y-49903059D01*
X110960514Y-49592277D01*
X110985070Y-49236913D01*
X110992887Y-48774667D01*
X110991869Y-48387296D01*
X110979376Y-48057005D01*
X110949418Y-47820015D01*
X110896448Y-47635425D01*
X110814921Y-47462334D01*
X110734930Y-47326388D01*
X110360842Y-46877640D01*
X109897000Y-46544449D01*
X109875274Y-46532879D01*
X109732418Y-46442050D01*
X109722074Y-46401199D01*
X109818973Y-46405925D01*
G37*
X108498643Y-44083559D02*
X108729932Y-44238285D01*
X109005182Y-44510792D01*
X109299938Y-44874626D01*
X109589745Y-45303334D01*
X109786997Y-45630705D01*
X109895003Y-45835276D01*
X109913634Y-45925725D01*
X109845554Y-45915263D01*
X109693430Y-45817099D01*
X109686887Y-45812500D01*
X109442824Y-45691925D01*
X109200189Y-45642000D01*
X109091793Y-45652467D01*
X108855318Y-45762886D01*
X108644661Y-45999487D01*
X108457283Y-46369406D01*
X108290644Y-46879780D01*
X108142204Y-47537746D01*
X108009425Y-48350440D01*
X107889767Y-49325000D01*
X107865123Y-49639489D01*
X107842159Y-50118690D01*
X107822551Y-50728401D01*
X107806404Y-51448660D01*
X107793828Y-52259507D01*
X107784927Y-53140978D01*
X107779811Y-54073113D01*
X107778585Y-55035950D01*
X107781357Y-56009527D01*
X107788234Y-56973882D01*
X107799324Y-57909053D01*
X107814732Y-58795080D01*
X107834567Y-59612000D01*
X107888801Y-61517000D01*
X107775458Y-60247000D01*
X107772030Y-60208393D01*
X107729655Y-59707778D01*
X107680553Y-59093333D01*
X107628602Y-58415556D01*
X107577680Y-57724946D01*
X107531663Y-57072000D01*
X107513673Y-56806529D01*
X107395813Y-54886221D01*
X107309837Y-53118301D01*
X107255662Y-51503943D01*
X107233208Y-50044323D01*
X107242390Y-48740618D01*
X107283127Y-47594000D01*
X107355336Y-46605647D01*
X107458934Y-45776734D01*
X107593839Y-45108435D01*
X107759968Y-44601926D01*
X107957240Y-44258382D01*
X108185570Y-44078979D01*
X108444878Y-44064892D01*
X108498643Y-44083559D01*
G36*
X108498643Y-44083559D02*
G01*
X108729932Y-44238285D01*
X109005182Y-44510792D01*
X109299938Y-44874626D01*
X109589745Y-45303334D01*
X109786997Y-45630705D01*
X109895003Y-45835276D01*
X109913634Y-45925725D01*
X109845554Y-45915263D01*
X109693430Y-45817099D01*
X109686887Y-45812500D01*
X109442824Y-45691925D01*
X109200189Y-45642000D01*
X109091793Y-45652467D01*
X108855318Y-45762886D01*
X108644661Y-45999487D01*
X108457283Y-46369406D01*
X108290644Y-46879780D01*
X108142204Y-47537746D01*
X108009425Y-48350440D01*
X107889767Y-49325000D01*
X107865123Y-49639489D01*
X107842159Y-50118690D01*
X107822551Y-50728401D01*
X107806404Y-51448660D01*
X107793828Y-52259507D01*
X107784927Y-53140978D01*
X107779811Y-54073113D01*
X107778585Y-55035950D01*
X107781357Y-56009527D01*
X107788234Y-56973882D01*
X107799324Y-57909053D01*
X107814732Y-58795080D01*
X107834567Y-59612000D01*
X107888801Y-61517000D01*
X107775458Y-60247000D01*
X107772030Y-60208393D01*
X107729655Y-59707778D01*
X107680553Y-59093333D01*
X107628602Y-58415556D01*
X107577680Y-57724946D01*
X107531663Y-57072000D01*
X107513673Y-56806529D01*
X107395813Y-54886221D01*
X107309837Y-53118301D01*
X107255662Y-51503943D01*
X107233208Y-50044323D01*
X107242390Y-48740618D01*
X107283127Y-47594000D01*
X107355336Y-46605647D01*
X107458934Y-45776734D01*
X107593839Y-45108435D01*
X107759968Y-44601926D01*
X107957240Y-44258382D01*
X108185570Y-44078979D01*
X108444878Y-44064892D01*
X108498643Y-44083559D01*
G37*
X108888382Y-52554974D02*
X108849913Y-52717131D01*
X108773953Y-52982610D01*
X108670601Y-53314889D01*
X108457453Y-54155866D01*
X108330587Y-55088694D01*
X108302743Y-56030398D01*
X108375229Y-56933203D01*
X108549350Y-57749334D01*
X108635726Y-58015831D01*
X108859810Y-58535815D01*
X109107160Y-58905027D01*
X109369717Y-59120686D01*
X109639425Y-59180009D01*
X109908225Y-59080214D01*
X110168059Y-58818518D01*
X110410870Y-58392139D01*
X110512909Y-58135632D01*
X110682163Y-57462542D01*
X110761459Y-56708366D01*
X110752579Y-55915448D01*
X110657303Y-55126130D01*
X110477412Y-54382755D01*
X110214686Y-53727667D01*
X110085501Y-53473667D01*
X110279358Y-53643000D01*
X110432570Y-53804138D01*
X110668294Y-54119164D01*
X110911585Y-54502742D01*
X111130908Y-54904244D01*
X111294726Y-55273042D01*
X111380150Y-55545114D01*
X111475619Y-55951259D01*
X111539577Y-56343722D01*
X111577305Y-57098531D01*
X111516518Y-57838434D01*
X111361745Y-58514328D01*
X111119800Y-59096706D01*
X110797501Y-59556059D01*
X110721203Y-59634357D01*
X110347560Y-59911897D01*
X109971786Y-60025944D01*
X109602511Y-59980952D01*
X109248364Y-59781375D01*
X108917975Y-59431666D01*
X108619973Y-58936279D01*
X108362989Y-58299667D01*
X108321139Y-58164321D01*
X108176699Y-57493095D01*
X108094884Y-56726616D01*
X108077279Y-55915983D01*
X108125467Y-55112297D01*
X108241034Y-54366657D01*
X108303478Y-54101428D01*
X108406876Y-53724894D01*
X108523111Y-53350752D01*
X108640844Y-53011235D01*
X108748737Y-52738575D01*
X108835450Y-52565005D01*
X108889647Y-52522758D01*
X108888382Y-52554974D01*
G36*
X108888382Y-52554974D02*
G01*
X108849913Y-52717131D01*
X108773953Y-52982610D01*
X108670601Y-53314889D01*
X108457453Y-54155866D01*
X108330587Y-55088694D01*
X108302743Y-56030398D01*
X108375229Y-56933203D01*
X108549350Y-57749334D01*
X108635726Y-58015831D01*
X108859810Y-58535815D01*
X109107160Y-58905027D01*
X109369717Y-59120686D01*
X109639425Y-59180009D01*
X109908225Y-59080214D01*
X110168059Y-58818518D01*
X110410870Y-58392139D01*
X110512909Y-58135632D01*
X110682163Y-57462542D01*
X110761459Y-56708366D01*
X110752579Y-55915448D01*
X110657303Y-55126130D01*
X110477412Y-54382755D01*
X110214686Y-53727667D01*
X110085501Y-53473667D01*
X110279358Y-53643000D01*
X110432570Y-53804138D01*
X110668294Y-54119164D01*
X110911585Y-54502742D01*
X111130908Y-54904244D01*
X111294726Y-55273042D01*
X111380150Y-55545114D01*
X111475619Y-55951259D01*
X111539577Y-56343722D01*
X111577305Y-57098531D01*
X111516518Y-57838434D01*
X111361745Y-58514328D01*
X111119800Y-59096706D01*
X110797501Y-59556059D01*
X110721203Y-59634357D01*
X110347560Y-59911897D01*
X109971786Y-60025944D01*
X109602511Y-59980952D01*
X109248364Y-59781375D01*
X108917975Y-59431666D01*
X108619973Y-58936279D01*
X108362989Y-58299667D01*
X108321139Y-58164321D01*
X108176699Y-57493095D01*
X108094884Y-56726616D01*
X108077279Y-55915983D01*
X108125467Y-55112297D01*
X108241034Y-54366657D01*
X108303478Y-54101428D01*
X108406876Y-53724894D01*
X108523111Y-53350752D01*
X108640844Y-53011235D01*
X108748737Y-52738575D01*
X108835450Y-52565005D01*
X108889647Y-52522758D01*
X108888382Y-52554974D01*
G37*
D13*
%TO.C,R1*%
X142435436Y-46985000D02*
X142889564Y-46985000D01*
X142435436Y-45515000D02*
X142889564Y-45515000D01*
%TO.C,F1*%
X147590000Y-50647936D02*
X147590000Y-51852064D01*
X149410000Y-50647936D02*
X149410000Y-51852064D01*
%TO.C,R2*%
X132977064Y-64015000D02*
X132522936Y-64015000D01*
X132977064Y-65485000D02*
X132522936Y-65485000D01*
%TD*%
M02*
